<svg width="20" height="20" viewBox="0 0 20 20" xmlns="http://www.w3.org/2000/svg">
<path d="M0.833313 15C0.958313 13.5139 1.41317 12.1458 2.1979 10.8958C2.98262 9.64583 4.02776 8.65278 5.33331 7.91667L3.79165 5.25C3.70831 5.125 3.68748 4.99306 3.72915 4.85417C3.77081 4.71528 3.86109 4.61111 3.99998 4.54167C4.11109 4.47222 4.23609 4.45833 4.37498 4.5C4.51387 4.54167 4.62498 4.625 4.70831 4.75L6.24998 7.41667C7.44442 6.91667 8.69442 6.66667 9.99998 6.66667C11.3055 6.66667 12.5555 6.91667 13.75 7.41667L15.2916 4.75C15.375 4.625 15.4861 4.54167 15.625 4.5C15.7639 4.45833 15.8889 4.47222 16 4.54167C16.1389 4.61111 16.2291 4.71528 16.2708 4.85417C16.3125 4.99306 16.2916 5.125 16.2083 5.25L14.6666 7.91667C15.9722 8.65278 17.0173 9.64583 17.8021 10.8958C18.5868 12.1458 19.0416 13.5139 19.1666 15H0.833313ZM5.83331 12.7083C6.12498 12.7083 6.37151 12.6076 6.5729 12.4063C6.77428 12.2049 6.87498 11.9583 6.87498 11.6667C6.87498 11.375 6.77428 11.1285 6.5729 10.9271C6.37151 10.7257 6.12498 10.625 5.83331 10.625C5.54165 10.625 5.29512 10.7257 5.09373 10.9271C4.89234 11.1285 4.79165 11.375 4.79165 11.6667C4.79165 11.9583 4.89234 12.2049 5.09373 12.4063C5.29512 12.6076 5.54165 12.7083 5.83331 12.7083ZM14.1666 12.7083C14.4583 12.7083 14.7048 12.6076 14.9062 12.4063C15.1076 12.2049 15.2083 11.9583 15.2083 11.6667C15.2083 11.375 15.1076 11.1285 14.9062 10.9271C14.7048 10.7257 14.4583 10.625 14.1666 10.625C13.875 10.625 13.6285 10.7257 13.4271 10.9271C13.2257 11.1285 13.125 11.375 13.125 11.6667C13.125 11.9583 13.2257 12.2049 13.4271 12.4063C13.6285 12.6076 13.875 12.7083 14.1666 12.7083Z" fill="currentColor"/>
</svg>
