<svg width="20" height="20" viewBox="0 0 20 20" xmlns="http://www.w3.org/2000/svg">
<path d="M15 13.125C15 14.5695 14.4931 15.7986 13.4792 16.8125C12.4653 17.8264 11.2362 18.3334 9.79171 18.3334C8.34726 18.3334 7.1181 17.8264 6.10421 16.8125C5.09032 15.7986 4.58337 14.5695 4.58337 13.125V5.41669C4.58337 4.37502 4.94796 3.4896 5.67712 2.76044C6.40629 2.03127 7.29171 1.66669 8.33337 1.66669C9.37504 1.66669 10.2605 2.03127 10.9896 2.76044C11.7188 3.4896 12.0834 4.37502 12.0834 5.41669V12.7084C12.0834 13.3472 11.8612 13.8889 11.4167 14.3334C10.9723 14.7778 10.4306 15 9.79171 15C9.15282 15 8.61115 14.7778 8.16671 14.3334C7.72226 13.8889 7.50004 13.3472 7.50004 12.7084V5.00002H9.16671V12.7084C9.16671 12.8889 9.22573 13.0382 9.34379 13.1563C9.46185 13.2743 9.61115 13.3334 9.79171 13.3334C9.97226 13.3334 10.1216 13.2743 10.2396 13.1563C10.3577 13.0382 10.4167 12.8889 10.4167 12.7084V5.41669C10.4028 4.83335 10.198 4.3403 9.80212 3.93752C9.40629 3.53474 8.91671 3.33335 8.33337 3.33335C7.75004 3.33335 7.25698 3.53474 6.85421 3.93752C6.45143 4.3403 6.25004 4.83335 6.25004 5.41669V13.125C6.23615 14.1111 6.57643 14.9479 7.27087 15.6354C7.96532 16.3229 8.8056 16.6667 9.79171 16.6667C10.7639 16.6667 11.5903 16.3229 12.2709 15.6354C12.9514 14.9479 13.3056 14.1111 13.3334 13.125V5.00002H15V13.125Z" fill="currentColor"/>
</svg>
