<?xml version="1.0" standalone="no"?>
<!DOCTYPE svg PUBLIC "-//W3C//DTD SVG 20010904//EN"
 "http://www.w3.org/TR/2001/REC-SVG-20010904/DTD/svg10.dtd">
<svg version="1.0" xmlns="http://www.w3.org/2000/svg"
 width="200.000000pt" height="200.000000pt" viewBox="0 0 200.000000 200.000000"
 preserveAspectRatio="xMidYMid meet">

<g transform="translate(0.000000,200.000000) scale(0.100000,-0.100000)"
fill="#000000" stroke="none">
<path d="M886 1723 c-17 -76 -105 -166 -192 -196 l-35 -13 38 -13 c81 -29 173
-123 189 -193 6 -31 6 -30 35 30 34 70 99 133 165 158 l44 17 -58 27 c-67 32
-125 92 -157 164 l-22 51 -7 -32z"/>
<path d="M1465 1395 c-34 -138 -163 -272 -302 -315 -53 -16 -54 -17 -27 -24
60 -15 141 -62 193 -110 64 -61 97 -110 127 -191 13 -33 23 -51 23 -40 1 32
59 145 98 194 44 52 135 113 206 137 l51 17 -39 12 c-67 20 -126 55 -182 108
-63 59 -89 99 -119 181 -21 59 -22 60 -29 31z"/>
<path d="M655 1213 c-12 -63 -69 -175 -122 -239 -79 -95 -188 -166 -311 -204
l-54 -17 69 -22 c195 -64 364 -237 415 -424 7 -26 15 -47 19 -47 4 0 10 16 13
35 12 61 86 193 143 256 83 90 197 161 303 189 l45 12 -55 17 c-203 64 -366
221 -423 407 -12 40 -25 74 -28 74 -4 0 -10 -17 -14 -37z"/>
</g>
</svg>
