    <svg
      viewBox="0 20 302 512"
      xmlns="http://www.w3.org/2000/svg"
      fill="white"
    >
<g transform="translate(0.000000,512.000000) scale(0.08,-0.08)"
fill="currentColor" stroke="none">
<path d="M3865 4855 c-33 -7 -92 -27 -130 -45 -67 -31 -104 -66 -786 -749
-394 -394 -739 -747 -767 -785 -154 -210 -240 -441 -264 -708 -11 -119 -11
-131 8 -174 11 -27 35 -60 58 -78 l38 -31 127 1 c264 2 536 98 764 270 50 38
360 341 789 771 768 770 748 747 783 895 68 290 -132 590 -426 637 -81 14
-119 13 -194 -4z m193 -363 c84 -38 115 -168 60 -248 -15 -22 -330 -341 -700
-709 -705 -703 -743 -737 -902 -810 -71 -33 -224 -81 -232 -73 -2 3 6 38 17
79 25 92 83 216 139 300 28 42 283 305 734 757 380 381 700 698 711 704 51 29
111 29 173 0z" fill="currentColor"/>
<path d="M755 4379 c-343 -50 -628 -302 -727 -644 l-23 -80 -3 -1152 c-2
-1001 -1 -1161 13 -1218 49 -214 229 -378 447 -407 69 -9 96 -8 161 5 118 24
189 66 348 207 l142 125 961 6 c840 5 970 8 1029 22 370 89 634 378 686 751
14 99 14 499 0 549 -13 50 -61 103 -106 118 -54 17 -126 7 -168 -25 -61 -47
-62 -54 -67 -351 -5 -290 -10 -320 -66 -430 -31 -63 -151 -182 -218 -217 -111
-60 -80 -58 -1137 -58 -684 0 -981 -3 -1013 -11 -36 -9 -77 -40 -215 -163 -94
-83 -182 -157 -196 -164 -29 -16 -108 -18 -144 -4 -40 16 -87 69 -99 112 -7
26 -10 398 -8 1152 l3 1113 23 59 c63 166 183 285 341 338 66 23 70 23 881 28
593 4 820 8 835 17 69 40 108 130 87 201 -16 54 -48 91 -96 113 -39 18 -82 19
-826 18 -432 -1 -812 -5 -845 -10z" fill="currentColor"/>
<path d="M789 3307 c-41 -28 -76 -78 -85 -122 -14 -77 46 -173 123 -194 23 -7
155 -11 323 -11 256 0 289 2 325 19 46 21 79 54 94 94 29 76 -5 176 -74 214
-39 22 -48 23 -356 23 -312 0 -316 0 -350 -23z"/>
<path d="M804 2611 c-129 -59 -135 -237 -9 -308 39 -22 47 -23 343 -23 329 0
343 2 394 56 83 89 53 232 -59 280 -25 11 -99 14 -330 14 -268 0 -302 -2 -339
-19z" fill="currentColor"/>
</g>
</svg>
