<svg width="20" height="20" viewBox="0 0 20 20" xmlns="http://www.w3.org/2000/svg">
<path d="M5.66663 15.8334V4.16669H10.2708C11.1736 4.16669 12.0069 4.44446 12.7708 5.00002C13.5347 5.55558 13.9166 6.32641 13.9166 7.31252C13.9166 8.02085 13.7569 8.56599 13.4375 8.94794C13.118 9.32988 12.8194 9.60419 12.5416 9.77085C12.8888 9.92363 13.2743 10.2084 13.6979 10.625C14.1215 11.0417 14.3333 11.6667 14.3333 12.5C14.3333 13.7361 13.8819 14.6007 12.9791 15.0938C12.0763 15.5868 11.2291 15.8334 10.4375 15.8334H5.66663ZM8.18746 13.5H10.3541C11.0208 13.5 11.427 13.3299 11.5729 12.9896C11.7187 12.6493 11.7916 12.4028 11.7916 12.25C11.7916 12.0972 11.7187 11.8507 11.5729 11.5104C11.427 11.1702 11 11 10.2916 11H8.18746V13.5ZM8.18746 8.75002H10.125C10.5833 8.75002 10.9166 8.63196 11.125 8.39585C11.3333 8.15974 11.4375 7.89585 11.4375 7.60419C11.4375 7.27085 11.3194 7.00002 11.0833 6.79169C10.8472 6.58335 10.5416 6.47919 10.1666 6.47919H8.18746V8.75002Z" fill="currentColor"/>
</svg>
