<svg width="20" height="20" viewBox="0 0 20 20" xmlns="http://www.w3.org/2000/svg" fill="currentColor">
<path d="M4.99996 17.5C4.37496 17.5 3.7569 17.3472 3.14579 17.0417C2.53468 16.7361 2.04163 16.3333 1.66663 15.8333C2.02774 15.8333 2.39579 15.691 2.77079 15.4063C3.14579 15.1215 3.33329 14.7083 3.33329 14.1667C3.33329 13.4722 3.57635 12.882 4.06246 12.3958C4.54857 11.9097 5.13885 11.6667 5.83329 11.6667C6.52774 11.6667 7.11802 11.9097 7.60413 12.3958C8.09024 12.882 8.33329 13.4722 8.33329 14.1667C8.33329 15.0833 8.0069 15.8681 7.35413 16.5208C6.70135 17.1736 5.91663 17.5 4.99996 17.5ZM4.99996 15.8333C5.45829 15.8333 5.85065 15.6701 6.17704 15.3438C6.50343 15.0174 6.66663 14.625 6.66663 14.1667C6.66663 13.9306 6.58677 13.7326 6.42704 13.5729C6.26732 13.4132 6.0694 13.3333 5.83329 13.3333C5.59718 13.3333 5.39926 13.4132 5.23954 13.5729C5.07982 13.7326 4.99996 13.9306 4.99996 14.1667C4.99996 14.4861 4.96176 14.7778 4.88538 15.0417C4.80899 15.3056 4.70829 15.5556 4.58329 15.7917C4.65274 15.8195 4.72218 15.8333 4.79163 15.8333H4.99996ZM9.79163 12.5L7.49996 10.2083L14.9583 2.75001C15.1111 2.59723 15.302 2.51737 15.5312 2.51043C15.7604 2.50348 15.9583 2.58334 16.125 2.75001L17.25 3.87501C17.4166 4.04168 17.5 4.23612 17.5 4.45834C17.5 4.68057 17.4166 4.87501 17.25 5.04168L9.79163 12.5Z" fill="currentColor"/>
</svg>
