<svg width="20" height="20" viewBox="0 -4 20 27" xmlns="http://www.w3.org/2000/svg">
<path d="M4.55556 17.7778C4.12778 17.7778 3.76157 17.6255 3.45694 17.3208C3.15231 17.0162 3 16.65 3 16.2222V5.33334C3 4.90556 3.15231 4.53936 3.45694 4.23473C3.76157 3.9301 4.12778 3.77778 4.55556 3.77778H5.33333V2.22223H6.88889V3.77778H13.1111V2.22223H14.6667V3.77778H15.4444C15.8722 3.77778 16.2384 3.9301 16.5431 4.23473C16.8477 4.53936 17 4.90556 17 5.33334V16.2222C17 16.65 16.8477 17.0162 16.5431 17.3208C16.2384 17.6255 15.8722 17.7778 15.4444 17.7778H4.55556ZM4.55556 16.2222H15.4444V8.44445H4.55556V16.2222ZM4.55556 6.8889H15.4444V5.33334H4.55556V6.8889ZM10 11.5556C9.77963 11.5556 9.59491 11.481 9.44583 11.332C9.29676 11.1829 9.22222 10.9982 9.22222 10.7778C9.22222 10.5574 9.29676 10.3727 9.44583 10.2236C9.59491 10.0745 9.77963 10 10 10C10.2204 10 10.4051 10.0745 10.5542 10.2236C10.7032 10.3727 10.7778 10.5574 10.7778 10.7778C10.7778 10.9982 10.7032 11.1829 10.5542 11.332C10.4051 11.481 10.2204 11.5556 10 11.5556ZM6.88889 11.5556C6.66852 11.5556 6.4838 11.481 6.33472 11.332C6.18565 11.1829 6.11111 10.9982 6.11111 10.7778C6.11111 10.5574 6.18565 10.3727 6.33472 10.2236C6.4838 10.0745 6.66852 10 6.88889 10C7.10926 10 7.29398 10.0745 7.44306 10.2236C7.59213 10.3727 7.66667 10.5574 7.66667 10.7778C7.66667 10.9982 7.59213 11.1829 7.44306 11.332C7.29398 11.481 7.10926 11.5556 6.88889 11.5556ZM13.1111 11.5556C12.8907 11.5556 12.706 11.481 12.5569 11.332C12.4079 11.1829 12.3333 10.9982 12.3333 10.7778C12.3333 10.5574 12.4079 10.3727 12.5569 10.2236C12.706 10.0745 12.8907 10 13.1111 10C13.3315 10 13.5162 10.0745 13.6653 10.2236C13.8144 10.3727 13.8889 10.5574 13.8889 10.7778C13.8889 10.9982 13.8144 11.1829 13.6653 11.332C13.5162 11.481 13.3315 11.5556 13.1111 11.5556ZM10 14.6667C9.77963 14.6667 9.59491 14.5921 9.44583 14.4431C9.29676 14.294 9.22222 14.1093 9.22222 13.8889C9.22222 13.6685 9.29676 13.4838 9.44583 13.3347C9.59491 13.1857 9.77963 13.1111 10 13.1111C10.2204 13.1111 10.4051 13.1857 10.5542 13.3347C10.7032 13.4838 10.7778 13.6685 10.7778 13.8889C10.7778 14.1093 10.7032 14.294 10.5542 14.4431C10.4051 14.5921 10.2204 14.6667 10 14.6667ZM6.88889 14.6667C6.66852 14.6667 6.4838 14.5921 6.33472 14.4431C6.18565 14.294 6.11111 14.1093 6.11111 13.8889C6.11111 13.6685 6.18565 13.4838 6.33472 13.3347C6.4838 13.1857 6.66852 13.1111 6.88889 13.1111C7.10926 13.1111 7.29398 13.1857 7.44306 13.3347C7.59213 13.4838 7.66667 13.6685 7.66667 13.8889C7.66667 14.1093 7.59213 14.294 7.44306 14.4431C7.29398 14.5921 7.10926 14.6667 6.88889 14.6667ZM13.1111 14.6667C12.8907 14.6667 12.706 14.5921 12.5569 14.4431C12.4079 14.294 12.3333 14.1093 12.3333 13.8889C12.3333 13.6685 12.4079 13.4838 12.5569 13.3347C12.706 13.1857 12.8907 13.1111 13.1111 13.1111C13.3315 13.1111 13.5162 13.1857 13.6653 13.3347C13.8144 13.4838 13.8889 13.6685 13.8889 13.8889C13.8889 14.1093 13.8144 14.294 13.6653 14.4431C13.5162 14.5921 13.3315 14.6667 13.1111 14.6667Z" fill="currentColor"/>
</svg>
