<svg width="20" height="20" viewBox="0 0 20 20" xmlns="http://www.w3.org/2000/svg">
<path d="M3.33329 16.6666C2.87496 16.6666 2.4826 16.5035 2.15621 16.1771C1.82982 15.8507 1.66663 15.4583 1.66663 15V4.99998C1.66663 4.54165 1.82982 4.14929 2.15621 3.8229C2.4826 3.49651 2.87496 3.33331 3.33329 3.33331H16.6666C17.125 3.33331 17.5173 3.49651 17.8437 3.8229C18.1701 4.14929 18.3333 4.54165 18.3333 4.99998V15C18.3333 15.4583 18.1701 15.8507 17.8437 16.1771C17.5173 16.5035 17.125 16.6666 16.6666 16.6666H3.33329ZM3.33329 15H16.6666V4.99998H3.33329V15ZM4.99996 13.3333H15V6.66665H4.99996V13.3333Z" fill="currentColor"/>
</svg>
