<svg width="20" height="20" viewBox="0 0 20 20" xmlns="http://www.w3.org/2000/svg">
<path d="M12.75 13.9167L13.9166 12.75L10.8333 9.66666V5.83332H9.16663V10.3333L12.75 13.9167ZM9.99996 18.3333C8.84718 18.3333 7.76385 18.1146 6.74996 17.6771C5.73607 17.2396 4.85413 16.6458 4.10413 15.8958C3.35413 15.1458 2.76038 14.2639 2.32288 13.25C1.88538 12.2361 1.66663 11.1528 1.66663 9.99999C1.66663 8.84721 1.88538 7.76388 2.32288 6.74999C2.76038 5.7361 3.35413 4.85416 4.10413 4.10416C4.85413 3.35416 5.73607 2.76041 6.74996 2.32291C7.76385 1.88541 8.84718 1.66666 9.99996 1.66666C11.1527 1.66666 12.2361 1.88541 13.25 2.32291C14.2638 2.76041 15.1458 3.35416 15.8958 4.10416C16.6458 4.85416 17.2395 5.7361 17.677 6.74999C18.1145 7.76388 18.3333 8.84721 18.3333 9.99999C18.3333 11.1528 18.1145 12.2361 17.677 13.25C17.2395 14.2639 16.6458 15.1458 15.8958 15.8958C15.1458 16.6458 14.2638 17.2396 13.25 17.6771C12.2361 18.1146 11.1527 18.3333 9.99996 18.3333ZM9.99996 16.6667C11.8472 16.6667 13.4201 16.0174 14.7187 14.7187C16.0173 13.4201 16.6666 11.8472 16.6666 9.99999C16.6666 8.15277 16.0173 6.57985 14.7187 5.28124C13.4201 3.98263 11.8472 3.33332 9.99996 3.33332C8.15274 3.33332 6.57982 3.98263 5.28121 5.28124C3.9826 6.57985 3.33329 8.15277 3.33329 9.99999C3.33329 11.8472 3.9826 13.4201 5.28121 14.7187C6.57982 16.0174 8.15274 16.6667 9.99996 16.6667Z" fill="currentColor"/>
</svg>
