<svg width="20" height="20" viewBox="0 0 20 20" xmlns="http://www.w3.org/2000/svg">
<path d="M6.66669 17.5V15.8333H8.33335V14.1667H3.33335C2.87502 14.1667 2.48266 14.0035 2.15627 13.6771C1.82988 13.3507 1.66669 12.9583 1.66669 12.5V4.16667C1.66669 3.70833 1.82988 3.31597 2.15627 2.98958C2.48266 2.66319 2.87502 2.5 3.33335 2.5H16.6667C17.125 2.5 17.5174 2.66319 17.8438 2.98958C18.1702 3.31597 18.3334 3.70833 18.3334 4.16667V12.5C18.3334 12.9583 18.1702 13.3507 17.8438 13.6771C17.5174 14.0035 17.125 14.1667 16.6667 14.1667H11.6667V15.8333H13.3334V17.5H6.66669ZM3.33335 12.5H16.6667V4.16667H3.33335V12.5Z" fill="currentColor"/>
</svg>
