<svg width="20" height="20" viewBox="0 0 20 20" xmlns="http://www.w3.org/2000/svg">
<path d="M1.66667 16.6666V14.1666H3.33334V4.99998C3.33334 4.54165 3.49653 4.14929 3.82292 3.8229C4.14931 3.49651 4.54167 3.33331 5 3.33331H17.5V4.99998H5V14.1666H10V16.6666H1.66667ZM12.5 16.6666C12.2639 16.6666 12.066 16.5868 11.9063 16.4271C11.7465 16.2673 11.6667 16.0694 11.6667 15.8333V7.49998C11.6667 7.26387 11.7465 7.06595 11.9063 6.90623C12.066 6.74651 12.2639 6.66665 12.5 6.66665H17.5C17.7361 6.66665 17.934 6.74651 18.0938 6.90623C18.2535 7.06595 18.3333 7.26387 18.3333 7.49998V15.8333C18.3333 16.0694 18.2535 16.2673 18.0938 16.4271C17.934 16.5868 17.7361 16.6666 17.5 16.6666H12.5ZM13.3333 14.1666H16.6667V8.33331H13.3333V14.1666Z" fill="currentColor"/>
</svg>
