<svg width="20" height="20" viewBox="0 -4 20 27" xmlns="http://www.w3.org/2000/svg">
<path d="M14.9399 4.14567L11.6227 3.12703C10.0977 2.66205 8.46881 3.51441 7.99101 5.01728L7.88133 5.33174H5.91643C4.30857 5.33174 3 6.64034 3 8.24881V14.0829C3 15.6914 4.30857 17 5.91701 17H9.41743C10.3485 17 11.17 16.5531 11.7044 15.8717C11.8391 15.8903 11.9733 15.902 12.1057 15.902C13.37 15.902 14.5234 15.0771 14.8915 13.8227L16.8826 7.75699C17.3301 6.23253 16.4585 4.6124 14.9393 4.14625L14.9399 4.14567ZM9.41743 15.8332H5.91701C4.95206 15.8332 4.1668 15.0479 4.1668 14.0829V8.24881C4.1668 7.28384 4.95206 6.49857 5.91701 6.49857H9.41743C10.3824 6.49857 11.1676 7.28384 11.1676 8.24881V14.0829C11.1676 15.0479 10.3824 15.8332 9.41743 15.8332ZM15.7689 7.40986L13.7784 13.4756C13.5695 14.1839 12.954 14.6553 12.2598 14.7194C12.3059 14.5135 12.3344 14.3017 12.3344 14.0824V8.24881C12.3344 6.64034 11.0259 5.33174 9.41743 5.33174H9.12164C9.43318 4.45604 10.3835 3.96598 11.2802 4.24251L14.5975 5.26115C15.5087 5.54061 16.032 6.51316 15.7689 7.41044V7.40986Z" fill="currentColor"/>
</svg>
