<svg width="20" height="20" viewBox="0 0 20 20" xmlns="http://www.w3.org/2000/svg">
<path d="M3.33332 16.6666C2.87499 16.6666 2.48263 16.5035 2.15624 16.1771C1.82985 15.8507 1.66666 15.4583 1.66666 15V4.99998C1.66666 4.54165 1.82985 4.14929 2.15624 3.8229C2.48263 3.49651 2.87499 3.33331 3.33332 3.33331H8.33332L9.99999 4.99998H16.6667C17.125 4.99998 17.5173 5.16317 17.8437 5.48956C18.1701 5.81595 18.3333 6.20831 18.3333 6.66665V15C18.3333 15.4583 18.1701 15.8507 17.8437 16.1771C17.5173 16.5035 17.125 16.6666 16.6667 16.6666H3.33332ZM3.33332 15H16.6667V6.66665H9.31249L7.64582 4.99998H3.33332V15Z" fill="currentColor"/>
</svg>
