<svg width="20" height="20" viewBox="0 0 20 20" xmlns="http://www.w3.org/2000/svg">
<path d="M13.7273 10.5455L12.4091 9.22727C12.5455 8.51515 12.3409 7.84849 11.7955 7.22727C11.25 6.60606 10.5455 6.36364 9.68182 6.5L8.36364 5.18182C8.62121 5.06061 8.88258 4.9697 9.14773 4.90909C9.41288 4.84848 9.69697 4.81818 10 4.81818C11.1364 4.81818 12.1023 5.21591 12.8977 6.01136C13.6932 6.80682 14.0909 7.77273 14.0909 8.90909C14.0909 9.21212 14.0606 9.49621 14 9.76136C13.9394 10.0265 13.8485 10.2879 13.7273 10.5455ZM16.6364 13.4091L15.3182 12.1364C15.8939 11.697 16.4053 11.2159 16.8523 10.6932C17.2992 10.1705 17.6818 9.57576 18 8.90909C17.2424 7.37879 16.1553 6.16288 14.7386 5.26136C13.322 4.35985 11.7424 3.90909 10 3.90909C9.56061 3.90909 9.12879 3.93939 8.70455 4C8.2803 4.06061 7.86364 4.15152 7.45455 4.27273L6.04545 2.86364C6.66667 2.60606 7.30303 2.41288 7.95455 2.28409C8.60606 2.1553 9.28788 2.09091 10 2.09091C12.2879 2.09091 14.3258 2.72348 16.1136 3.98864C17.9015 5.25379 19.197 6.89394 20 8.90909C19.6515 9.80303 19.1932 10.6326 18.625 11.3977C18.0568 12.1629 17.3939 12.8333 16.6364 13.4091ZM17.0909 19L13.2727 15.2273C12.7424 15.3939 12.2083 15.5189 11.6705 15.6023C11.1326 15.6856 10.5758 15.7273 10 15.7273C7.71212 15.7273 5.67424 15.0947 3.88636 13.8295C2.09848 12.5644 0.80303 10.9242 0 8.90909C0.318182 8.10606 0.719697 7.35985 1.20455 6.67045C1.68939 5.98106 2.24242 5.36364 2.86364 4.81818L0.363636 2.27273L1.63636 1L18.3636 17.7273L17.0909 19ZM4.13636 6.09091C3.69697 6.48485 3.29545 6.91667 2.93182 7.38636C2.56818 7.85606 2.25758 8.36364 2 8.90909C2.75758 10.4394 3.8447 11.6553 5.26136 12.5568C6.67803 13.4583 8.25758 13.9091 10 13.9091C10.303 13.9091 10.5985 13.8902 10.8864 13.8523C11.1742 13.8144 11.4697 13.7727 11.7727 13.7273L10.9545 12.8636C10.7879 12.9091 10.6288 12.9432 10.4773 12.9659C10.3258 12.9886 10.1667 13 10 13C8.86364 13 7.89773 12.6023 7.10227 11.8068C6.30682 11.0114 5.90909 10.0455 5.90909 8.90909C5.90909 8.74242 5.92045 8.58333 5.94318 8.43182C5.96591 8.2803 6 8.12121 6.04545 7.95455L4.13636 6.09091Z" fill="currentColor"/>
</svg>
