<svg width="20" height="20" viewBox="0 0 20 20" xmlns="http://www.w3.org/2000/svg">
<path d="M7 16.4H13V14C13 13.12 12.7063 12.3667 12.1188 11.74C11.5313 11.1133 10.825 10.8 10 10.8C9.175 10.8 8.46875 11.1133 7.88125 11.74C7.29375 12.3667 7 13.12 7 14V16.4ZM4 18V16.4H5.5V14C5.5 13.1867 5.67813 12.4233 6.03438 11.71C6.39063 10.9967 6.8875 10.4267 7.525 10C6.8875 9.57333 6.39063 9.00333 6.03438 8.29C5.67813 7.57667 5.5 6.81333 5.5 6V3.6H4V2H16V3.6H14.5V6C14.5 6.81333 14.3219 7.57667 13.9656 8.29C13.6094 9.00333 13.1125 9.57333 12.475 10C13.1125 10.4267 13.6094 10.9967 13.9656 11.71C14.3219 12.4233 14.5 13.1867 14.5 14V16.4H16V18H4Z" fill="currentColor"/>
</svg>
