<svg width="20" height="20" viewBox="0 0 20 20" xmlns="http://www.w3.org/2000/svg">
<path d="M3.33331 7.49998V5.83331H4.99998V7.49998H3.33331ZM3.33331 14.1666V9.16665H4.99998V14.1666H3.33331ZM9.16665 14.1666H7.49998C7.04165 14.1666 6.64929 14.0035 6.3229 13.6771C5.99651 13.3507 5.83331 12.9583 5.83331 12.5V7.49998C5.83331 7.04165 5.99651 6.64929 6.3229 6.3229C6.64929 5.99651 7.04165 5.83331 7.49998 5.83331H9.16665C9.62498 5.83331 10.0173 5.99651 10.3437 6.3229C10.6701 6.64929 10.8333 7.04165 10.8333 7.49998V12.5C10.8333 12.9583 10.6701 13.3507 10.3437 13.6771C10.0173 14.0035 9.62498 14.1666 9.16665 14.1666ZM7.49998 12.5H9.16665V7.49998H7.49998V12.5ZM11.6666 14.1666V12.5H15V10.8333H13.3333C12.875 10.8333 12.4826 10.6701 12.1562 10.3437C11.8298 10.0173 11.6666 9.62498 11.6666 9.16665V7.49998C11.6666 7.04165 11.8298 6.64929 12.1562 6.3229C12.4826 5.99651 12.875 5.83331 13.3333 5.83331H16.6666V7.49998H13.3333V9.16665H15C15.4583 9.16665 15.8507 9.32984 16.1771 9.65623C16.5035 9.98262 16.6666 10.375 16.6666 10.8333V12.5C16.6666 12.9583 16.5035 13.3507 16.1771 13.6771C15.8507 14.0035 15.4583 14.1666 15 14.1666H11.6666Z" fill="currentColor"/>
</svg>
