<svg width="20" height="20" viewBox="0 0 20 20" xmlns="http://www.w3.org/2000/svg">
<path d="M10 18C8.90667 18 7.87333 17.79 6.9 17.37C5.92667 16.95 5.07667 16.3767 4.35 15.65C3.62333 14.9233 3.05 14.0733 2.63 13.1C2.21 12.1267 2 11.0933 2 10C2 8.89333 2.21 7.85667 2.63 6.89C3.05 5.92333 3.62333 5.07667 4.35 4.35C5.07667 3.62333 5.92667 3.05 6.9 2.63C7.87333 2.21 8.90667 2 10 2C11.1067 2 12.1433 2.21 13.11 2.63C14.0767 3.05 14.9233 3.62333 15.65 4.35C16.3767 5.07667 16.95 5.92333 17.37 6.89C17.79 7.85667 18 8.89333 18 10C18 11.0933 17.79 12.1267 17.37 13.1C16.95 14.0733 16.3767 14.9233 15.65 15.65C14.9233 16.3767 14.0767 16.95 13.11 17.37C12.1433 17.79 11.1067 18 10 18ZM10 16.36C10.3467 15.88 10.6467 15.38 10.9 14.86C11.1533 14.34 11.36 13.7867 11.52 13.2H8.48C8.64 13.7867 8.84667 14.34 9.1 14.86C9.35333 15.38 9.65333 15.88 10 16.36ZM7.92 16.04C7.68 15.6 7.47 15.1433 7.29 14.67C7.11 14.1967 6.96 13.7067 6.84 13.2H4.48C4.86667 13.8667 5.35 14.4467 5.93 14.94C6.51 15.4333 7.17333 15.8 7.92 16.04ZM12.08 16.04C12.8267 15.8 13.49 15.4333 14.07 14.94C14.65 14.4467 15.1333 13.8667 15.52 13.2H13.16C13.04 13.7067 12.89 14.1967 12.71 14.67C12.53 15.1433 12.32 15.6 12.08 16.04ZM3.8 11.6H6.52C6.48 11.3333 6.45 11.07 6.43 10.81C6.41 10.55 6.4 10.28 6.4 10C6.4 9.72 6.41 9.45 6.43 9.19C6.45 8.93 6.48 8.66667 6.52 8.4H3.8C3.73333 8.66667 3.68333 8.93 3.65 9.19C3.61667 9.45 3.6 9.72 3.6 10C3.6 10.28 3.61667 10.55 3.65 10.81C3.68333 11.07 3.73333 11.3333 3.8 11.6ZM8.12 11.6H11.88C11.92 11.3333 11.95 11.07 11.97 10.81C11.99 10.55 12 10.28 12 10C12 9.72 11.99 9.45 11.97 9.19C11.95 8.93 11.92 8.66667 11.88 8.4H8.12C8.08 8.66667 8.05 8.93 8.03 9.19C8.01 9.45 8 9.72 8 10C8 10.28 8.01 10.55 8.03 10.81C8.05 11.07 8.08 11.3333 8.12 11.6ZM13.48 11.6H16.2C16.2667 11.3333 16.3167 11.07 16.35 10.81C16.3833 10.55 16.4 10.28 16.4 10C16.4 9.72 16.3833 9.45 16.35 9.19C16.3167 8.93 16.2667 8.66667 16.2 8.4H13.48C13.52 8.66667 13.55 8.93 13.57 9.19C13.59 9.45 13.6 9.72 13.6 10C13.6 10.28 13.59 10.55 13.57 10.81C13.55 11.07 13.52 11.3333 13.48 11.6ZM13.16 6.8H15.52C15.1333 6.13333 14.65 5.55333 14.07 5.06C13.49 4.56667 12.8267 4.2 12.08 3.96C12.32 4.4 12.53 4.85667 12.71 5.33C12.89 5.80333 13.04 6.29333 13.16 6.8ZM8.48 6.8H11.52C11.36 6.21333 11.1533 5.66 10.9 5.14C10.6467 4.62 10.3467 4.12 10 3.64C9.65333 4.12 9.35333 4.62 9.1 5.14C8.84667 5.66 8.64 6.21333 8.48 6.8ZM4.48 6.8H6.84C6.96 6.29333 7.11 5.80333 7.29 5.33C7.47 4.85667 7.68 4.4 7.92 3.96C7.17333 4.2 6.51 4.56667 5.93 5.06C5.35 5.55333 4.86667 6.13333 4.48 6.8Z" fill="currentColor"/>
</svg>
