<svg width="20" height="20" viewBox="0 0 20 20" xmlns="http://www.w3.org/2000/svg">
<g clip-path="url(#clip0_722_517)">
<path d="M0 16.6667V15H3.33333V14.1667C2.875 14.1667 2.48264 14.0035 2.15625 13.6771C1.82986 13.3507 1.66667 12.9583 1.66667 12.5V4.16667C1.66667 3.70833 1.82986 3.31597 2.15625 2.98958C2.48264 2.66319 2.875 2.5 3.33333 2.5H16.6667C17.125 2.5 17.5174 2.66319 17.8438 2.98958C18.1701 3.31597 18.3333 3.70833 18.3333 4.16667V12.5C18.3333 12.9583 18.1701 13.3507 17.8438 13.6771C17.5174 14.0035 17.125 14.1667 16.6667 14.1667V15H20V16.6667H0ZM3.33333 12.5H16.6667V4.16667H3.33333V12.5Z" fill="currentColor"/>
</g>
<defs>
<clipPath id="clip0_722_517">
<rect width="20" height="20" fill="none"/>
</clipPath>
</defs>
</svg>
