<svg version="1.1" id="Layer_1" xmlns="http://www.w3.org/2000/svg" xmlns:xlink="http://www.w3.org/1999/xlink" x="0px" y="0px"
	 width="100%" viewBox="0 0 680 618" enable-background="new 0 0 680 618" xml:space="preserve">
<path fill="none" opacity="1.000000" stroke="none" 
	d="
M385.000000,619.000000 
	C256.666687,619.000000 128.833374,619.000000 1.000051,619.000000 
	C1.000034,413.000061 1.000034,207.000122 1.000017,1.000134 
	C227.666565,1.000090 454.333130,1.000090 680.999756,1.000045 
	C680.999878,206.999863 680.999878,412.999725 680.999939,618.999756 
	C582.500000,619.000000 484.000000,619.000000 385.000000,619.000000 
M99.856667,252.878189 
	C99.856667,252.878189 99.702301,252.835114 99.702301,252.835114 
	C99.702301,252.835114 100.035286,252.982712 100.109222,253.698395 
	C101.786766,256.308563 103.401367,258.961884 105.154175,261.520508 
	C109.653755,268.088654 109.777000,271.607025 105.458069,278.277985 
	C103.526871,281.260895 101.449974,284.149506 99.439186,287.080872 
	C101.734100,286.585388 103.419884,285.441101 105.013969,284.180847 
	C114.138794,276.966949 118.109520,276.877899 127.633728,283.483978 
	C129.613876,284.857422 131.881622,285.816254 134.127884,287.148743 
	C134.127884,287.148743 134.309387,287.212311 134.309387,287.212311 
	C134.309387,287.212311 133.972061,287.010071 133.780350,286.351868 
	C132.571075,284.585114 131.399292,282.791290 130.146271,281.056152 
	C123.467979,271.808228 123.425186,269.368225 129.882004,259.789246 
	C131.420029,257.507538 132.997833,255.252594 134.557343,252.985352 
	C131.043808,254.577271 128.113495,256.424774 125.375259,258.522980 
	C119.804138,262.791962 114.281319,263.039978 108.555229,258.858398 
	C105.767822,256.822845 102.850822,254.964798 99.856667,252.878189 
M162.292892,299.136261 
	C158.191925,301.359100 154.090958,303.581940 149.234207,305.871368 
	C146.515915,307.043396 143.766434,308.148529 141.084381,309.398315 
	C123.528442,317.579010 105.956085,325.725616 88.458191,334.028992 
	C82.538239,336.838226 76.818710,340.069794 70.303459,343.167725 
	C67.603203,350.122314 64.902939,357.076904 61.594479,364.424500 
	C58.072773,374.287354 54.551071,384.150238 50.721619,394.655945 
	C45.958813,407.590820 41.112030,420.496307 36.564899,433.506561 
	C36.116966,434.788239 37.040001,437.671753 38.112507,438.192047 
	C51.996777,444.927917 66.023544,451.370117 80.387947,458.474579 
	C90.239571,463.014648 100.091187,467.554718 110.406311,472.598328 
	C119.939774,477.046997 129.473236,481.495667 139.354431,486.546753 
	C149.192978,491.099518 159.031525,495.652283 169.361221,500.685272 
	C172.900757,502.185852 176.440308,503.686432 180.771896,505.338745 
	C183.914795,504.074554 187.057693,502.810364 190.073364,502.382263 
	C189.730453,503.654175 189.034729,504.954681 189.134857,506.190674 
	C189.257278,507.701447 189.625626,510.029755 190.612015,510.506866 
	C204.336624,517.145203 218.185364,523.526794 232.378311,530.553589 
	C242.564133,535.402954 252.749954,540.252319 263.349335,545.681335 
	C272.132202,549.599609 280.915100,553.517944 289.998535,558.053040 
	C300.675781,563.017395 311.353027,567.981812 322.472015,573.480103 
	C325.984497,574.934753 329.497009,576.389404 333.740326,577.989502 
	C334.231171,577.909424 334.777130,577.942139 335.204987,577.733154 
	C365.990631,562.688049 396.775208,547.640869 427.541504,532.556274 
	C456.219757,518.495483 484.864929,504.367188 513.547668,490.315582 
	C553.885071,470.554352 594.222534,450.792969 634.631409,431.178772 
	C638.050354,429.519226 638.388428,427.933716 637.019348,424.653351 
	C630.614990,409.307953 624.478333,393.851166 618.165894,378.467072 
	C611.798523,362.949371 605.336914,347.470337 598.708130,331.319397 
	C595.916992,329.965271 593.217468,328.360779 590.319031,327.299683 
	C576.625122,322.286499 562.876770,317.421936 548.888611,311.901825 
	C544.988647,310.344269 541.032593,308.908905 537.221313,307.158356 
	C535.999084,306.597015 535.159546,305.202698 534.828247,303.984070 
	C552.721069,295.231323 570.563293,286.372498 588.544495,277.805328 
	C592.701599,275.824677 593.626221,273.963196 591.763733,269.479980 
	C579.859253,240.825089 568.298096,212.027695 556.553833,183.305878 
	C555.642517,181.076981 554.194885,179.067352 552.657104,176.345306 
	C547.280151,174.184631 541.959839,171.867340 536.514160,169.896469 
	C525.744385,165.998718 514.905273,162.292542 503.864624,157.874832 
	C501.431122,156.861176 499.036987,155.737167 496.557312,154.853058 
	C486.100037,151.124680 475.617249,147.467834 464.607819,143.320343 
	C458.714081,141.064194 452.843964,138.742310 446.906067,136.609100 
	C445.761749,136.198029 444.146545,136.088989 443.096191,136.581650 
	C433.025085,141.305222 423.028717,146.187988 412.275208,151.039749 
	C401.610474,155.989243 390.916626,160.877380 380.293976,165.915649 
	C375.412933,168.230713 370.671600,170.840271 365.123077,173.541290 
	C360.864105,175.406311 356.556610,177.168625 352.354340,179.153717 
	C331.911377,188.810730 311.496582,198.527344 290.348450,208.170639 
	C288.118744,209.203064 285.864807,210.186569 283.663544,211.276520 
	C274.740814,215.694611 265.834259,220.145432 256.178314,224.720093 
	C233.954422,235.093536 211.714676,245.433243 189.522415,255.873917 
	C185.858871,257.597473 182.403519,259.763519 178.150314,261.897461 
	C175.659454,268.141144 173.168610,274.384796 170.076935,281.013275 
	C167.720840,287.034851 165.364746,293.056458 162.292892,299.136261 
M417.899902,53.778488 
	C417.846802,53.788128 417.793701,53.797764 417.740601,53.807415 
	C417.836609,53.867561 417.932648,53.927708 418.182373,54.652752 
	C421.376343,59.099213 424.559204,63.553719 427.766357,67.990623 
	C437.105347,80.910500 437.290253,86.148056 428.437164,99.569672 
	C424.933258,104.881683 421.068207,109.955490 417.367615,115.137772 
	C418.664459,115.163292 419.449280,114.664337 420.225067,114.151779 
	C427.424805,109.394875 434.517303,104.463799 441.863708,99.945534 
	C445.872314,97.480125 450.358490,97.000488 454.700134,99.558998 
	C459.980927,102.670921 465.212341,105.867081 470.510834,108.948196 
	C472.041473,109.838287 473.729401,110.457939 475.345215,111.201584 
	C472.636047,105.118156 469.379150,99.964508 466.105347,94.821632 
	C461.676056,87.863571 461.138489,80.963654 466.111084,73.961296 
	C469.089020,69.767845 471.817657,65.397949 474.687317,61.126831 
	C476.344147,58.660931 478.058594,56.233780 479.747101,53.789173 
	C472.301117,58.105526 465.454803,62.773651 458.498383,67.271469 
	C452.562866,71.109177 446.342896,71.525444 440.078003,68.030960 
	C437.469818,66.576149 434.972443,64.919479 432.450562,63.313938 
	C427.616486,60.236366 422.800934,57.129726 417.899902,53.778488 
M164.879318,210.328369 
	C163.248901,202.376343 161.618484,194.424301 159.868866,185.890915 
	C159.263107,188.546295 158.700531,190.764557 158.257126,193.006393 
	C157.261078,198.042603 156.243713,203.076828 155.382584,208.136963 
	C154.172134,215.249588 149.954285,219.273666 143.002914,220.693466 
	C141.052307,221.091873 139.153793,221.759888 137.196503,222.108246 
	C131.552872,223.112686 125.891441,224.017136 120.237007,224.960861 
	C125.790947,226.298630 131.177826,227.230927 136.596970,227.903168 
	C147.436218,229.247818 155.131821,233.980042 156.562592,245.782379 
	C156.702377,246.935593 156.934937,248.077713 157.130157,249.224014 
	C157.961243,254.103882 158.794479,258.983368 159.626938,263.862976 
	C161.483429,256.373016 162.460709,249.112976 164.142883,242.020096 
	C165.593628,235.903091 169.022537,231.109116 175.791489,229.771759 
	C183.437698,228.261108 191.082138,226.741653 198.792053,225.213196 
	C197.735382,224.892975 196.558701,224.398315 195.333344,224.189621 
	C190.753906,223.409653 186.069824,223.069275 181.590027,221.920456 
	C174.946320,220.216721 167.491623,219.401199 164.879318,210.328369 
M353.289825,113.068077 
	C351.435211,113.194252 349.580566,113.320427 347.725952,113.446609 
	C347.722626,113.860550 347.719299,114.274498 347.715973,114.688438 
	C350.092438,115.111053 352.490997,115.436714 354.841675,115.972519 
	C367.148529,118.777702 369.120605,118.829254 371.233673,130.981949 
	C371.805511,134.270737 372.521454,137.534439 373.333771,141.628647 
	C374.498047,135.955124 375.558716,131.269272 376.402069,126.544640 
	C377.291809,121.560135 380.044250,118.582237 385.043793,117.585136 
	C389.788177,116.638916 394.503357,115.546341 399.231415,114.518127 
	C395.293884,113.152084 391.438477,112.636360 387.612000,111.957481 
	C381.292053,110.836220 377.050262,107.604958 376.108032,100.787170 
	C375.482269,96.259079 374.461670,91.785561 373.446838,86.376358 
	C372.861053,89.543808 372.173523,91.801781 372.066284,94.086960 
	C371.525909,105.607697 365.887421,112.159027 353.289825,113.068077 
M519.331360,132.771103 
	C519.313293,121.562721 527.994019,120.995857 536.053040,119.297615 
	C528.286804,117.172295 519.161011,117.236862 518.595337,105.976120 
	C518.127075,106.322006 500.094879,119.642128 500.528900,119.321518 
	C504.626740,120.592705 510.114075,120.807259 513.122192,123.647575 
	C516.115112,126.473541 516.617920,131.936905 518.336548,136.578598 
	C518.631042,135.375427 518.859924,134.440109 519.331360,132.771103 
z"/>
<path fill="#F5BF43" opacity="1.000000" stroke="none" 
	d="
M598.916626,331.974304 
	C605.336914,347.470337 611.798523,362.949371 618.165894,378.467072 
	C624.478333,393.851166 630.614990,409.307953 637.019348,424.653351 
	C638.388428,427.933716 638.050354,429.519226 634.631409,431.178772 
	C594.222534,450.792969 553.885071,470.554352 513.547668,490.315582 
	C484.864929,504.367188 456.219757,518.495483 427.541504,532.556274 
	C396.775208,547.640869 365.990631,562.688049 335.204987,577.733154 
	C334.777130,577.942139 334.231171,577.909424 333.373962,577.467651 
	C331.865540,566.372253 330.835510,555.785034 329.545563,545.229614 
	C328.531799,536.933960 327.117432,528.688049 326.025940,520.400940 
	C324.787994,511.002075 323.711945,501.581879 322.564789,492.171082 
	C321.381409,482.462921 320.197113,472.754883 319.288452,462.913177 
	C320.372223,462.200470 321.180786,461.621368 322.357025,460.991913 
	C338.468903,453.599945 354.213104,446.258331 370.287292,438.800842 
	C383.143860,432.733612 395.681335,426.805023 408.193573,420.823761 
	C418.475739,415.908569 428.728027,410.930817 439.240723,405.973053 
	C439.487946,405.965332 439.979126,405.906891 440.306885,405.789673 
	C446.614929,402.839996 452.602203,400.022186 458.574249,397.172516 
	C483.001617,385.516418 507.394379,373.787201 531.858643,362.209167 
	C550.347168,353.459167 568.903503,344.851074 587.481384,336.291992 
	C591.172668,334.591370 595.098816,333.400330 598.916626,331.974304 
z"/>
<path fill="#F5BF43" opacity="1.000000" stroke="none" 
	d="
M552.996460,176.955826 
	C554.194885,179.067352 555.642517,181.076981 556.553833,183.305878 
	C568.298096,212.027695 579.859253,240.825089 591.763733,269.479980 
	C593.626221,273.963196 592.701599,275.824677 588.544495,277.805328 
	C570.563293,286.372498 552.721069,295.231323 534.133179,304.061066 
	C530.727295,305.703827 528.090637,307.418945 525.292603,308.809296 
	C513.584656,314.627136 501.828247,320.347534 489.723785,326.106354 
	C484.466003,328.466644 479.554932,330.785614 474.685608,333.189087 
	C460.026489,340.424622 445.355316,347.636810 430.755554,354.990631 
	C427.361298,356.700348 424.232056,358.936218 420.596375,360.945435 
	C418.482941,361.486481 416.639435,361.781311 415.042999,362.573822 
	C400.700043,369.694092 386.400513,376.901825 371.722260,384.094177 
	C348.282166,395.387329 325.195831,406.645325 302.149567,417.984772 
	C299.318481,419.377747 296.701630,421.206146 293.617706,422.875275 
	C291.836609,423.267029 290.423279,423.616333 289.007751,423.547394 
	C288.336853,419.233459 287.507782,415.357178 287.034363,411.437897 
	C286.162506,404.219971 285.737335,396.942322 284.696014,389.751862 
	C282.975281,377.869537 280.760925,366.058472 279.058838,354.173767 
	C278.201019,348.184143 278.154968,342.082855 277.486389,336.060425 
	C276.449493,326.720459 275.194244,317.404785 274.356110,308.034790 
	C275.794739,307.371277 276.908844,306.751709 278.380554,306.053192 
	C293.798340,298.954163 308.858551,291.934052 324.282288,284.903381 
	C326.839050,283.741730 328.988983,282.497559 331.232574,281.454865 
	C343.810730,275.609131 356.442230,269.877594 368.996704,263.981842 
	C385.123352,256.408569 401.175323,248.676407 417.294861,241.087769 
	C432.064362,234.134674 446.880890,227.281387 462.023987,220.433990 
	C467.588287,223.415329 472.805389,226.346802 477.121735,228.772141 
	C477.121735,224.011703 477.121735,218.040451 477.500763,212.057373 
	C482.856934,209.946625 487.813293,207.796509 492.817169,205.763412 
	C497.640442,203.803696 502.512848,201.964859 507.253448,200.418274 
	C504.147430,207.112427 497.949554,209.103104 491.089355,211.878662 
	C503.186371,214.109772 510.171875,220.942932 514.090759,232.822372 
	C517.173340,220.848190 523.894897,213.886093 535.203491,210.249664 
	C525.575073,207.626587 518.389709,203.370544 515.736084,194.204834 
	C528.433167,188.406326 540.714844,182.681091 552.996460,176.955826 
M460.593445,257.636749 
	C468.676300,256.955078 475.135925,260.679840 481.932343,266.508911 
	C478.876862,254.805466 481.416168,245.633926 488.841370,237.407547 
	C478.000488,240.127136 469.045410,236.873550 461.229340,230.093430 
	C460.897858,235.426727 461.392242,240.530502 460.071350,245.110733 
	C458.706268,249.844116 455.577423,254.068848 453.359619,258.252991 
	C455.113953,258.084778 457.402466,257.865326 460.593445,257.636749 
z"/>
<path fill="#FBED51" opacity="1.000000" stroke="none" 
	d="
M278.022949,306.132141 
	C276.908844,306.751709 275.794739,307.371277 273.967834,308.005066 
	C264.987122,304.330902 256.678772,300.729980 248.461761,296.931488 
	C238.589218,292.367645 228.794434,287.635529 218.761322,282.704407 
	C214.737930,280.186859 211.037430,277.700897 207.073395,275.750580 
	C200.770309,272.649445 194.291443,269.905548 187.572327,266.859711 
	C184.455795,265.047607 181.653885,263.386322 178.851959,261.725067 
	C182.403519,259.763519 185.858871,257.597473 189.522415,255.873917 
	C211.714676,245.433243 233.954422,235.093536 256.577118,225.093948 
	C256.706970,226.920319 256.614319,228.433044 256.142120,229.816162 
	C250.688675,245.790039 245.159317,261.738037 239.704422,277.711426 
	C238.989594,279.804626 238.578293,282.001465 238.026413,284.150269 
	C241.000198,281.657135 243.062317,278.754272 245.069992,275.814270 
	C254.669769,261.756592 264.262299,247.693924 273.842224,233.622711 
	C279.599792,225.165878 285.329559,216.690125 291.071808,208.222870 
	C311.496582,198.527344 331.911377,188.810730 352.354340,179.153717 
	C356.556610,177.168625 360.864105,175.406311 365.516174,173.845032 
	C364.136444,177.100784 362.503723,180.148254 360.568085,182.989319 
	C348.252441,201.065475 335.827881,219.067429 323.520691,237.149292 
	C309.362549,257.950562 295.265900,278.793884 281.215363,299.667938 
	C279.885406,301.643768 279.074738,303.969086 278.022949,306.132141 
z"/>
<path fill="#FBED51" opacity="1.000000" stroke="none" 
	d="
M461.676727,220.384125 
	C446.880890,227.281387 432.064362,234.134674 417.294861,241.087769 
	C401.175323,248.676407 385.123352,256.408569 368.996704,263.981842 
	C356.442230,269.877594 343.810730,275.609131 331.232574,281.454865 
	C328.988983,282.497559 326.839050,283.741730 324.308105,284.544006 
	C324.682953,282.726959 325.224792,281.142395 326.133820,279.808014 
	C340.118561,259.279816 354.157043,238.788223 368.170410,218.279480 
	C378.256561,203.518250 388.400970,188.795914 398.367584,173.954254 
	C403.421967,166.427567 408.140533,158.675369 413.010925,151.025116 
	C423.028717,146.187988 433.025085,141.305222 443.096191,136.581650 
	C444.146545,136.088989 445.761749,136.198029 446.906067,136.609100 
	C452.843964,138.742310 458.714081,141.064194 464.803650,143.919830 
	C441.669037,178.957962 418.338562,213.396606 394.164368,249.080673 
	C396.337982,248.159592 397.166687,248.008102 397.732178,247.539154 
	C408.190857,238.865936 418.514008,230.025375 429.098999,221.510071 
	C433.906982,217.642227 439.220612,214.402969 444.158539,211.217194 
	C442.347931,213.840744 440.683624,216.125671 438.535065,219.075439 
	C447.002014,217.999832 454.570831,216.057892 461.676727,220.384125 
z"/>
<path fill="#F5BF42" opacity="1.000000" stroke="none" 
	d="
M190.200592,501.546173 
	C187.057693,502.810364 183.914795,504.074554 180.389740,504.846436 
	C180.117599,502.100616 180.579834,499.798462 180.276566,497.602051 
	C178.977020,488.189972 177.299667,478.829254 176.046082,469.411774 
	C174.312378,456.387451 172.766998,443.336731 171.282318,430.281250 
	C170.666428,424.865601 170.332642,419.412750 170.048370,413.967529 
	C169.960403,412.282776 170.458847,410.567413 170.688049,408.489990 
	C170.374634,406.109283 170.061981,404.104706 170.057098,401.897339 
	C170.167404,400.433289 169.969925,399.172058 169.756897,397.513855 
	C171.399368,393.324615 173.057419,389.532318 175.109070,385.806458 
	C180.322693,383.548676 185.142715,381.224426 190.359116,378.915955 
	C193.081146,379.733917 195.472092,380.386444 197.720093,381.366760 
	C204.177933,384.182983 210.577957,387.131775 217.221649,390.294830 
	C225.748001,394.611298 234.068466,398.631287 242.333023,402.763123 
	C243.071213,403.132172 243.446686,404.226715 243.671478,405.127533 
	C236.917389,408.193512 230.482437,411.116272 223.724060,414.186218 
	C220.596481,421.539459 217.792328,428.745483 214.727234,436.200562 
	C213.024384,440.313416 211.375748,444.114899 210.187988,448.055298 
	C208.300156,454.318207 206.719864,460.673828 204.693146,467.147797 
	C203.278320,469.259613 201.938614,471.118591 201.122726,473.184448 
	C197.401550,482.606598 193.827530,492.086823 190.200592,501.546173 
z"/>
<path fill="#FDF57D" opacity="1.000000" stroke="none" 
	d="
M412.643066,151.032440 
	C408.140533,158.675369 403.421967,166.427567 398.367584,173.954254 
	C388.400970,188.795914 378.256561,203.518250 368.170410,218.279480 
	C354.157043,238.788223 340.118561,259.279816 326.133820,279.808014 
	C325.224792,281.142395 324.682953,282.726959 323.944519,284.554565 
	C308.858551,291.934052 293.798340,298.954163 278.380554,306.053192 
	C279.074738,303.969086 279.885406,301.643768 281.215363,299.667938 
	C295.265900,278.793884 309.362549,257.950562 323.520691,237.149292 
	C335.827881,219.067429 348.252441,201.065475 360.568085,182.989319 
	C362.503723,180.148254 364.136444,177.100784 365.888062,173.732529 
	C370.671600,170.840271 375.412933,168.230713 380.293976,165.915649 
	C390.916626,160.877380 401.610474,155.989243 412.643066,151.032440 
z"/>
<path fill="#F7CD48" opacity="1.000000" stroke="none" 
	d="
M319.013214,463.046783 
	C320.197113,472.754883 321.381409,482.462921 322.564789,492.171082 
	C323.711945,501.581879 324.787994,511.002075 326.025940,520.400940 
	C327.117432,528.688049 328.531799,536.933960 329.545563,545.229614 
	C330.835510,555.785034 331.865540,566.372253 333.008575,577.394897 
	C329.497009,576.389404 325.984497,574.934753 322.216370,572.852783 
	C316.331177,559.386169 310.661011,546.564453 305.083435,533.702698 
	C299.506927,520.843262 294.087494,507.915497 288.480042,495.069702 
	C283.002533,482.521637 277.263794,470.086914 271.854401,457.510101 
	C268.671509,450.109833 265.906586,442.529755 263.279907,435.158081 
	C265.764832,436.490814 267.896759,437.747314 270.087097,438.892059 
	C278.671875,443.378784 287.210724,447.960327 295.890839,452.255615 
	C303.512054,456.026947 311.299286,459.462769 319.013214,463.046783 
z"/>
<path fill="#FBEC52" opacity="1.000000" stroke="none" 
	d="
M598.812378,331.646851 
	C595.098816,333.400330 591.172668,334.591370 587.481384,336.291992 
	C568.903503,344.851074 550.347168,353.459167 531.858643,362.209167 
	C507.394379,373.787201 483.001617,385.516418 458.574249,397.172516 
	C452.602203,400.022186 446.614929,402.839996 440.312225,405.557861 
	C439.989777,405.443268 439.994995,404.977570 439.995941,404.613159 
	C439.992493,403.522369 439.988098,402.795990 440.350403,402.050171 
	C445.008209,398.760590 449.394379,395.606964 453.572571,392.198364 
	C466.262329,381.846039 478.880585,371.405975 491.509857,360.979706 
	C504.522461,350.237030 517.556519,339.519684 530.498901,328.692902 
	C536.811646,323.412048 542.937439,317.907623 549.147827,312.504395 
	C562.876770,317.421936 576.625122,322.286499 590.319031,327.299683 
	C593.217468,328.360779 595.916992,329.965271 598.812378,331.646851 
z"/>
<path fill="#F7CE49" opacity="1.000000" stroke="none" 
	d="
M170.688812,408.866058 
	C170.458847,410.567413 169.960403,412.282776 170.048370,413.967529 
	C170.332642,419.412750 170.666428,424.865601 171.282318,430.281250 
	C172.766998,443.336731 174.312378,456.387451 176.046082,469.411774 
	C177.299667,478.829254 178.977020,488.189972 180.276566,497.602051 
	C180.579834,499.798462 180.117599,502.100616 179.993713,504.770569 
	C176.440308,503.686432 172.900757,502.185852 169.135101,500.056519 
	C163.232666,486.396667 157.566452,473.361145 151.877136,460.335663 
	C146.390259,447.773682 140.873306,435.224854 135.381653,422.664948 
	C132.009567,414.952667 128.638504,407.239807 125.305618,399.510559 
	C120.209694,387.692596 115.147133,375.860291 110.429718,364.067444 
	C123.844223,370.402283 136.899414,376.703735 150.014679,383.401978 
	C147.873550,389.456024 145.672318,395.113281 143.496811,400.704437 
	C146.114822,400.571686 149.398911,400.177856 152.666382,400.285980 
	C159.869034,400.524292 165.315536,404.666748 170.688812,408.866058 
z"/>
<path fill="#FAE078" opacity="1.000000" stroke="none" 
	d="
M262.953674,435.030579 
	C265.906586,442.529755 268.671509,450.109833 271.854401,457.510101 
	C277.263794,470.086914 283.002533,482.521637 288.480042,495.069702 
	C294.087494,507.915497 299.506927,520.843262 305.083435,533.702698 
	C310.661011,546.564453 316.331177,559.386169 321.995483,572.585815 
	C311.353027,567.981812 300.675781,563.017395 290.128784,557.487793 
	C290.186646,555.833313 290.399506,554.623535 289.998169,553.673218 
	C285.430481,542.857727 280.786499,532.074341 276.128174,521.297424 
	C270.488373,508.249908 264.861115,495.196655 259.143158,482.183411 
	C253.830475,470.092438 248.286667,458.101837 243.073761,445.968628 
	C239.824127,438.405029 236.999771,430.658722 234.371613,422.995605 
	C237.461060,424.093964 240.183395,425.144806 242.861938,426.297394 
	C249.569778,429.183838 256.257751,432.116455 262.953674,435.030579 
z"/>
<path fill="#FAE078" opacity="1.000000" stroke="none" 
	d="
M110.070389,364.034058 
	C115.147133,375.860291 120.209694,387.692596 125.305618,399.510559 
	C128.638504,407.239807 132.009567,414.952667 135.381653,422.664948 
	C140.873306,435.224854 146.390259,447.773682 151.877136,460.335663 
	C157.566452,473.361145 163.232666,486.396667 168.889526,499.816406 
	C159.031525,495.652283 149.192978,491.099518 139.159012,485.873169 
	C134.680664,475.028351 130.483765,464.819855 126.092720,454.695557 
	C120.777863,442.441223 115.276169,430.268036 109.897903,418.041016 
	C105.579178,408.222839 101.306587,398.384247 97.044716,388.541199 
	C91.339874,375.365540 85.665138,362.176849 80.349159,349.031342 
	C87.529053,352.278625 94.383240,355.395660 101.124931,358.739471 
	C104.220566,360.274902 107.095421,362.255402 110.070389,364.034058 
z"/>
<path fill="#F7CE48" opacity="1.000000" stroke="none" 
	d="
M79.977478,348.993774 
	C85.665138,362.176849 91.339874,375.365540 97.044716,388.541199 
	C101.306587,398.384247 105.579178,408.222839 109.897903,418.041016 
	C115.276169,430.268036 120.777863,442.441223 126.092720,454.695557 
	C130.483765,464.819855 134.680664,475.028351 138.985138,485.571960 
	C129.473236,481.495667 119.939774,477.046997 110.159271,471.970398 
	C109.758095,470.870300 109.644157,470.380371 109.443954,469.928650 
	C102.498924,454.258698 95.468163,438.626221 88.615852,422.915863 
	C81.893494,407.503387 75.421165,391.981750 68.685410,376.575256 
	C66.803940,372.271820 64.378555,368.206207 62.202682,364.031494 
	C64.902939,357.076904 67.603203,350.122314 70.807693,343.433594 
	C74.200447,345.464233 77.088966,347.229004 79.977478,348.993774 
z"/>
<path fill="#F7CE47" opacity="1.000000" stroke="none" 
	d="
M233.984558,422.994415 
	C236.999771,430.658722 239.824127,438.405029 243.073761,445.968628 
	C248.286667,458.101837 253.830475,470.092438 259.143158,482.183411 
	C264.861115,495.196655 270.488373,508.249908 276.128174,521.297424 
	C280.786499,532.074341 285.430481,542.857727 289.998169,553.673218 
	C290.399506,554.623535 290.186646,555.833313 289.978516,557.179382 
	C280.915100,553.517944 272.132202,549.599609 263.139221,545.018433 
	C260.318451,538.315369 257.725281,532.267578 255.094055,526.236450 
	C245.943527,505.262451 236.835846,484.269440 227.595215,463.335144 
	C223.537811,454.143280 219.199142,445.075592 214.988190,435.951508 
	C217.792328,428.745483 220.596481,421.539459 223.717682,414.551453 
	C227.034088,416.854004 230.033432,418.938599 233.045074,421.319641 
	C233.373795,422.083862 233.690216,422.551605 234.005005,423.010559 
	C234.003387,423.001801 233.984558,422.994415 233.984558,422.994415 
z"/>
<path fill="#FBED55" opacity="1.000000" stroke="none" 
	d="
M80.349159,349.031342 
	C77.088966,347.229004 74.200447,345.464233 71.159760,343.403931 
	C76.818710,340.069794 82.538239,336.838226 88.458191,334.028992 
	C105.956085,325.725616 123.528442,317.579010 141.084381,309.398315 
	C143.766434,308.148529 146.515915,307.043396 149.577911,306.236938 
	C147.607834,313.157318 145.294037,319.712158 142.657654,326.130005 
	C141.036758,325.111847 139.738434,324.230743 137.842850,322.944275 
	C141.263748,338.173462 137.651062,350.815338 126.388351,362.563019 
	C142.252960,358.417847 155.076538,361.343384 166.477051,372.904785 
	C166.233475,370.068909 166.100662,368.522583 166.337219,367.014130 
	C170.808640,369.039154 174.910675,371.026306 178.863525,373.314117 
	C177.466171,375.717163 176.217987,377.819580 174.582687,380.060211 
	C164.943863,383.042084 157.614105,378.727753 149.954605,373.087067 
	C149.954605,376.868225 149.954605,379.936676 149.954605,383.005157 
	C136.899414,376.703735 123.844223,370.402283 110.429718,364.067444 
	C107.095421,362.255402 104.220566,360.274902 101.124931,358.739471 
	C94.383240,355.395660 87.529053,352.278625 80.349159,349.031342 
z"/>
<path fill="#FDF57F" opacity="1.000000" stroke="none" 
	d="
M444.304871,210.878571 
	C439.220612,214.402969 433.906982,217.642227 429.098999,221.510071 
	C418.514008,230.025375 408.190857,238.865936 397.732178,247.539154 
	C397.166687,248.008102 396.337982,248.159592 394.164368,249.080673 
	C418.338562,213.396606 441.669037,178.957962 465.071655,144.152069 
	C475.617249,147.467834 486.100037,151.124680 496.557312,154.853058 
	C499.036987,155.737167 501.431122,156.861176 503.864990,158.552628 
	C495.370270,166.275345 486.605347,173.028030 478.507324,180.503113 
	C475.070099,183.675934 469.490051,185.251862 468.579559,191.013580 
	C461.554047,187.400330 454.884033,183.887009 448.407288,180.475494 
	C451.301910,190.651550 451.011963,201.201248 444.304871,210.878571 
z"/>
<path fill="#FDF57D" opacity="1.000000" stroke="none" 
	d="
M549.018188,312.203125 
	C542.937439,317.907623 536.811646,323.412048 530.498901,328.692902 
	C517.556519,339.519684 504.522461,350.237030 491.509857,360.979706 
	C478.880585,371.405975 466.262329,381.846039 453.572571,392.198364 
	C449.394379,395.606964 445.008209,398.760590 440.392273,401.693298 
	C454.489777,380.253265 468.958740,359.182312 483.291107,338.018829 
	C485.847687,334.243805 487.837860,330.085175 490.089600,326.103638 
	C501.828247,320.347534 513.584656,314.627136 525.292603,308.809296 
	C528.090637,307.418945 530.727295,305.703827 533.791504,304.163757 
	C535.159546,305.202698 535.999084,306.597015 537.221313,307.158356 
	C541.032593,308.908905 544.988647,310.344269 549.018188,312.203125 
z"/>
<path fill="#FAE079" opacity="1.000000" stroke="none" 
	d="
M61.898582,364.227997 
	C64.378555,368.206207 66.803940,372.271820 68.685410,376.575256 
	C75.421165,391.981750 81.893494,407.503387 88.615852,422.915863 
	C95.468163,438.626221 102.498924,454.258698 109.443954,469.928650 
	C109.644157,470.380371 109.758095,470.870300 109.927521,471.718628 
	C100.091187,467.554718 90.239571,463.014648 80.172791,457.805603 
	C79.611832,455.862915 79.416618,454.523956 78.897514,453.325287 
	C71.759178,436.841370 64.675407,420.332306 57.325710,403.942627 
	C55.738556,400.403320 53.154335,397.311188 51.029373,394.013092 
	C54.551071,384.150238 58.072773,374.287354 61.898582,364.227997 
z"/>
<path fill="#FAE078" opacity="1.000000" stroke="none" 
	d="
M214.727219,436.200562 
	C219.199142,445.075592 223.537811,454.143280 227.595215,463.335144 
	C236.835846,484.269440 245.943527,505.262451 255.094055,526.236450 
	C257.725281,532.267578 260.318451,538.315369 262.932434,544.728577 
	C252.749954,540.252319 242.564133,535.402954 232.177673,529.875000 
	C231.793900,528.397217 231.721252,527.552002 231.411224,526.805481 
	C225.807785,513.311523 220.306534,499.772766 214.493942,486.369141 
	C211.635651,479.778015 208.189590,473.441803 205.009491,466.990234 
	C206.719864,460.673828 208.300156,454.318207 210.187988,448.055298 
	C211.375748,444.114899 213.024384,440.313416 214.727219,436.200562 
z"/>
<path fill="#FBED53" opacity="1.000000" stroke="none" 
	d="
M468.935028,191.113480 
	C469.490051,185.251862 475.070099,183.675934 478.507324,180.503113 
	C486.605347,173.028030 495.370270,166.275345 503.980103,158.868805 
	C514.905273,162.292542 525.744385,165.998718 536.514160,169.896469 
	C541.959839,171.867340 547.280151,174.184631 552.826782,176.650574 
	C540.714844,182.681091 528.433167,188.406326 515.477783,194.054962 
	C514.223877,193.083664 513.643677,192.188965 513.105347,191.358810 
	C511.091461,194.415314 509.227570,197.244125 507.363678,200.072937 
	C502.512848,201.964859 497.640442,203.803696 492.817169,205.763412 
	C487.813293,207.796509 482.856934,209.946625 477.424316,211.659485 
	C479.860443,204.493851 482.752075,197.714279 485.567444,191.113480 
	C480.371155,191.113480 474.653107,191.113480 468.935028,191.113480 
z"/>
<path fill="#F7CE49" opacity="1.000000" stroke="none" 
	d="
M178.501129,261.811279 
	C181.653885,263.386322 184.455795,265.047607 187.748016,267.184113 
	C193.291672,279.454834 198.312500,291.264343 203.406769,303.042114 
	C209.612671,317.390015 215.946594,331.683105 222.039032,346.078674 
	C222.816742,347.916351 222.474213,350.228119 222.292480,352.276245 
	C211.280838,349.987061 205.657944,342.271332 201.853806,333.019043 
	C200.628723,335.787659 199.577652,338.163025 198.154724,340.398987 
	C196.481888,338.414703 194.921646,336.697357 193.937851,334.696594 
	C192.266388,331.297272 190.992035,327.704742 189.491135,324.219116 
	C183.232117,309.683685 176.950867,295.157837 170.677750,280.628479 
	C173.168610,274.384796 175.659454,268.141144 178.501129,261.811279 
z"/>
<path fill="#FBEE5A" opacity="1.000000" stroke="none" 
	d="
M417.977692,54.035149 
	C422.800934,57.129726 427.616486,60.236366 432.450562,63.313938 
	C434.972443,64.919479 437.469818,66.576149 440.078003,68.030960 
	C446.342896,71.525444 452.562866,71.109177 458.498383,67.271469 
	C465.454803,62.773651 472.301117,58.105526 479.747101,53.789173 
	C478.058594,56.233780 476.344147,58.660931 474.687317,61.126831 
	C471.817657,65.397949 469.089020,69.767845 466.111084,73.961296 
	C461.138489,80.963654 461.676056,87.863571 466.105347,94.821632 
	C469.379150,99.964508 472.636047,105.118156 475.345215,111.201584 
	C473.729401,110.457939 472.041473,109.838287 470.510834,108.948196 
	C465.212341,105.867081 459.980927,102.670921 454.700134,99.558998 
	C450.358490,97.000488 445.872314,97.480125 441.863708,99.945534 
	C434.517303,104.463799 427.424805,109.394875 420.225067,114.151779 
	C419.449280,114.664337 418.664459,115.163292 417.367615,115.137772 
	C421.068207,109.955490 424.933258,104.881683 428.437164,99.569672 
	C437.290253,86.148056 437.105347,80.910500 427.766357,67.990623 
	C424.559204,63.553719 421.376343,59.099213 418.090607,54.329536 
	C417.998840,54.006321 417.977692,54.035152 417.977692,54.035149 
z"/>
<path fill="#FAE07A" opacity="1.000000" stroke="none" 
	d="
M170.377350,280.820862 
	C176.950867,295.157837 183.232117,309.683685 189.491135,324.219116 
	C190.992035,327.704742 192.266388,331.297272 193.937851,334.696594 
	C194.921646,336.697357 196.481888,338.414703 198.029938,340.701904 
	C194.410034,348.512604 187.587433,351.988739 180.155060,354.906006 
	C180.037521,354.995331 179.807861,355.180817 179.485535,355.055969 
	C177.818848,351.948151 176.701645,348.830627 175.044296,346.033112 
	C174.062683,344.376221 172.228210,343.224579 170.829529,341.502563 
	C172.891846,338.724548 174.901886,336.289734 177.689224,332.913300 
	C173.955688,333.485840 171.556961,333.853699 169.111603,333.817505 
	C166.351501,326.729797 163.697815,320.020325 160.837540,313.400116 
	C160.531708,312.692261 159.020660,312.505127 158.200455,311.742920 
	C159.891006,307.298920 161.449829,303.188477 163.008636,299.078033 
	C165.364746,293.056458 167.720840,287.034851 170.377350,280.820862 
M178.459732,332.575867 
	C178.459732,332.575867 178.398117,332.484711 178.459732,332.575867 
z"/>
<path fill="#F7CF4B" opacity="1.000000" stroke="none" 
	d="
M50.875500,394.334534 
	C53.154335,397.311188 55.738556,400.403320 57.325710,403.942627 
	C64.675407,420.332306 71.759178,436.841370 78.897514,453.325287 
	C79.416618,454.523956 79.611832,455.862915 79.985977,457.511536 
	C66.023544,451.370117 51.996777,444.927917 38.112507,438.192047 
	C37.040001,437.671753 36.116966,434.788239 36.564899,433.506561 
	C41.112030,420.496307 45.958813,407.590820 50.875500,394.334534 
z"/>
<path fill="#F7CE49" opacity="1.000000" stroke="none" 
	d="
M204.693146,467.147797 
	C208.189590,473.441803 211.635651,479.778015 214.493942,486.369141 
	C220.306534,499.772766 225.807785,513.311523 231.411224,526.805481 
	C231.721252,527.552002 231.793900,528.397217 231.990417,529.583801 
	C218.185364,523.526794 204.336624,517.145203 190.612015,510.506866 
	C189.625626,510.029755 189.257278,507.701447 189.134857,506.190674 
	C189.034729,504.954681 189.730453,503.654175 190.136993,501.964233 
	C193.827530,492.086823 197.401550,482.606598 201.122726,473.184448 
	C201.938614,471.118591 203.278320,469.259613 204.693146,467.147797 
z"/>
<path fill="#FBEE5C" opacity="1.000000" stroke="none" 
	d="
M164.988785,210.708862 
	C167.491623,219.401199 174.946320,220.216721 181.590027,221.920456 
	C186.069824,223.069275 190.753906,223.409653 195.333344,224.189621 
	C196.558701,224.398315 197.735382,224.892975 198.792053,225.213196 
	C191.082138,226.741653 183.437698,228.261108 175.791489,229.771759 
	C169.022537,231.109116 165.593628,235.903091 164.142883,242.020096 
	C162.460709,249.112976 161.483429,256.373016 159.626938,263.862976 
	C158.794479,258.983368 157.961243,254.103882 157.130157,249.224014 
	C156.934937,248.077713 156.702377,246.935593 156.562592,245.782379 
	C155.131821,233.980042 147.436218,229.247818 136.596970,227.903168 
	C131.177826,227.230927 125.790947,226.298630 120.237007,224.960861 
	C125.891441,224.017136 131.552872,223.112686 137.196503,222.108246 
	C139.153793,221.759888 141.052307,221.091873 143.002914,220.693466 
	C149.954285,219.273666 154.172134,215.249588 155.382584,208.136963 
	C156.243713,203.076828 157.261078,198.042603 158.257126,193.006393 
	C158.700531,190.764557 159.263107,188.546295 159.868866,185.890915 
	C161.618484,194.424301 163.248901,202.376343 164.988785,210.708862 
z"/>
<path fill="#FDF57D" opacity="1.000000" stroke="none" 
	d="
M290.710144,208.196747 
	C285.329559,216.690125 279.599792,225.165878 273.842224,233.622711 
	C264.262299,247.693924 254.669769,261.756592 245.069992,275.814270 
	C243.062317,278.754272 241.000198,281.657135 238.026413,284.150269 
	C238.578293,282.001465 238.989594,279.804626 239.704422,277.711426 
	C245.159317,261.738037 250.688675,245.790039 256.142120,229.816162 
	C256.614319,228.433044 256.706970,226.920319 256.948853,225.026001 
	C265.834259,220.145432 274.740814,215.694611 283.663544,211.276520 
	C285.864807,210.186569 288.118744,209.203064 290.710144,208.196747 
z"/>
<path fill="#FBEF60" opacity="1.000000" stroke="none" 
	d="
M353.709839,113.012665 
	C365.887421,112.159027 371.525909,105.607697 372.066284,94.086960 
	C372.173523,91.801781 372.861053,89.543808 373.446838,86.376358 
	C374.461670,91.785561 375.482269,96.259079 376.108032,100.787170 
	C377.050262,107.604958 381.292053,110.836220 387.612000,111.957481 
	C391.438477,112.636360 395.293884,113.152084 399.231415,114.518127 
	C394.503357,115.546341 389.788177,116.638916 385.043793,117.585136 
	C380.044250,118.582237 377.291809,121.560135 376.402069,126.544640 
	C375.558716,131.269272 374.498047,135.955124 373.333771,141.628647 
	C372.521454,137.534439 371.805511,134.270737 371.233673,130.981949 
	C369.120605,118.829254 367.148529,118.777702 354.841675,115.972519 
	C352.490997,115.436714 350.092438,115.111053 347.715973,114.688438 
	C347.719299,114.274498 347.722626,113.860550 347.725952,113.446609 
	C349.580566,113.320427 351.435211,113.194252 353.709839,113.012665 
z"/>
<path fill="#FBEF60" opacity="1.000000" stroke="none" 
	d="
M99.992500,253.026398 
	C102.850822,254.964798 105.767822,256.822845 108.555229,258.858398 
	C114.281319,263.039978 119.804138,262.791962 125.375259,258.522980 
	C128.113495,256.424774 131.043808,254.577271 134.557343,252.985352 
	C132.997833,255.252594 131.420029,257.507538 129.882004,259.789246 
	C123.425186,269.368225 123.467979,271.808228 130.146271,281.056152 
	C131.399292,282.791290 132.571075,284.585114 133.890259,286.673096 
	C134.000168,286.994354 134.016830,286.966156 134.016830,286.966156 
	C131.881622,285.816254 129.613876,284.857422 127.633728,283.483978 
	C118.109520,276.877899 114.138794,276.966949 105.013969,284.180847 
	C103.419884,285.441101 101.734100,286.585388 99.439186,287.080872 
	C101.449974,284.149506 103.526871,281.260895 105.458069,278.277985 
	C109.777000,271.607025 109.653755,268.088654 105.154175,261.520508 
	C103.401367,258.961884 101.786766,256.308563 100.058167,253.348450 
	C100.007118,252.998520 99.992500,253.026398 99.992500,253.026398 
z"/>
<path fill="#FDF57F" opacity="1.000000" stroke="none" 
	d="
M162.650772,299.107147 
	C161.449829,303.188477 159.891006,307.298920 158.186737,312.137756 
	C157.632584,314.614502 157.282776,316.379150 156.803879,318.108093 
	C155.500092,322.815277 154.141678,327.507385 152.454849,332.149719 
	C149.063293,330.151672 146.021774,328.209320 142.980255,326.266998 
	C145.294037,319.712158 147.607834,313.157318 149.955811,306.203613 
	C154.090958,303.581940 158.191925,301.359100 162.650772,299.107147 
z"/>
<path fill="#FBEF64" opacity="1.000000" stroke="none" 
	d="
M519.210083,133.137939 
	C518.859924,134.440109 518.631042,135.375427 518.336548,136.578598 
	C516.617920,131.936905 516.115112,126.473541 513.122192,123.647575 
	C510.114075,120.807259 504.626740,120.592705 500.528900,119.321518 
	C500.094879,119.642128 518.127075,106.322006 518.595337,105.976120 
	C519.161011,117.236862 528.286804,117.172295 536.053040,119.297615 
	C527.994019,120.995857 519.313293,121.562721 519.210083,133.137939 
z"/>
<path fill="#FBEF60" opacity="1.000000" stroke="none" 
	d="
M133.986115,287.002197 
	C133.972061,287.010071 134.309387,287.212311 134.309387,287.212311 
	C134.309387,287.212311 134.127884,287.148743 134.072357,287.057434 
	C134.016830,286.966156 134.000168,286.994354 133.986115,287.002197 
z"/>
<path fill="#FBEF60" opacity="1.000000" stroke="none" 
	d="
M100.021202,252.990616 
	C100.035286,252.982712 99.702301,252.835114 99.702301,252.835114 
	C99.702301,252.835114 99.856667,252.878189 99.924583,252.952301 
	C99.992500,253.026398 100.007118,252.998520 100.021202,252.990616 
z"/>
<path fill="#FBEE5A" opacity="1.000000" stroke="none" 
	d="
M418.013733,53.997086 
	C417.932648,53.927708 417.836609,53.867561 417.740601,53.807407 
	C417.793701,53.797764 417.846802,53.788128 417.938782,53.906822 
	C417.977692,54.035152 417.998840,54.006321 418.013733,53.997086 
z"/>
<path fill="#FBEC51" opacity="1.000000" stroke="none" 
	d="
M233.032776,421.023163 
	C230.033432,418.938599 227.034088,416.854004 224.041107,414.404236 
	C230.482437,411.116272 236.917389,408.193512 244.050674,405.134644 
	C245.507645,404.989075 246.266266,404.979584 247.383881,405.013550 
	C257.186890,409.375000 266.630920,413.692993 276.377533,418.169067 
	C280.142578,420.238800 283.605072,422.150391 287.003967,424.437256 
	C285.391846,429.669586 283.843323,434.526672 282.294800,439.383728 
	C282.771881,439.620361 283.248993,439.856995 283.726074,440.093628 
	C287.145874,434.340027 290.565674,428.586395 293.985504,422.832794 
	C296.701630,421.206146 299.318481,419.377747 302.149567,417.984772 
	C325.195831,406.645325 348.282166,395.387329 371.696442,384.454071 
	C370.334808,387.601807 368.744232,390.475128 366.913116,393.185974 
	C355.414948,410.208466 343.803680,427.154785 332.363739,444.216125 
	C328.696838,449.684875 325.436005,455.425873 321.989380,461.042297 
	C321.180786,461.621368 320.372223,462.200470 319.288452,462.913177 
	C311.299286,459.462769 303.512054,456.026947 295.890839,452.255615 
	C287.210724,447.960327 278.671875,443.378784 270.087097,438.892059 
	C267.896759,437.747314 265.764832,436.490814 263.279907,435.158081 
	C256.257751,432.116455 249.569778,429.183838 242.861938,426.297394 
	C240.183395,425.144806 237.461060,424.093964 234.371613,422.995605 
	C233.984558,422.994415 234.003387,423.001801 233.982452,422.715149 
	C233.651947,421.960083 233.342361,421.491608 233.032776,421.023163 
z"/>
<path fill="#FBED51" opacity="1.000000" stroke="none" 
	d="
M489.723785,326.106384 
	C487.837860,330.085175 485.847687,334.243805 483.291107,338.018829 
	C468.958740,359.182312 454.489777,380.253265 440.025574,401.712708 
	C439.988098,402.795990 439.992493,403.522369 439.777527,404.723572 
	C439.285492,405.398163 439.097260,405.658997 438.993530,405.980774 
	C428.728027,410.930817 418.475739,415.908569 408.193573,420.823761 
	C395.681335,426.805023 383.143860,432.733612 370.162964,438.503876 
	C370.070435,437.011597 370.134674,435.505646 370.844055,434.422028 
	C374.480469,428.867188 378.281464,423.420074 382.027710,417.937195 
	C395.011505,398.934387 407.996429,379.932343 420.980896,360.929993 
	C424.232056,358.936218 427.361298,356.700348 430.755554,354.990631 
	C445.355316,347.636810 460.026489,340.424622 474.685608,333.189087 
	C479.554932,330.785614 484.466003,328.466644 489.723785,326.106384 
z"/>
<path fill="#FDF47D" opacity="1.000000" stroke="none" 
	d="
M420.596375,360.945435 
	C407.996429,379.932343 395.011505,398.934387 382.027710,417.937195 
	C378.281464,423.420074 374.480469,428.867188 370.844055,434.422028 
	C370.134674,435.505646 370.070435,437.011597 369.832947,438.619751 
	C354.213104,446.258331 338.468903,453.599945 322.357056,460.991943 
	C325.436005,455.425873 328.696838,449.684875 332.363739,444.216125 
	C343.803680,427.154785 355.414948,410.208466 366.913116,393.185974 
	C368.744232,390.475128 370.334808,387.601807 372.062378,384.443726 
	C386.400513,376.901825 400.700043,369.694092 415.042999,362.573822 
	C416.639435,361.781311 418.482941,361.486481 420.596375,360.945435 
z"/>
<path fill="#FDF57D" opacity="1.000000" stroke="none" 
	d="
M439.240723,405.973053 
	C439.097260,405.658997 439.285492,405.398163 439.776611,405.087952 
	C439.994995,404.977570 439.989777,405.443268 439.984436,405.675079 
	C439.979126,405.906891 439.487946,405.965332 439.240723,405.973053 
z"/>
<path fill="#F7CD46" opacity="1.000000" stroke="none" 
	d="
M287.067535,424.062012 
	C283.605072,422.150391 280.142578,420.238800 276.355652,417.778198 
	C273.844543,411.539368 271.864105,405.759766 269.433380,400.176208 
	C261.465485,381.873077 253.284775,363.662689 245.281113,345.375000 
	C239.133026,331.327148 233.077179,317.238220 227.082993,303.123962 
	C224.253204,296.460785 221.664124,289.695374 218.965988,282.976288 
	C228.794434,287.635529 238.589218,292.367645 248.461761,296.931488 
	C256.678772,300.729980 264.987122,304.330902 273.643311,308.049072 
	C275.194244,317.404785 276.449493,326.720459 277.486389,336.060425 
	C278.154968,342.082855 278.201019,348.184143 279.058838,354.173767 
	C280.760925,366.058472 282.975281,377.869537 284.696014,389.751862 
	C285.737335,396.942322 286.162506,404.219971 287.034363,411.437897 
	C287.507782,415.357178 288.336853,419.233459 288.683960,423.572510 
	C287.930817,424.031250 287.499176,424.046631 287.067535,424.062012 
z"/>
<path fill="#FFFEF9" opacity="1.000000" stroke="none" 
	d="
M468.579559,191.013580 
	C474.653107,191.113480 480.371155,191.113480 485.567444,191.113480 
	C482.752075,197.714279 479.860443,204.493851 477.045288,211.671295 
	C477.121735,218.040451 477.121735,224.011703 477.121735,228.772141 
	C472.805389,226.346802 467.588287,223.415329 462.023987,220.433990 
	C454.570831,216.057892 447.002014,217.999832 438.535065,219.075439 
	C440.683624,216.125671 442.347931,213.840744 444.158539,211.217194 
	C451.011963,201.201248 451.301910,190.651550 448.407288,180.475494 
	C454.884033,183.887009 461.554047,187.400330 468.579559,191.013580 
z"/>
<path fill="#FFFCF5" opacity="1.000000" stroke="none" 
	d="
M460.142212,257.641296 
	C457.402466,257.865326 455.113953,258.084778 453.359619,258.252991 
	C455.577423,254.068848 458.706268,249.844116 460.071350,245.110733 
	C461.392242,240.530502 460.897858,235.426727 461.229340,230.093430 
	C469.045410,236.873550 478.000488,240.127136 488.841370,237.407547 
	C481.416168,245.633926 478.876862,254.805466 481.932343,266.508911 
	C475.135925,260.679840 468.676300,256.955078 460.142212,257.641296 
z"/>
<path fill="#FFFCF5" opacity="1.000000" stroke="none" 
	d="
M507.253448,200.418274 
	C509.227570,197.244125 511.091461,194.415314 513.105347,191.358810 
	C513.643677,192.188965 514.223877,193.083664 515.062317,194.128235 
	C518.389709,203.370544 525.575073,207.626587 535.203491,210.249664 
	C523.894897,213.886093 517.173340,220.848190 514.090759,232.822372 
	C510.171875,220.942932 503.186371,214.109772 491.089355,211.878662 
	C497.949554,209.103104 504.147430,207.112427 507.253448,200.418274 
z"/>
<path fill="#FDF47D" opacity="1.000000" stroke="none" 
	d="
M287.003967,424.437256 
	C287.499176,424.046631 287.930817,424.031250 288.686218,423.990723 
	C290.423279,423.616333 291.836609,423.267029 293.617706,422.875275 
	C290.565674,428.586395 287.145874,434.340027 283.726074,440.093628 
	C283.248993,439.856995 282.771881,439.620361 282.294800,439.383728 
	C283.843323,434.526672 285.391846,429.669586 287.003967,424.437256 
z"/>
<path fill="#FAE078" opacity="1.000000" stroke="none" 
	d="
M218.761322,282.704407 
	C221.664124,289.695374 224.253204,296.460785 227.082993,303.123962 
	C233.077179,317.238220 239.133026,331.327148 245.281113,345.375000 
	C253.284775,363.662689 261.465485,381.873077 269.433380,400.176208 
	C271.864105,405.759766 273.844543,411.539368 276.053101,417.620087 
	C266.630920,413.692993 257.186890,409.375000 247.335693,404.643555 
	C240.165009,388.287384 233.450333,372.323395 226.538391,356.445251 
	C226.027222,355.270966 224.096817,354.714539 222.842682,353.609009 
	C222.789658,353.004852 222.720154,352.662537 222.650665,352.320251 
	C222.474213,350.228119 222.816742,347.916351 222.039032,346.078674 
	C215.946594,331.683105 209.612671,317.390015 203.406769,303.042114 
	C198.312500,291.264343 193.291672,279.454834 188.062622,267.334961 
	C194.291443,269.905548 200.770309,272.649445 207.073395,275.750580 
	C211.037430,277.700897 214.737930,280.186859 218.761322,282.704407 
z"/>
<path fill="#F7CE48" opacity="1.000000" stroke="none" 
	d="
M222.826218,353.870850 
	C224.096817,354.714539 226.027222,355.270966 226.538391,356.445251 
	C233.450333,372.323395 240.165009,388.287384 246.976715,404.600098 
	C246.266266,404.979584 245.507645,404.989075 244.369812,404.991455 
	C243.446686,404.226715 243.071213,403.132172 242.333023,402.763123 
	C234.068466,398.631287 225.748001,394.611298 217.217529,389.902283 
	C213.779144,381.657593 210.565857,374.071808 207.460724,366.157227 
	C210.388824,358.951447 216.187485,355.875183 222.826218,353.870850 
z"/>
<path fill="#FFFDF6" opacity="1.000000" stroke="none" 
	d="
M150.014679,383.401978 
	C149.954605,379.936676 149.954605,376.868225 149.954605,373.087067 
	C157.614105,378.727753 164.943863,383.042084 174.908432,380.104980 
	C176.104340,380.494019 177.088547,381.185394 176.988693,381.424957 
	C176.365799,382.919495 175.500458,384.313019 174.715469,385.739990 
	C173.057419,389.532318 171.399368,393.324615 169.571899,397.771790 
	C169.518082,399.651123 169.633698,400.875610 169.749313,402.100098 
	C170.061981,404.104706 170.374634,406.109283 170.688049,408.489990 
	C165.315536,404.666748 159.869034,400.524292 152.666382,400.285980 
	C149.398911,400.177856 146.114822,400.571686 143.496811,400.704437 
	C145.672318,395.113281 147.873550,389.456024 150.014679,383.401978 
z"/>
<path fill="#FAE07A" opacity="1.000000" stroke="none" 
	d="
M207.352570,366.486053 
	C210.565857,374.071808 213.779144,381.657593 216.996567,389.635925 
	C210.577957,387.131775 204.177933,384.182983 197.720093,381.366760 
	C195.472092,380.386444 193.081146,379.733917 190.324310,378.613129 
	C188.959946,377.539398 188.026749,376.784241 187.067474,375.626282 
	C186.316910,372.919617 185.682526,370.582489 184.848724,368.318878 
	C183.227570,363.917755 181.494553,359.557800 179.807861,355.180817 
	C179.807861,355.180817 180.037521,354.995331 180.521942,354.944794 
	C192.176712,357.042969 199.490417,363.536591 202.799149,374.917084 
	C204.490021,371.786316 205.921295,369.136200 207.352570,366.486053 
z"/>
<path fill="#FDF57F" opacity="1.000000" stroke="none" 
	d="
M187.093536,376.029083 
	C188.026749,376.784241 188.959946,377.539398 189.927948,378.597382 
	C185.142715,381.224426 180.322693,383.548676 175.109070,385.806458 
	C175.500458,384.313019 176.365799,382.919495 176.988693,381.424957 
	C177.088547,381.185394 176.104340,380.494019 175.295547,379.966736 
	C176.217987,377.819580 177.466171,375.717163 179.218719,373.350037 
	C182.179886,374.066559 184.636719,375.047821 187.093536,376.029083 
z"/>
<path fill="#F7CE49" opacity="1.000000" stroke="none" 
	d="
M170.057098,401.897339 
	C169.633698,400.875610 169.518082,399.651123 169.587463,398.168701 
	C169.969925,399.172058 170.167404,400.433289 170.057098,401.897339 
z"/>
<path fill="#FAE078" opacity="1.000000" stroke="none" 
	d="
M233.045074,421.319641 
	C233.342361,421.491608 233.651947,421.960083 233.984070,422.723938 
	C233.690216,422.551605 233.373795,422.083862 233.045074,421.319641 
z"/>
<path fill="#FFFEF9" opacity="1.000000" stroke="none" 
	d="
M142.657654,326.130005 
	C146.021774,328.209320 149.063293,330.151672 152.754990,332.394653 
	C158.656204,333.204071 163.907211,333.712799 169.158234,334.221558 
	C171.556961,333.853699 173.955688,333.485840 177.689224,332.913300 
	C174.901886,336.289734 172.891846,338.724548 170.617737,341.778992 
	C165.291412,349.948700 163.917389,358.156921 165.967850,366.976257 
	C166.100662,368.522583 166.233475,370.068909 166.477051,372.904785 
	C155.076538,361.343384 142.252960,358.417847 126.388351,362.563019 
	C137.651062,350.815338 141.263748,338.173462 137.842850,322.944275 
	C139.738434,324.230743 141.036758,325.111847 142.657654,326.130005 
z"/>
<path fill="#F7CE49" opacity="1.000000" stroke="none" 
	d="
M166.337219,367.014130 
	C163.917389,358.156921 165.291412,349.948700 170.565445,342.122192 
	C172.228210,343.224579 174.062683,344.376221 175.044296,346.033112 
	C176.701645,348.830627 177.818848,351.948151 179.485535,355.055969 
	C181.494553,359.557800 183.227570,363.917755 184.848724,368.318878 
	C185.682526,370.582489 186.316910,372.919617 187.067474,375.626282 
	C184.636719,375.047821 182.179886,374.066559 179.367889,373.049377 
	C174.910675,371.026306 170.808640,369.039154 166.337219,367.014130 
z"/>
<path fill="#FFFDF6" opacity="1.000000" stroke="none" 
	d="
M207.460724,366.157227 
	C205.921295,369.136200 204.490021,371.786316 202.799149,374.917084 
	C199.490417,363.536591 192.176712,357.042969 180.639496,354.855469 
	C187.587433,351.988739 194.410034,348.512604 198.401779,340.841370 
	C199.577652,338.163025 200.628723,335.787659 201.853806,333.019043 
	C205.657944,342.271332 211.280838,349.987061 222.292480,352.276245 
	C222.720154,352.662537 222.789658,353.004852 222.842682,353.609009 
	C216.187485,355.875183 210.388824,358.951447 207.460724,366.157227 
z"/>
<path fill="#F7CE49" opacity="1.000000" stroke="none" 
	d="
M169.111603,333.817505 
	C163.907211,333.712799 158.656204,333.204071 153.105042,332.450378 
	C154.141678,327.507385 155.500092,322.815277 156.803879,318.108093 
	C157.282776,316.379150 157.632584,314.614502 158.054993,312.471283 
	C159.020660,312.505127 160.531708,312.692261 160.837540,313.400116 
	C163.697815,320.020325 166.351501,326.729797 169.111603,333.817505 
z"/>
<path fill="#FFFEF9" opacity="1.000000" stroke="none" 
	d="
M178.428925,332.530273 
	C178.398117,332.484711 178.459732,332.575867 178.428925,332.530273 
z"/>
</svg>