<svg version="1.1" id="Layer_1" xmlns="http://www.w3.org/2000/svg" xmlns:xlink="http://www.w3.org/1999/xlink" x="0px" y="0px"
	 width="100%" viewBox="0 0 632 568" enable-background="new 0 0 632 568" xml:space="preserve">
<path fill="none" opacity="1.000000" stroke="none" 
	d="
M365.000000,569.000000 
	C243.333328,569.000000 122.166664,569.000000 1.000000,569.000000 
	C1.000000,379.666656 1.000000,190.333328 1.000000,1.000000 
	C211.666672,1.000000 422.333344,1.000000 633.000000,1.000000 
	C633.000000,190.333328 633.000000,379.666656 633.000000,569.000000 
	C543.833313,569.000000 454.666656,569.000000 365.000000,569.000000 
M581.958374,423.086029 
	C582.730957,421.225983 584.061340,419.403961 584.191223,417.500061 
	C585.787903,394.087006 587.262573,370.665070 588.617004,347.236664 
	C588.815002,343.811127 589.017517,340.051208 587.881714,336.932617 
	C563.928345,271.160522 539.788879,205.456116 515.636475,139.756653 
	C515.091492,138.274216 513.972168,137.002945 512.725220,135.056381 
	C511.358398,134.470154 510.025909,133.780899 508.619843,133.312439 
	C437.948212,109.766983 367.260925,86.268394 296.620850,62.628712 
	C293.108063,61.453163 290.595856,61.570469 287.505432,63.804173 
	C262.837280,81.633972 238.069794,99.327354 213.245834,116.939995 
	C206.642319,121.625198 199.737549,125.885773 192.803909,129.545044 
	C186.575562,109.745171 180.347229,89.945297 174.118881,70.145424 
	C172.635406,71.101006 172.336823,71.835548 172.215942,72.598251 
	C168.125488,98.403763 164.007523,124.205063 159.996841,150.023010 
	C158.287125,161.028931 156.806656,172.070480 154.901733,183.640472 
	C154.911713,183.850845 154.921692,184.061203 154.797363,184.250534 
	C154.797363,184.250534 154.840347,184.303452 154.432495,185.026917 
	C150.623230,190.369110 146.813965,195.711288 142.361343,200.703445 
	C136.196304,188.821701 130.791611,176.463440 123.706490,165.158340 
	C109.358704,142.264862 90.456314,123.670959 67.077339,109.880028 
	C63.457287,107.744606 59.487652,106.201805 55.679680,104.384956 
	C55.412819,104.875366 55.145958,105.365784 54.879097,105.856201 
	C56.107719,107.765350 57.280151,109.713486 58.573387,111.577827 
	C78.342560,140.077301 92.729439,170.989777 99.276894,205.159485 
	C102.307205,220.974060 104.019241,237.041245 106.081635,253.672958 
	C105.123489,255.200287 104.219643,256.764954 103.198509,258.248932 
	C95.744949,269.080933 88.267807,279.896729 80.294296,291.234406 
	C67.904167,321.551666 55.563148,351.889221 43.062149,382.160675 
	C41.489166,385.969696 41.432484,389.060333 43.346138,392.908844 
	C53.489006,413.307190 63.244080,433.897919 73.211449,454.384094 
	C82.738205,473.964600 92.360489,493.498627 101.939354,513.806763 
	C103.900330,514.787903 105.766357,516.304077 107.836250,516.671326 
	C151.247787,524.374207 194.675598,531.986389 238.118820,539.508972 
	C245.633133,540.810120 253.359161,543.043945 260.766418,542.380310 
	C278.808655,540.764099 296.721130,537.699219 314.685974,535.218628 
	C343.858612,531.190308 373.041687,527.235474 402.196503,523.082153 
	C409.188171,522.086121 416.086029,520.431274 423.739868,519.028564 
	C461.522217,496.131073 499.320892,473.260468 537.078796,450.322693 
	C551.826477,441.363556 566.482361,432.253387 581.958374,423.086029 
z"/>
<path fill="#BD8961" opacity="1.000000" stroke="none" 
	d="
M80.798111,290.717621 
	C88.267807,279.896729 95.744949,269.080933 103.198509,258.248932 
	C104.219643,256.764954 105.123489,255.200287 106.459152,253.141861 
	C109.810532,248.643829 112.910210,244.764236 115.735092,240.693909 
	C124.879265,227.518112 133.922531,214.272308 143.004700,201.053467 
	C146.813965,195.711288 150.623230,190.369110 154.615570,184.645187 
	C154.798660,184.263458 154.931656,184.271576 154.931656,184.271576 
	C154.921692,184.061203 154.911713,183.850845 155.375671,183.257629 
	C156.561523,182.224319 157.415207,181.675262 157.964096,180.908142 
	C166.363647,169.168686 174.787994,157.445938 183.061859,145.618088 
	C186.538879,140.647507 189.678238,135.440720 192.971085,130.341309 
	C199.737549,125.885773 206.642319,121.625198 213.245834,116.939995 
	C238.069794,99.327354 262.837280,81.633972 287.505432,63.804173 
	C290.595856,61.570469 293.108063,61.453163 296.620850,62.628712 
	C367.260925,86.268394 437.948212,109.766983 508.619843,133.312439 
	C510.025909,133.780899 511.358398,134.470154 512.793945,135.697083 
	C511.894592,137.225311 511.024689,138.260925 509.943512,138.977905 
	C495.881958,148.302811 481.708496,157.461182 467.727631,166.904953 
	C451.165375,178.092377 435.169159,190.187805 418.097076,200.516968 
	C410.954193,204.838608 408.815735,210.519928 406.967072,217.349625 
	C404.862213,225.125671 402.839203,232.925888 400.593567,240.661285 
	C397.526947,251.224487 394.169403,261.703796 391.148773,272.279694 
	C388.219910,282.534241 385.655579,292.892578 382.755432,303.155701 
	C379.548920,314.502869 376.158173,325.798126 372.816986,337.106964 
	C371.247620,342.418762 369.606293,347.709290 367.646881,352.857025 
	C365.209656,352.796417 363.122437,352.875214 361.036682,352.982147 
	C341.695862,353.973572 322.360077,355.078217 303.013245,355.933899 
	C284.139435,356.768646 265.256104,357.401337 246.373444,358.014526 
	C240.130081,358.217255 233.858765,357.795258 227.630035,358.163208 
	C214.434174,358.942749 201.265137,360.170227 188.071213,360.990845 
	C178.313782,361.597748 168.534424,361.851959 158.651794,361.947815 
	C151.862625,355.430847 145.177399,349.239105 138.512161,343.025970 
	C122.998276,328.564331 107.538986,314.043610 91.951363,299.661987 
	C88.457214,296.438171 84.527374,293.686584 80.798111,290.717621 
z"/>
<path fill="#9A6246" opacity="1.000000" stroke="none" 
	d="
M158.764832,362.263306 
	C168.534424,361.851959 178.313782,361.597748 188.071213,360.990845 
	C201.265137,360.170227 214.434174,358.942749 227.630035,358.163208 
	C233.858765,357.795258 240.130081,358.217255 246.373444,358.014526 
	C265.256104,357.401337 284.139435,356.768646 303.013245,355.933899 
	C322.360077,355.078217 341.695862,353.973572 361.036682,352.982147 
	C363.122437,352.875214 365.209656,352.796417 367.655731,353.228424 
	C378.681885,373.835449 389.348450,393.918610 400.349792,414.191162 
	C401.007599,414.756317 401.539246,415.090637 401.623413,415.513977 
	C404.111359,428.020966 406.485199,440.550964 409.026642,453.046906 
	C411.207855,463.771729 413.687714,474.436310 415.821625,485.170074 
	C417.702576,494.631409 419.234375,504.161743 421.049103,513.636963 
	C421.407623,515.508728 422.352539,517.268127 423.027008,519.079346 
	C416.086029,520.431274 409.188171,522.086121 402.196503,523.082153 
	C373.041687,527.235474 343.858612,531.190308 314.685974,535.218628 
	C296.721130,537.699219 278.808655,540.764099 260.766418,542.380310 
	C253.359161,543.043945 245.633133,540.810120 238.118820,539.508972 
	C194.675598,531.986389 151.247787,524.374207 107.836250,516.671326 
	C105.766357,516.304077 103.900330,514.787903 102.260468,513.264404 
	C107.390556,500.353821 112.309158,488.026825 116.976089,475.605255 
	C121.202415,464.356415 125.106453,452.986969 129.238571,441.702148 
	C134.997177,425.975494 140.815536,410.270599 146.647232,394.570831 
	C150.652191,383.788940 154.723312,373.031616 158.764832,362.263306 
z"/>
<path fill="#AA7150" opacity="1.000000" stroke="none" 
	d="
M400.015045,414.001801 
	C389.348450,393.918610 378.681885,373.835449 368.006439,353.380859 
	C369.606293,347.709290 371.247620,342.418762 372.816986,337.106964 
	C376.158173,325.798126 379.548920,314.502869 382.755432,303.155701 
	C385.655579,292.892578 388.219910,282.534241 391.148773,272.279694 
	C394.169403,261.703796 397.526947,251.224487 400.593567,240.661285 
	C402.839203,232.925888 404.862213,225.125671 406.967072,217.349625 
	C408.815735,210.519928 410.954193,204.838608 418.097076,200.516968 
	C435.169159,190.187805 451.165375,178.092377 467.727631,166.904953 
	C481.708496,157.461182 495.881958,148.302811 509.943512,138.977905 
	C511.024689,138.260925 511.894592,137.225311 512.991699,135.985474 
	C513.972168,137.002945 515.091492,138.274216 515.636475,139.756653 
	C539.788879,205.456116 563.928345,271.160522 587.881714,336.932617 
	C589.017517,340.051208 588.815002,343.811127 588.617004,347.236664 
	C587.262573,370.665070 585.787903,394.087006 584.191223,417.500061 
	C584.061340,419.403961 582.730957,421.225983 581.280640,422.818542 
	C564.283630,421.366760 547.970154,420.092804 531.643372,419.022888 
	C514.790283,417.918488 497.932800,416.818329 481.061554,416.069763 
	C460.924377,415.176331 440.767578,414.731659 420.626221,413.920776 
	C416.188965,413.742126 411.791046,412.545135 407.355103,412.391418 
	C404.929932,412.307373 402.463104,413.425690 400.015045,414.001801 
z"/>
<path fill="#774634" opacity="1.000000" stroke="none" 
	d="
M158.651794,361.947815 
	C154.723312,373.031616 150.652191,383.788940 146.647232,394.570831 
	C140.815536,410.270599 134.997177,425.975494 129.238571,441.702148 
	C125.106453,452.986969 121.202415,464.356415 116.976089,475.605255 
	C112.309158,488.026825 107.390556,500.353821 102.261185,512.887573 
	C92.360489,493.498627 82.738205,473.964600 73.211449,454.384094 
	C63.244080,433.897919 53.489006,413.307190 43.346138,392.908844 
	C41.432484,389.060333 41.489166,385.969696 43.062149,382.160675 
	C55.563148,351.889221 67.904167,321.551666 80.546204,290.976013 
	C84.527374,293.686584 88.457214,296.438171 91.951363,299.661987 
	C107.538986,314.043610 122.998276,328.564331 138.512161,343.025970 
	C145.177399,349.239105 151.862625,355.430847 158.651794,361.947815 
z"/>
<path fill="#8A533E" opacity="1.000000" stroke="none" 
	d="
M400.349792,414.191162 
	C402.463104,413.425690 404.929932,412.307373 407.355103,412.391418 
	C411.791046,412.545135 416.188965,413.742126 420.626221,413.920776 
	C440.767578,414.731659 460.924377,415.176331 481.061554,416.069763 
	C497.932800,416.818329 514.790283,417.918488 531.643372,419.022888 
	C547.970154,420.092804 564.283630,421.366760 580.891479,422.881561 
	C566.482361,432.253387 551.826477,441.363556 537.078796,450.322693 
	C499.320892,473.260468 461.522217,496.131073 423.383423,519.053955 
	C422.352539,517.268127 421.407623,515.508728 421.049103,513.636963 
	C419.234375,504.161743 417.702576,494.631409 415.821625,485.170074 
	C413.687714,474.436310 411.207855,463.771729 409.026642,453.046906 
	C406.485199,440.550964 404.111359,428.020966 401.623413,415.513977 
	C401.539246,415.090637 401.007599,414.756317 400.349792,414.191162 
z"/>
<path fill="#76AB60" opacity="1.000000" stroke="none" 
	d="
M142.683014,200.878448 
	C133.922531,214.272308 124.879265,227.518112 115.735092,240.693909 
	C112.910210,244.764236 109.810532,248.643829 106.582809,252.802338 
	C104.019241,237.041245 102.307205,220.974060 99.276894,205.159485 
	C92.729439,170.989777 78.342560,140.077301 58.573387,111.577827 
	C57.280151,109.713486 56.107719,107.765350 54.879097,105.856201 
	C55.145958,105.365784 55.412819,104.875366 55.679680,104.384956 
	C59.487652,106.201805 63.457287,107.744606 67.077339,109.880028 
	C90.456314,123.670959 109.358704,142.264862 123.706490,165.158340 
	C130.791611,176.463440 136.196304,188.821701 142.683014,200.878448 
z"/>
<path fill="#588149" opacity="1.000000" stroke="none" 
	d="
M192.887497,129.943176 
	C189.678238,135.440720 186.538879,140.647507 183.061859,145.618088 
	C174.787994,157.445938 166.363647,169.168686 157.964096,180.908142 
	C157.415207,181.675262 156.561523,182.224319 155.535797,182.985321 
	C156.806656,172.070480 158.287125,161.028931 159.996841,150.023010 
	C164.007523,124.205063 168.125488,98.403763 172.215942,72.598251 
	C172.336823,71.835548 172.635406,71.101006 174.118881,70.145424 
	C180.347229,89.945297 186.575562,109.745171 192.887497,129.943176 
z"/>
<path fill="#588149" opacity="1.000000" stroke="none" 
	d="
M154.864502,184.261047 
	C154.931656,184.271576 154.798660,184.263458 154.819504,184.283447 
	C154.840347,184.303452 154.797363,184.250534 154.864502,184.261047 
z"/>
</svg>