<svg version="1.1" id="Layer_1" xmlns="http://www.w3.org/2000/svg" xmlns:xlink="http://www.w3.org/1999/xlink" x="0px" y="0px"
	 width="100%" viewBox="0 0 480 642" enable-background="new 0 0 480 642" xml:space="preserve">
<path fill="none" opacity="1.000000" stroke="none" 
	d="
M481.000000,234.000000 
	C481.000000,370.666656 481.000000,506.833344 481.000000,643.000000 
	C321.000000,643.000000 161.000000,643.000000 1.000000,643.000000 
	C1.000000,429.000000 1.000000,215.000000 1.000000,1.000000 
	C161.000000,1.000000 321.000000,1.000000 481.000000,1.000000 
	C481.000000,78.500000 481.000000,156.000000 481.000000,234.000000 
M343.711670,32.297085 
	C341.807373,31.552498 339.904175,30.160294 337.998627,30.157040 
	C272.086823,30.044411 206.174728,30.036068 140.263077,30.186846 
	C138.193512,30.191580 136.128159,32.031796 133.457718,33.312077 
	C109.241928,61.803894 85.001755,90.275032 60.822014,118.797409 
	C50.731186,130.700531 40.768913,142.712616 30.089622,155.149231 
	C29.745394,156.740356 29.100485,158.331375 29.099813,159.922638 
	C29.052517,271.913055 29.048670,383.903503 29.127018,495.893890 
	C29.128284,497.705658 30.186790,499.516724 30.980509,501.945770 
	C52.363297,527.171509 73.713448,552.424988 95.141014,577.612610 
	C108.052017,592.789185 121.083397,607.863342 134.303711,623.694946 
	C136.207733,624.442200 138.110626,625.839478 140.015915,625.842712 
	C205.928543,625.955688 271.841461,625.963806 337.753967,625.813354 
	C339.823486,625.808594 341.888824,623.972107 344.556366,622.691101 
	C368.771088,594.202454 393.009888,565.734253 417.189026,537.215393 
	C427.280548,525.312622 437.245087,513.302185 447.916473,500.853699 
	C448.258911,499.261414 448.900513,497.669281 448.901184,496.076843 
	C448.948181,384.087158 448.951965,272.097473 448.874237,160.107803 
	C448.872986,158.290100 447.823853,156.473114 447.031891,154.035553 
	C425.864410,129.066223 404.729675,104.069038 383.517426,79.137779 
	C370.391205,63.710255 357.147247,48.382923 343.711670,32.297085 
z"/>
<path fill="#70C975" opacity="1.000000" stroke="none" 
	d="
M30.751934,501.328094 
	C30.186790,499.516724 29.128284,497.705658 29.127018,495.893890 
	C29.048670,383.903503 29.052517,271.913055 29.099813,159.922638 
	C29.100485,158.331375 29.745394,156.740356 30.637831,155.226959 
	C32.039520,155.806229 32.842472,156.439331 33.754108,156.789444 
	C46.164478,161.555588 58.589912,166.282516 71.038437,171.310364 
	C71.712852,171.734390 72.360474,171.867203 73.257446,172.001495 
	C73.506798,172.002991 74.005486,172.007416 74.001076,172.461609 
	C74.047180,175.389526 74.097702,177.863266 74.116028,180.624695 
	C73.933578,181.266739 73.783302,181.621078 73.335861,182.051605 
	C73.293709,183.090363 73.548737,184.052902 73.935471,185.223907 
	C74.211578,185.726913 74.324165,186.033173 74.281906,186.849304 
	C74.106071,189.009857 74.007141,190.672211 74.007034,192.334564 
	C74.000969,289.553925 74.003067,386.773315 73.755737,483.995728 
	C73.507095,483.998779 73.009781,484.001221 72.837616,483.773071 
	C72.114166,484.023560 71.562881,484.502197 70.681656,485.129364 
	C60.033379,489.112915 49.681644,492.861694 39.417446,496.836456 
	C36.401428,498.004395 33.633541,499.813080 30.751934,501.328094 
z"/>
<path fill="#71C976" opacity="1.000000" stroke="none" 
	d="
M447.263733,154.655807 
	C447.823853,156.473114 448.872986,158.290100 448.874237,160.107803 
	C448.951965,272.097473 448.948181,384.087158 448.901184,496.076843 
	C448.900513,497.669281 448.258911,499.261414 447.371460,500.780975 
	C433.540680,495.460663 420.254852,490.213043 406.907471,484.589783 
	C406.229736,479.804382 405.613495,475.394592 405.283905,470.800598 
	C406.881500,470.326202 408.192505,470.036041 409.903076,469.805023 
	C414.226349,468.923737 415.681366,466.776733 413.408630,462.699036 
	C410.397766,461.096558 407.663574,459.738037 404.950500,457.887451 
	C404.981903,364.738159 404.974762,272.080902 405.085815,179.423782 
	C405.089203,176.621033 406.326691,173.819778 407.326141,170.867310 
	C418.460785,166.756165 429.290192,162.879593 440.031891,158.773483 
	C442.592957,157.794479 444.860931,156.048828 447.263733,154.655807 
z"/>
<path fill="#71C976" opacity="1.000000" stroke="none" 
	d="
M343.956085,622.989502 
	C341.888824,623.972107 339.823486,625.808594 337.753967,625.813354 
	C271.841461,625.963806 205.928543,625.955688 140.015915,625.842712 
	C138.110626,625.839478 136.207733,624.442200 134.552643,623.326904 
	C135.668991,622.339783 136.916138,621.912109 137.341034,621.069763 
	C139.762497,616.269409 141.891403,611.321655 144.304016,606.516479 
	C147.427399,600.295654 150.723923,594.161743 154.420624,587.994751 
	C211.281937,587.996094 267.668549,587.993164 324.358704,588.157471 
	C328.850647,596.998535 332.884644,605.752136 337.306946,614.304871 
	C338.965546,617.512512 339.010010,622.212646 343.956085,622.989502 
z"/>
<path fill="#71C976" opacity="1.000000" stroke="none" 
	d="
M134.060837,33.016327 
	C136.128159,32.031796 138.193512,30.191580 140.263077,30.186846 
	C206.174728,30.036068 272.086823,30.044411 337.998627,30.157040 
	C339.904175,30.160294 341.807373,31.552498 343.462158,32.667831 
	C342.343292,33.653576 341.087311,34.075459 340.667816,34.915203 
	C338.120300,40.015102 335.869659,45.263508 333.315033,50.359634 
	C330.338165,56.298027 327.151031,62.131027 323.580322,68.005386 
	C266.718964,68.003868 210.332428,68.006721 153.641312,67.839462 
	C149.087067,58.853737 144.961624,49.974861 140.521057,41.256474 
	C138.945465,38.163025 138.774338,33.733196 134.060837,33.016327 
z"/>
<path fill="#61B967" opacity="1.000000" stroke="none" 
	d="
M153.945923,587.990417 
	C150.723923,594.161743 147.427399,600.295654 144.304016,606.516479 
	C141.891403,611.321655 139.762497,616.269409 137.341034,621.069763 
	C136.916138,621.912109 135.668991,622.339783 134.431122,622.971252 
	C121.083397,607.863342 108.052017,592.789185 95.141014,577.612610 
	C73.713448,552.424988 52.363297,527.171509 30.866222,501.636932 
	C33.633541,499.813080 36.401428,498.004395 39.417446,496.836456 
	C49.681644,492.861694 60.033379,489.112915 71.009644,485.134705 
	C72.104973,484.987946 72.542358,484.984344 73.256409,485.220337 
	C74.171234,487.284515 74.368591,489.469147 75.517929,490.876160 
	C84.005203,501.265808 92.712502,511.475250 101.292831,521.789368 
	C115.803680,539.232483 130.207230,556.765503 144.811325,574.130005 
	C147.835953,577.726318 151.539352,580.751709 154.910339,584.380798 
	C154.575806,585.811035 154.260864,586.900757 153.945923,587.990417 
z"/>
<path fill="#61B967" opacity="1.000000" stroke="none" 
	d="
M133.759277,33.164204 
	C138.774338,33.733196 138.945465,38.163025 140.521057,41.256474 
	C144.961624,49.974861 149.087067,58.853737 153.680389,68.181244 
	C154.324722,69.782028 154.625397,70.870926 154.584961,72.008301 
	C152.081268,74.285568 149.786804,76.402130 147.778534,78.762222 
	C138.220001,89.995216 128.719345,101.277679 119.236534,112.574799 
	C109.544106,124.121658 99.601830,135.476257 90.334389,147.356140 
	C84.328094,155.055573 76.144890,161.228210 72.651512,171.015198 
	C71.886276,171.012466 71.448952,171.015793 71.011635,171.019119 
	C58.589912,166.282516 46.164478,161.555588 33.754108,156.789444 
	C32.842472,156.439331 32.039520,155.806229 30.967113,154.989929 
	C40.768913,142.712616 50.731186,130.700531 60.822014,118.797409 
	C85.001755,90.275032 109.241928,61.803894 133.759277,33.164204 
z"/>
<path fill="#61B967" opacity="1.000000" stroke="none" 
	d="
M324.055145,68.009766 
	C327.151031,62.131027 330.338165,56.298027 333.315033,50.359634 
	C335.869659,45.263508 338.120300,40.015102 340.667816,34.915203 
	C341.087311,34.075459 342.343292,33.653576 343.584412,33.024593 
	C357.147247,48.382923 370.391205,63.710255 383.517426,79.137779 
	C404.729675,104.069038 425.864410,129.066223 447.147827,154.345673 
	C444.860931,156.048828 442.592957,157.794479 440.031891,158.773483 
	C429.290192,162.879593 418.460785,166.756165 406.996948,170.859070 
	C405.891113,170.994461 405.451813,170.987610 405.009033,170.583008 
	C404.313721,168.248474 404.082336,165.936035 402.857269,164.434296 
	C393.041077,152.401474 383.087463,140.479446 373.078125,128.605896 
	C360.191559,113.319160 347.289520,98.043968 334.224823,82.909935 
	C330.832855,78.980705 326.810364,75.595764 323.100525,71.619690 
	C323.434113,70.188957 323.744629,69.099365 324.055145,68.009766 
z"/>
<path fill="#61B967" opacity="1.000000" stroke="none" 
	d="
M344.256226,622.840332 
	C339.010010,622.212646 338.965546,617.512512 337.306946,614.304871 
	C332.884644,605.752136 328.850647,596.998535 324.320374,587.816772 
	C323.677307,586.219421 323.376190,585.130188 323.412354,583.990601 
	C325.032806,582.922485 326.515228,582.076965 327.567413,580.859558 
	C335.464874,571.722107 343.291412,562.523193 351.113739,553.321045 
	C367.934204,533.533447 384.817810,513.798218 401.443268,493.847961 
	C403.378906,491.525177 403.850708,487.982513 405.329346,485.000122 
	C406.094727,484.985077 406.531891,484.975250 406.969025,484.965454 
	C420.254852,490.213043 433.540680,495.460663 447.046936,501.024475 
	C437.245087,513.302185 427.280548,525.312622 417.189026,537.215393 
	C393.009888,565.734253 368.771088,594.202454 344.256226,622.840332 
z"/>
<path fill="#7ACE82" opacity="1.000000" stroke="none" 
	d="
M74.004379,483.992676 
	C74.003067,386.773315 74.000969,289.553925 74.007034,192.334564 
	C74.007141,190.672211 74.106071,189.009857 74.629639,186.983673 
	C84.098198,189.400238 93.045959,192.358795 102.109779,194.904083 
	C109.225304,196.902252 113.221725,201.345703 115.133781,208.392838 
	C117.598381,217.476486 120.557518,226.425980 123.211136,235.947159 
	C123.080521,238.622345 123.009369,240.783615 123.009102,242.944885 
	C122.999985,316.968140 122.997574,390.991394 122.996040,465.257935 
	C122.997879,465.501221 123.002251,465.987793 122.663368,466.138153 
	C113.965469,469.241577 105.579781,472.121796 97.255180,475.168884 
	C89.471230,478.018127 81.752068,481.044373 74.004379,483.992676 
z"/>
<path fill="#6CBF75" opacity="1.000000" stroke="none" 
	d="
M73.755737,483.995728 
	C81.752068,481.044373 89.471230,478.018127 97.255180,475.168884 
	C105.579781,472.121796 113.965469,469.241577 123.009720,466.180603 
	C124.440475,466.673798 125.301926,467.175964 125.913086,467.891815 
	C130.521652,473.289673 135.068024,478.740540 139.658493,484.153931 
	C148.520157,494.604126 157.315475,505.112366 166.304764,515.451782 
	C170.666931,520.469177 175.405045,525.159790 179.983292,530.371948 
	C180.009232,531.492676 180.024857,532.239624 179.683899,533.045044 
	C177.002960,537.755005 174.601837,542.369934 172.369110,547.065002 
	C166.516846,559.371460 160.738037,571.712769 154.929932,584.040222 
	C151.539352,580.751709 147.835953,577.726318 144.811325,574.130005 
	C130.207230,556.765503 115.803680,539.232483 101.292831,521.789368 
	C92.712502,511.475250 84.005203,501.265808 75.517929,490.876160 
	C74.368591,489.469147 74.171234,487.284515 73.264633,484.975586 
	C72.996201,484.491241 73.009781,484.001221 73.009781,484.001221 
	C73.009781,484.001221 73.507095,483.998779 73.755737,483.995728 
z"/>
<path fill="#6DBF76" opacity="1.000000" stroke="none" 
	d="
M72.979431,171.021240 
	C76.144890,161.228210 84.328094,155.055573 90.334389,147.356140 
	C99.601830,135.476257 109.544106,124.121658 119.236534,112.574799 
	C128.719345,101.277679 138.220001,89.995216 147.778534,78.762222 
	C149.786804,76.402130 152.081268,74.285568 154.743973,72.335678 
	C161.856445,86.790253 168.416870,100.990585 175.125763,115.120407 
	C176.440338,117.889091 178.329788,120.384827 179.954468,123.368851 
	C175.078857,129.877762 170.306885,136.110443 165.301956,142.150055 
	C158.253662,150.655472 151.032700,159.017792 143.548050,167.312973 
	C141.724655,164.662354 139.752411,162.302780 138.844009,159.587326 
	C136.111252,151.418396 133.957932,143.054810 131.188751,134.899521 
	C130.553177,133.027725 128.355942,131.686172 126.877419,130.100601 
	C125.257484,131.701035 122.827171,133.021179 122.159706,134.951035 
	C119.453629,142.775131 117.229179,150.769394 114.945366,158.734787 
	C113.284996,164.525772 110.143822,168.976196 104.190910,170.792160 
	C97.856247,172.724518 91.446014,174.409164 84.846649,175.887878 
	C81.084839,174.385010 77.545158,173.196213 74.005478,172.007416 
	C74.005486,172.007416 73.506798,172.002991 73.250961,171.756775 
	C72.995125,171.510574 72.979431,171.021240 72.979431,171.021240 
z"/>
<path fill="#FCFEFC" opacity="1.000000" stroke="none" 
	d="
M85.068779,176.201965 
	C91.446014,174.409164 97.856247,172.724518 104.190910,170.792160 
	C110.143822,168.976196 113.284996,164.525772 114.945366,158.734787 
	C117.229179,150.769394 119.453629,142.775131 122.159706,134.951035 
	C122.827171,133.021179 125.257484,131.701035 126.877419,130.100601 
	C128.355942,131.686172 130.553177,133.027725 131.188751,134.899521 
	C133.957932,143.054810 136.111252,151.418396 138.844009,159.587326 
	C139.752411,162.302780 141.724655,164.662354 143.704163,167.574631 
	C145.097382,168.457703 145.996979,168.950775 147.182220,169.655197 
	C156.319794,172.606979 165.242386,175.146927 173.975311,178.225021 
	C176.234512,179.021301 177.899078,181.504654 179.836792,183.213074 
	C177.986694,184.818939 176.390350,187.152512 174.241547,187.901794 
	C165.960846,190.789291 157.512054,193.198700 149.108673,195.729004 
	C144.313217,197.172943 141.004379,200.179138 139.459305,204.922363 
	C137.821289,209.950806 136.632935,215.136505 134.801315,220.088211 
	C132.783813,225.542419 130.257858,230.808578 127.624207,236.118958 
	C126.856117,236.119400 126.417221,236.157532 125.646942,236.085678 
	C124.644943,235.794891 123.974304,235.614075 123.303665,235.433243 
	C120.557518,226.425980 117.598381,217.476486 115.133781,208.392838 
	C113.221725,201.345703 109.225304,196.902252 102.109779,194.904083 
	C93.045959,192.358795 84.098198,189.400238 74.752670,186.485474 
	C74.324165,186.033173 74.211578,185.726913 73.979034,184.842667 
	C73.804939,183.493805 73.718987,182.734604 73.633026,181.975418 
	C73.783302,181.621078 73.933578,181.266739 74.432999,180.441086 
	C78.211037,178.713852 81.639908,177.457916 85.068779,176.201965 
z"/>
<path fill="#7ACE82" opacity="1.000000" stroke="none" 
	d="
M84.846649,175.887878 
	C81.639908,177.457916 78.211037,178.713852 74.465187,180.153397 
	C74.097702,177.863266 74.047180,175.389526 74.001068,172.461609 
	C77.545158,173.196213 81.084839,174.385010 84.846649,175.887878 
z"/>
<path fill="#7ACE82" opacity="1.000000" stroke="none" 
	d="
M73.335854,182.051605 
	C73.718987,182.734604 73.804939,183.493805 73.847328,184.634216 
	C73.548737,184.052902 73.293709,183.090363 73.335854,182.051605 
z"/>
<path fill="#7ACE82" opacity="1.000000" stroke="none" 
	d="
M72.837616,483.773071 
	C73.009781,484.001221 72.996201,484.491241 72.987976,484.735992 
	C72.542358,484.984344 72.104973,484.987946 71.339592,484.986206 
	C71.562881,484.502197 72.114166,484.023560 72.837616,483.773071 
z"/>
<path fill="#7ACE82" opacity="1.000000" stroke="none" 
	d="
M72.651512,171.015198 
	C72.979431,171.021240 72.995125,171.510574 73.001610,171.755280 
	C72.360474,171.867203 71.712852,171.734390 71.038437,171.310364 
	C71.448952,171.015793 71.886276,171.012466 72.651512,171.015198 
z"/>
<path fill="#7BCE83" opacity="1.000000" stroke="none" 
	d="
M405.012482,170.980743 
	C405.451813,170.987610 405.891113,170.994461 406.659607,171.009567 
	C406.326691,173.819778 405.089203,176.621033 405.085815,179.423782 
	C404.974762,272.080902 404.981903,364.738159 404.541992,457.879242 
	C397.254333,456.515961 390.245361,455.090576 383.580536,452.704041 
	C376.813354,450.280823 371.682343,445.842560 369.779022,438.289734 
	C367.721527,430.125061 365.383484,422.015472 362.729156,414.027557 
	C362.057587,412.006500 359.716827,410.540100 358.116028,408.367249 
	C358.070709,337.653107 358.055206,267.390533 358.023926,197.127975 
	C358.022736,194.468109 357.869049,191.808289 358.160950,189.073471 
	C360.941284,187.976776 363.318512,186.880402 365.757690,185.945770 
	C378.834076,180.935211 391.925964,175.964935 405.012482,170.980743 
z"/>
<path fill="#FCFEFD" opacity="1.000000" stroke="none" 
	d="
M358.143127,408.818848 
	C359.716827,410.540100 362.057587,412.006500 362.729156,414.027557 
	C365.383484,422.015472 367.721527,430.125061 369.779022,438.289734 
	C371.682343,445.842560 376.813354,450.280823 383.580536,452.704041 
	C390.245361,455.090576 397.254333,456.515961 404.520844,458.371277 
	C407.663574,459.738037 410.397766,461.096558 413.291077,463.081390 
	C412.134583,465.720428 410.819031,467.733154 409.503510,469.745850 
	C408.192505,470.036041 406.881500,470.326202 404.875977,470.770752 
	C398.108673,472.755188 392.035980,474.585327 385.636719,476.357361 
	C384.895477,476.438080 384.480774,476.576904 383.782227,476.585876 
	C382.838470,476.878052 382.178558,477.300110 381.176392,477.745880 
	C375.128052,480.566650 371.634216,485.246338 369.826416,491.178650 
	C367.411804,499.102295 365.408966,507.158142 362.764954,515.000671 
	C362.047363,517.129211 359.657745,518.694031 358.035522,520.517578 
	C356.439514,518.655151 354.096802,517.040955 353.380707,514.886169 
	C350.717224,506.871338 348.731964,498.633270 346.174988,490.579681 
	C345.366028,488.031830 343.566132,485.798615 342.093689,483.142883 
	C337.489929,480.460175 333.212677,477.506042 328.486511,475.783783 
	C321.812012,473.351440 314.713776,472.095367 307.992310,469.770844 
	C305.729645,468.988403 304.063599,466.480743 302.124878,464.761597 
	C303.980042,463.149841 305.582062,460.780365 307.735352,460.060883 
	C315.911896,457.328827 324.395691,455.487976 332.495209,452.567017 
	C336.028625,451.292755 339.854126,448.858124 341.918060,445.837494 
	C348.976532,435.507324 350.813110,423.249908 353.446533,411.159058 
	C354.522949,410.402954 355.298584,409.738831 356.422363,409.063110 
	C357.228058,408.973969 357.685577,408.896393 358.143127,408.818848 
z"/>
<path fill="#82D08A" opacity="1.000000" stroke="none" 
	d="
M385.963287,476.415466 
	C392.035980,474.585327 398.108673,472.755188 404.589355,470.954956 
	C405.613495,475.394592 406.229736,479.804382 406.907471,484.589813 
	C406.531891,484.975250 406.094727,484.985077 405.106201,484.724365 
	C401.189819,483.197906 397.772308,482.064362 394.475616,480.649292 
	C391.568085,479.401306 388.795471,477.838989 385.963287,476.415466 
z"/>
<path fill="#82D08A" opacity="1.000000" stroke="none" 
	d="
M409.903076,469.805054 
	C410.819031,467.733154 412.134583,465.720428 413.567719,463.325378 
	C415.681366,466.776733 414.226349,468.923737 409.903076,469.805054 
z"/>
<path fill="#7ACE82" opacity="1.000000" stroke="none" 
	d="
M154.910339,584.380798 
	C160.738037,571.712769 166.516846,559.371460 172.369110,547.065002 
	C174.601837,542.369934 177.002960,537.755005 180.058090,532.866577 
	C182.567780,532.411377 184.346008,532.010864 186.125748,532.003967 
	C199.681885,531.951294 213.238480,532.005981 226.794479,531.937988 
	C228.535614,531.929260 230.274200,531.407227 232.432953,531.120056 
	C235.151718,531.378540 237.450745,531.858643 239.751419,531.866760 
	C257.721008,531.929871 275.690948,531.924072 293.660614,531.868652 
	C295.450806,531.863159 297.239563,531.385437 299.071289,531.491211 
	C299.920074,534.188904 300.519592,536.619934 301.566467,538.839966 
	C308.683258,553.931824 315.894379,568.979187 323.075043,584.040955 
	C323.376190,585.130188 323.677307,586.219421 324.016785,587.649414 
	C267.668549,587.993164 211.281937,587.996094 154.420624,587.994751 
	C154.260864,586.900757 154.575806,585.811035 154.910339,584.380798 
z"/>
<path fill="#7ACE82" opacity="1.000000" stroke="none" 
	d="
M179.954102,123.006439 
	C178.329788,120.384827 176.440338,117.889091 175.125763,115.120407 
	C168.416870,100.990585 161.856445,86.790253 155.085083,72.287209 
	C154.625397,70.870926 154.324722,69.782028 153.984970,68.351349 
	C210.332428,68.006721 266.718964,68.003868 323.580322,68.005394 
	C323.744629,69.099365 323.434113,70.188957 322.940796,71.946686 
	C319.463684,79.633118 316.088776,86.614952 312.894165,93.678352 
	C308.205505,104.045120 303.645782,114.470207 298.631836,124.756874 
	C287.489319,124.747620 276.746124,124.851929 265.700317,124.670410 
	C263.591064,124.264481 261.784546,124.041702 259.977814,124.039871 
	C236.757004,124.016319 213.536026,123.994606 190.315384,124.063370 
	C187.533859,124.071609 184.753906,124.614937 181.852325,124.652359 
	C181.138977,123.931793 180.546539,123.469116 179.954102,123.006439 
z"/>
<path fill="#6CBF75" opacity="1.000000" stroke="none" 
	d="
M299.031128,124.870438 
	C303.645782,114.470207 308.205505,104.045120 312.894165,93.678352 
	C316.088776,86.614952 319.463684,79.633118 322.917725,72.287819 
	C326.810364,75.595764 330.832855,78.980705 334.224823,82.909935 
	C347.289520,98.043968 360.191559,113.319160 373.078125,128.605896 
	C383.087463,140.479446 393.041077,152.401474 402.857269,164.434296 
	C404.082336,165.936035 404.313721,168.248474 405.009033,170.583008 
	C391.925964,175.964935 378.834076,180.935211 365.757690,185.945770 
	C363.318512,186.880402 360.941284,187.976776 357.831787,189.022186 
	C353.931427,185.711884 350.572388,182.517380 347.566101,179.019730 
	C334.466125,163.778534 321.542999,148.384735 308.372894,133.204910 
	C305.660370,130.078506 302.165405,127.630920 299.031128,124.870438 
z"/>
<path fill="#6DBF76" opacity="1.000000" stroke="none" 
	d="
M323.412354,583.990601 
	C315.894379,568.979187 308.683258,553.931824 301.566467,538.839966 
	C300.519592,536.619934 299.920074,534.188904 299.430817,531.433228 
	C301.111664,530.160950 302.777527,529.573059 303.783234,528.412842 
	C307.033234,524.663574 309.924988,520.604492 313.162964,516.843994 
	C322.795288,505.657257 332.526917,494.556030 342.219757,483.421387 
	C343.566132,485.798615 345.366028,488.031830 346.174988,490.579681 
	C348.731964,498.633270 350.717224,506.871338 353.380707,514.886169 
	C354.096802,517.040955 356.439514,518.655151 358.035522,520.517578 
	C359.657745,518.694031 362.047363,517.129211 362.764954,515.000671 
	C365.408966,507.158142 367.411804,499.102295 369.826416,491.178650 
	C371.634216,485.246338 375.128052,480.566650 381.487244,477.817810 
	C382.782227,477.482544 383.424133,477.099121 384.066040,476.715698 
	C384.480774,476.576904 384.895477,476.438080 385.636719,476.357361 
	C388.795471,477.838989 391.568085,479.401306 394.475616,480.649292 
	C397.772308,482.064362 401.189819,483.197906 404.777954,484.729614 
	C403.850708,487.982513 403.378906,491.525177 401.443268,493.847961 
	C384.817810,513.798218 367.934204,533.533447 351.113739,553.321045 
	C343.291412,562.523193 335.464874,571.722107 327.567413,580.859558 
	C326.515228,582.076965 325.032806,582.922485 323.412354,583.990601 
z"/>
<path fill="#7FCF87" opacity="1.000000" stroke="none" 
	d="
M125.978317,236.195648 
	C126.417221,236.157532 126.856117,236.119400 127.632660,236.573563 
	C127.981224,239.397827 128.001633,241.729797 128.001678,244.061783 
	C128.003372,315.856140 127.993393,387.650513 128.051666,459.444855 
	C128.053345,461.507782 128.110428,464.104065 129.268646,465.547180 
	C137.566620,475.886200 146.147415,485.998566 154.657013,496.167297 
	C163.379990,506.591003 172.142548,516.981812 180.782852,527.473450 
	C181.086746,527.842468 180.268311,529.135742 179.972961,529.998291 
	C175.405045,525.159790 170.666931,520.469177 166.304764,515.451782 
	C157.315475,505.112366 148.520157,494.604126 139.658493,484.153931 
	C135.068024,478.740540 130.521652,473.289673 125.913086,467.891815 
	C125.301926,467.175964 124.440475,466.673798 123.348602,466.030212 
	C123.002251,465.987793 122.997879,465.501221 123.393936,465.164734 
	C124.193222,462.829285 124.947304,460.830566 124.948990,458.831238 
	C125.009445,386.885712 124.990761,314.940125 125.040825,242.994598 
	C125.042397,240.728058 125.652107,238.461960 125.978317,236.195648 
z"/>
<path fill="#8CD694" opacity="1.000000" stroke="none" 
	d="
M125.646942,236.085678 
	C125.652107,238.461960 125.042397,240.728058 125.040825,242.994598 
	C124.990761,314.940125 125.009445,386.885712 124.948990,458.831238 
	C124.947304,460.830566 124.193222,462.829285 123.392090,464.921448 
	C122.997574,390.991394 122.999985,316.968140 123.009102,242.944885 
	C123.009369,240.783615 123.080521,238.622345 123.211143,235.947159 
	C123.974304,235.614075 124.644943,235.794891 125.646942,236.085678 
z"/>
<path fill="#9EDDA6" opacity="1.000000" stroke="none" 
	d="
M179.983276,530.371948 
	C180.268311,529.135742 181.086746,527.842468 180.782852,527.473450 
	C172.142548,516.981812 163.379990,506.591003 154.657013,496.167297 
	C146.147415,485.998566 137.566620,475.886200 129.268646,465.547180 
	C128.110428,464.104065 128.053345,461.507782 128.051666,459.444855 
	C127.993393,387.650513 128.003372,315.856140 128.001678,244.061783 
	C128.001633,241.729797 127.981224,239.397827 127.961853,236.611237 
	C130.257858,230.808578 132.783813,225.542419 134.801315,220.088211 
	C136.632935,215.136505 137.821289,209.950806 139.459305,204.922363 
	C141.004379,200.179138 144.313217,197.172943 149.108673,195.729004 
	C157.512054,193.198700 165.960846,190.789291 174.241547,187.901794 
	C176.390350,187.152512 177.986694,184.818939 179.836792,183.213074 
	C177.899078,181.504654 176.234512,179.021301 173.975311,178.225021 
	C165.242386,175.146927 156.319794,172.606979 147.300873,169.298141 
	C156.691528,157.372849 166.329315,146.081787 175.751709,134.613770 
	C178.174026,131.665588 179.917770,128.159851 181.973236,124.910248 
	C184.753906,124.614937 187.533859,124.071609 190.315384,124.063370 
	C213.536026,123.994606 236.757004,124.016319 259.977814,124.039871 
	C261.784546,124.041702 263.591064,124.264481 265.698730,125.051071 
	C265.101532,127.838455 264.416718,130.084137 263.263702,132.056076 
	C260.182831,137.325272 256.517609,142.283646 253.778854,147.715576 
	C248.125290,158.928680 242.280121,170.115906 237.684174,181.775131 
	C230.595612,199.757660 223.726501,217.898010 218.163971,236.392380 
	C211.489243,258.584656 206.798508,281.321686 204.905762,304.516083 
	C203.545868,321.180786 201.902939,337.837280 201.158066,354.531860 
	C200.692993,364.955902 201.342438,375.466034 202.062988,385.898102 
	C203.169266,401.914429 203.871338,418.039490 206.390594,433.856293 
	C209.326187,452.286957 213.443924,470.589233 218.159027,488.657471 
	C221.911911,503.038483 227.333298,516.984070 232.013962,531.122986 
	C230.274200,531.407227 228.535614,531.929260 226.794479,531.937988 
	C213.238480,532.005981 199.681885,531.951294 186.125748,532.003967 
	C184.346008,532.010864 182.567780,532.411377 180.414658,532.808105 
	C180.024857,532.239624 180.009232,531.492676 179.983276,530.371948 
z"/>
<path fill="#82CF8A" opacity="1.000000" stroke="none" 
	d="
M181.852325,124.652359 
	C179.917770,128.159851 178.174026,131.665588 175.751709,134.613770 
	C166.329315,146.081787 156.691528,157.372849 147.015228,169.086792 
	C145.996979,168.950775 145.097382,168.457703 144.041687,167.702972 
	C151.032700,159.017792 158.253662,150.655472 165.301956,142.150055 
	C170.306885,136.110443 175.078857,129.877762 179.954468,123.368851 
	C180.546539,123.469116 181.138977,123.931793 181.852325,124.652359 
z"/>
<path fill="#BAE7C0" opacity="1.000000" stroke="none" 
	d="
M232.432953,531.120056 
	C227.333298,516.984070 221.911911,503.038483 218.159027,488.657471 
	C213.443924,470.589233 209.326187,452.286957 206.390594,433.856293 
	C203.871338,418.039490 203.169266,401.914429 202.062988,385.898102 
	C201.342438,375.466034 200.692993,364.955902 201.158066,354.531860 
	C201.902939,337.837280 203.545868,321.180786 204.905762,304.516083 
	C206.798508,281.321686 211.489243,258.584656 218.163971,236.392380 
	C223.726501,217.898010 230.595612,199.757660 237.684174,181.775131 
	C242.280121,170.115906 248.125290,158.928680 253.778854,147.715576 
	C256.517609,142.283646 260.182831,137.325272 263.263702,132.056076 
	C264.416718,130.084137 265.101532,127.838455 266.001373,125.336906 
	C276.746124,124.851929 287.489319,124.747620 298.631805,124.756874 
	C302.165405,127.630920 305.660370,130.078506 308.372894,133.204910 
	C321.542999,148.384735 334.466125,163.778534 347.566101,179.019730 
	C350.572388,182.517380 353.931427,185.711884 357.457275,189.097168 
	C357.869049,191.808289 358.022736,194.468109 358.023926,197.127975 
	C358.055206,267.390533 358.070709,337.653107 358.116028,408.367249 
	C357.685577,408.896393 357.228058,408.973969 356.114227,408.765015 
	C355.305267,406.505219 355.019867,404.532043 355.019196,402.558777 
	C354.996185,334.059021 355.002380,265.559265 354.987000,197.059494 
	C354.986603,195.239731 354.793854,193.419998 354.690796,191.600250 
	C354.127197,191.621460 353.563599,191.642670 353.000000,191.663879 
	C353.000000,193.528473 353.000000,195.393066 353.000000,197.257660 
	C353.000000,258.924103 352.993744,320.590576 353.006531,382.257019 
	C353.008514,391.921722 353.097137,401.586395 353.145721,411.251099 
	C350.813110,423.249908 348.976532,435.507324 341.918060,445.837494 
	C339.854126,448.858124 336.028625,451.292755 332.495209,452.567017 
	C324.395691,455.487976 315.911896,457.328827 307.735352,460.060883 
	C305.582062,460.780365 303.980042,463.149841 302.124878,464.761597 
	C304.063599,466.480743 305.729645,468.988403 307.992310,469.770844 
	C314.713776,472.095367 321.812012,473.351440 328.486511,475.783783 
	C333.212677,477.506042 337.489929,480.460175 342.093689,483.142883 
	C332.526917,494.556030 322.795288,505.657257 313.162964,516.843994 
	C309.924988,520.604492 307.033234,524.663574 303.783234,528.412842 
	C302.777527,529.573059 301.111664,530.160950 299.388519,531.068909 
	C297.239563,531.385437 295.450806,531.863159 293.660614,531.868652 
	C275.690948,531.924072 257.721008,531.929871 239.751419,531.866760 
	C237.450745,531.858643 235.151718,531.378540 232.432953,531.120056 
z"/>
<path fill="#C3EAC9" opacity="1.000000" stroke="none" 
	d="
M353.446533,411.159058 
	C353.097137,401.586395 353.008514,391.921722 353.006531,382.257019 
	C352.993744,320.590576 353.000000,258.924103 353.000000,197.257660 
	C353.000000,195.393066 353.000000,193.528473 353.000000,191.663879 
	C353.563599,191.642670 354.127197,191.621460 354.690796,191.600250 
	C354.793854,193.419998 354.986603,195.239731 354.987000,197.059494 
	C355.002380,265.559265 354.996185,334.059021 355.019196,402.558777 
	C355.019867,404.532043 355.305267,406.505219 355.766052,408.776581 
	C355.298584,409.738831 354.522949,410.402954 353.446533,411.159058 
z"/>
<path fill="#82D08A" opacity="1.000000" stroke="none" 
	d="
M383.782227,476.585846 
	C383.424133,477.099121 382.782227,477.482544 381.829468,477.794067 
	C382.178558,477.300110 382.838470,476.878052 383.782227,476.585846 
z"/>
</svg>