<svg version="1.1" id="Layer_1" xmlns="http://www.w3.org/2000/svg" xmlns:xlink="http://www.w3.org/1999/xlink" x="0px" y="0px"
	 width="100%" viewBox="0 0 1024 1024" enable-background="new 0 0 1024 1024" xml:space="preserve">
<path fill="none" opacity="1.000000" stroke="none" 
	d="
M674.000000,1025.000000 
	C449.333344,1025.000000 225.166672,1025.000000 1.000000,1025.000000 
	C1.000000,683.666687 1.000000,342.333344 1.000000,1.000000 
	C342.333344,1.000000 683.666687,1.000000 1025.000000,1.000000 
	C1025.000000,342.333344 1025.000000,683.666687 1025.000000,1025.000000 
	C908.166687,1025.000000 791.333313,1025.000000 674.000000,1025.000000 
M351.068665,710.693115 
	C382.192017,748.442383 413.289093,786.213379 444.447723,823.933472 
	C465.957031,849.972290 487.551605,875.940613 509.314514,902.564453 
	C512.174438,906.821289 513.597961,903.937805 515.653076,900.972168 
	C518.767151,897.283875 521.916443,893.624695 524.989990,889.902954 
	C562.194580,844.852417 599.404480,799.806335 636.579285,754.731262 
	C670.364075,713.766541 704.100281,672.761780 737.871582,631.785950 
	C766.668152,596.846130 795.466736,561.908020 824.296204,526.995361 
	C854.289429,490.673370 884.332642,454.392548 914.272400,418.026489 
	C915.093384,417.029144 914.978882,415.261597 915.080933,413.186676 
	C914.592529,412.316528 914.173218,411.398254 913.605713,410.583160 
	C894.689880,383.412933 875.759888,356.252533 857.392151,328.465393 
	C862.654846,327.942230 867.924561,327.481232 873.178955,326.885162 
	C896.367371,324.254608 919.555298,321.618317 942.730286,318.873352 
	C944.816345,318.626282 946.808411,317.585907 948.844055,316.913940 
	C948.777588,316.337494 948.711121,315.761047 948.644653,315.184601 
	C914.861389,311.178070 881.078125,307.171570 846.491638,303.069794 
	C847.611084,301.333221 847.992981,300.640167 848.468201,300.018433 
	C857.134216,288.680664 865.859863,277.387817 874.422913,265.972961 
	C875.453979,264.598541 875.617371,262.573151 876.182861,260.849457 
	C874.466003,261.446594 872.426331,261.639435 871.086914,262.709167 
	C864.476318,267.988586 858.094543,273.553314 851.546997,278.913483 
	C846.100281,283.372620 840.535706,287.687744 834.048767,292.840790 
	C830.327148,254.765152 826.743347,217.949814 821.204773,181.294113 
	C819.957520,182.109940 819.228394,182.889587 819.137268,183.737793 
	C817.721436,196.906342 816.393066,210.084259 815.034363,223.258972 
	C813.930237,233.965164 812.814758,244.670181 811.700378,255.375305 
	C810.466736,267.226562 809.228699,279.077393 807.307617,290.887634 
	C799.513672,285.897247 791.719727,280.906830 783.462402,275.459259 
	C777.686401,270.913666 771.910400,266.368042 766.134338,261.822418 
	C765.867432,262.157715 765.600525,262.492981 765.333618,262.828278 
	C765.854065,264.513550 766.374512,266.198822 766.157776,267.831268 
	C763.465210,267.181763 760.772583,266.532257 757.128540,265.811920 
	C744.983459,265.788940 732.838318,265.769318 720.693237,265.742462 
	C649.085815,265.583984 577.478516,265.403992 505.871002,265.273529 
	C475.063141,265.217407 444.254639,265.156158 413.447205,265.286407 
	C363.988434,265.495575 314.530334,265.861908 264.319427,266.019836 
	C263.217194,266.344757 262.036255,266.512146 261.024200,267.017609 
	C235.727676,279.652130 210.436752,292.298126 185.194427,305.040314 
	C183.509521,305.890839 182.216827,307.518372 180.239868,309.223114 
	C165.316925,330.894287 150.385559,352.559692 135.474243,374.238892 
	C126.616684,387.116669 117.790695,400.016144 108.388855,413.381866 
	C108.918365,415.109894 108.987717,417.213440 110.045845,418.510101 
	C128.370224,440.965454 146.794800,463.339264 165.240189,485.695679 
	C199.053589,526.678589 232.875351,567.654541 266.737396,608.597229 
	C276.069092,619.880249 285.555634,631.035156 294.951294,642.861389 
	C293.979675,646.394592 292.366577,643.564880 291.577850,642.964661 
	C282.467438,636.031189 273.486755,628.927368 264.392670,621.971985 
	C263.065704,620.957092 261.326935,620.480713 259.778687,619.755188 
	C259.370697,620.293762 258.962738,620.832397 258.554749,621.370972 
	C267.154968,631.811584 275.755188,642.252197 285.160187,653.669800 
	C255.463852,656.794983 227.360443,659.752441 199.257019,662.709961 
	C199.246292,663.666321 199.235580,664.622681 199.224854,665.579041 
	C227.331009,669.268677 255.437180,672.958313 284.338837,676.752380 
	C275.547577,687.398438 267.127991,697.594421 258.708435,707.790344 
	C259.119232,708.321594 259.530060,708.852844 259.940887,709.384094 
	C261.762207,708.587524 263.845001,708.124023 265.358795,706.935669 
	C271.362793,702.222290 277.149719,697.233704 283.095184,692.444092 
	C286.873840,689.400085 290.790192,686.526978 295.457764,682.955139 
	C298.769348,713.187195 301.936310,742.099182 305.103302,771.011230 
	C305.972961,771.021973 306.842651,771.032776 307.712311,771.043579 
	C312.108612,742.927917 313.484924,714.366211 318.383942,685.485107 
	C329.651093,694.080750 340.168365,702.104309 351.068665,710.693115 
z"/>
<path fill="#6FD4FF" opacity="1.000000" stroke="none" 
	d="
M515.091431,901.402283 
	C513.597961,903.937805 512.174438,906.821289 509.436462,902.087280 
	C509.699371,901.080750 509.840302,900.551331 510.235413,899.811279 
	C506.459930,885.315369 502.274292,871.071716 498.436127,856.735107 
	C492.226685,833.541077 486.039703,810.337280 480.217163,787.044189 
	C471.827454,753.481018 463.826294,719.820923 455.554871,686.227966 
	C450.529907,665.820007 445.173737,645.493225 440.206451,625.071533 
	C432.778961,594.535217 425.555725,563.949280 418.259460,533.381104 
	C413.764313,514.548340 409.336456,495.699432 404.801697,476.876251 
	C400.653137,459.656067 396.606628,442.406921 392.115417,425.275330 
	C389.569183,415.562866 389.207306,415.658997 379.458679,415.986115 
	C378.793030,416.008453 378.126038,415.991302 377.459656,415.991333 
	C345.140625,415.992920 312.821594,415.998962 280.502563,415.983063 
	C278.770294,415.982239 277.038116,415.796692 273.993256,415.621643 
	C275.688995,413.399261 276.475311,412.031189 277.572723,410.991455 
	C281.428345,407.338531 285.370575,403.775970 289.316437,400.219604 
	C305.954437,385.223938 322.604309,370.241394 339.252655,355.257233 
	C345.046875,350.042236 350.963531,344.956970 356.621338,339.598267 
	C365.177643,331.494263 373.556305,323.202698 382.380432,314.992615 
	C383.489594,314.987793 384.228790,314.981232 385.006836,315.323364 
	C390.755737,320.618469 396.269012,325.816406 402.211700,330.465485 
	C422.412811,346.269348 442.709961,361.952057 463.078735,377.539520 
	C478.062775,389.006287 493.179016,400.302032 508.353577,411.515381 
	C509.811920,412.593048 512.102234,412.544861 514.096680,413.414001 
	C515.686890,414.205750 517.184998,414.939667 518.687012,414.947968 
	C534.083252,415.032837 549.480164,415.000000 564.876892,415.000000 
	C586.315063,415.000000 607.753357,414.974548 629.191345,415.043152 
	C631.125305,415.049316 633.057312,415.662018 634.839478,416.349365 
	C632.593140,425.549011 630.558350,434.407166 628.390930,443.232788 
	C621.129700,472.799774 613.799377,502.349792 606.536682,531.916382 
	C598.839172,563.253052 591.254333,594.617615 583.491821,625.938171 
	C579.195374,643.273926 574.471008,660.504211 570.232483,677.853577 
	C563.283142,706.299011 556.712646,734.837280 549.717102,763.271057 
	C544.063599,786.250488 538.072937,809.147644 532.128906,832.054626 
	C528.223938,847.103699 524.090759,862.093323 520.149719,877.133240 
	C518.331726,884.071228 516.729126,891.065674 515.021484,898.453247 
	C515.039917,899.715454 515.065674,900.558838 515.091431,901.402283 
z"/>
<path fill="#87DDFF" opacity="1.000000" stroke="none" 
	d="
M515.028809,898.034546 
	C516.729126,891.065674 518.331726,884.071228 520.149719,877.133240 
	C524.090759,862.093323 528.223938,847.103699 532.128906,832.054626 
	C538.072937,809.147644 544.063599,786.250488 549.717102,763.271057 
	C556.712646,734.837280 563.283142,706.299011 570.232483,677.853577 
	C574.471008,660.504211 579.195374,643.273926 583.491821,625.938171 
	C591.254333,594.617615 598.839172,563.253052 606.536682,531.916382 
	C613.799377,502.349792 621.129700,472.799774 628.390930,443.232788 
	C630.558350,434.407166 632.593140,425.549011 635.309204,416.347260 
	C673.439575,415.797089 710.949402,415.605408 748.459167,415.413727 
	C748.629089,414.884521 748.799072,414.355316 748.968994,413.826141 
	C747.806213,412.543030 746.736938,411.158020 745.466187,409.992645 
	C733.846375,399.336121 722.266663,388.633911 710.529236,378.107880 
	C692.626587,362.053009 674.598450,346.138123 656.645203,330.139557 
	C652.556030,326.495667 648.646118,322.645538 644.472656,319.103668 
	C642.586121,317.502625 640.722473,315.419586 637.617981,317.848602 
	C613.747681,336.524597 589.827148,355.137451 565.816772,373.632965 
	C548.631042,386.871307 531.282288,399.898102 514.006287,413.019348 
	C512.102234,412.544861 509.811920,412.593048 508.353577,411.515381 
	C493.179016,400.302032 478.062775,389.006287 463.078735,377.539520 
	C442.709961,361.952057 422.412811,346.269348 402.211700,330.465485 
	C396.269012,325.816406 390.755737,320.618469 385.344788,315.186981 
	C396.808350,310.447418 407.974426,306.197266 419.136810,301.937500 
	C447.821289,290.991089 476.536682,280.124237 505.156952,269.012390 
	C510.169342,267.066315 514.610901,267.388031 519.482056,269.248932 
	C558.084778,283.995911 596.771179,298.524567 635.326965,313.392365 
	C639.176819,314.876953 642.188293,314.609711 645.716064,313.156891 
	C679.937439,299.064392 714.204651,285.083038 748.420593,270.977325 
	C751.771057,269.596069 754.866272,267.595703 758.080017,265.882751 
	C760.772583,266.532257 763.465210,267.181763 766.831970,268.032471 
	C774.008850,276.162964 780.513062,284.091095 787.013672,292.022095 
	C789.993774,295.657867 792.966858,299.299408 796.724915,303.894257 
	C786.644226,304.730408 777.783569,305.329102 768.953552,306.228485 
	C754.327026,307.718323 739.723633,309.434326 725.103821,310.992310 
	C715.077942,312.060760 705.036133,312.981842 695.016235,314.101105 
	C694.096313,314.203827 693.283875,315.268463 692.421509,315.886444 
	C693.210327,316.568878 693.927795,317.718842 694.800415,317.852020 
	C698.390869,318.400116 702.029785,318.625671 705.648376,318.994659 
	C716.174133,320.067871 726.706726,321.081390 737.221802,322.251251 
	C750.848206,323.767303 764.461731,325.399475 778.077881,327.006500 
	C783.987488,327.703949 789.889771,328.463684 796.752563,329.313660 
	C785.504517,343.534729 775.122986,356.660217 764.741455,369.785706 
	C765.298401,370.364685 765.855347,370.943634 766.412231,371.522614 
	C781.340027,361.798676 793.498108,348.343689 809.022461,337.348969 
	C809.022461,341.746490 809.022461,344.859039 808.749268,348.166382 
	C794.131531,365.261627 779.743652,382.125641 765.468689,399.084625 
	C761.132629,404.235809 757.108154,409.649200 752.590698,414.992920 
	C750.774536,417.164886 748.993225,419.135345 747.893005,421.432007 
	C739.557129,438.833221 731.424805,456.332001 723.094482,473.735962 
	C710.096497,500.891663 697.010071,528.005127 683.928772,555.120850 
	C669.320984,585.400940 654.684204,615.667053 640.045532,645.932251 
	C633.095520,660.301208 626.093079,674.644836 619.147278,689.015869 
	C606.772644,714.619263 594.618042,740.331177 582.017517,765.822693 
	C562.989868,804.316711 543.689819,842.676392 524.422485,881.051331 
	C521.522034,886.828308 518.171326,892.379150 515.028809,898.034546 
z"/>
<path fill="#88DDFF" opacity="1.000000" stroke="none" 
	d="
M382.010468,314.990845 
	C373.556305,323.202698 365.177643,331.494263 356.621338,339.598267 
	C350.963531,344.956970 345.046875,350.042236 339.252655,355.257233 
	C322.604309,370.241394 305.954437,385.223938 289.316437,400.219604 
	C285.370575,403.775970 281.428345,407.338531 277.572723,410.991455 
	C276.475311,412.031189 275.688995,413.399261 273.993256,415.621643 
	C277.038116,415.796692 278.770294,415.982239 280.502563,415.983063 
	C312.821594,415.998962 345.140625,415.992920 377.459656,415.991333 
	C378.126038,415.991302 378.793030,416.008453 379.458679,415.986115 
	C389.207306,415.658997 389.569183,415.562866 392.115417,425.275330 
	C396.606628,442.406921 400.653137,459.656067 404.801697,476.876251 
	C409.336456,495.699432 413.764313,514.548340 418.259460,533.381104 
	C425.555725,563.949280 432.778961,594.535217 440.206451,625.071533 
	C445.173737,645.493225 450.529907,665.820007 455.554871,686.227966 
	C463.826294,719.820923 471.827454,753.481018 480.217163,787.044189 
	C486.039703,810.337280 492.226685,833.541077 498.436127,856.735107 
	C502.274292,871.071716 506.459930,885.315369 509.964508,899.602539 
	C471.304199,822.359985 433.168976,745.115662 395.321716,667.608826 
	C402.056305,666.420288 408.502930,665.494202 414.949554,664.568115 
	C414.913300,663.987122 414.877045,663.406128 414.840790,662.825073 
	C413.829926,662.548889 412.835052,662.148865 411.805664,662.016113 
	C404.273376,661.044861 396.734222,660.127197 389.157043,658.788818 
	C388.382294,656.205750 387.869781,653.919495 386.879608,651.863220 
	C372.243378,621.467834 357.538666,591.105347 342.860565,560.730164 
	C328.544464,531.104065 314.231659,501.476288 299.934082,471.841217 
	C291.566101,454.496552 283.266174,437.118958 274.828125,419.808563 
	C273.947601,418.002197 272.336670,416.551910 271.009155,414.597656 
	C265.413116,407.699860 259.880707,401.133789 254.330139,394.583160 
	C243.641190,381.968231 232.941010,369.362854 222.247345,356.751984 
	C213.371368,346.284668 204.551956,335.768738 195.601898,325.365143 
	C190.762680,319.740051 185.702332,314.305206 180.741730,308.784515 
	C182.216827,307.518372 183.509521,305.890839 185.194427,305.040314 
	C210.436752,292.298126 235.727676,279.652130 261.024200,267.017609 
	C262.036255,266.512146 263.217194,266.344757 264.741272,266.429932 
	C266.385193,267.587799 267.530792,268.523407 268.840363,269.055939 
	C306.553680,284.392334 344.283386,299.688324 382.010468,314.990845 
M326.454651,325.836548 
	C329.835632,318.659393 328.551178,313.795197 321.444763,310.827820 
	C305.670837,304.241241 289.734650,298.036743 273.790619,291.867676 
	C268.532349,289.833191 263.103668,291.971832 261.469818,296.151550 
	C259.434540,301.358246 261.852722,307.713013 267.166351,309.855133 
	C282.097748,315.874512 297.139832,321.618744 312.096558,327.576233 
	C316.965942,329.515808 321.459351,328.776489 326.454651,325.836548 
z"/>
<path fill="#58C9FF" opacity="1.000000" stroke="none" 
	d="
M515.021484,898.453247 
	C518.171326,892.379150 521.522034,886.828308 524.422485,881.051331 
	C543.689819,842.676392 562.989868,804.316711 582.017517,765.822693 
	C594.618042,740.331177 606.772644,714.619263 619.147278,689.015869 
	C626.093079,674.644836 633.095520,660.301208 640.045532,645.932251 
	C654.684204,615.667053 669.320984,585.400940 683.928772,555.120850 
	C697.010071,528.005127 710.096497,500.891663 723.094482,473.735962 
	C731.424805,456.332001 739.557129,438.833221 747.893005,421.432007 
	C748.993225,419.135345 750.774536,417.164886 753.065552,415.012573 
	C774.608521,414.982697 795.326233,414.983582 816.044739,415.409271 
	C818.250244,425.364349 817.720520,435.459686 821.840759,444.749542 
	C823.127808,442.573700 823.720276,440.438202 823.991638,438.262726 
	C825.004211,430.144501 825.911560,422.013184 827.251099,414.074371 
	C829.598328,414.507446 831.552429,414.962708 833.507385,414.966614 
	C857.994690,415.015289 882.482239,415.035126 906.969360,414.948334 
	C909.747742,414.938477 912.523560,414.235016 915.300598,413.853180 
	C914.978882,415.261597 915.093384,417.029144 914.272400,418.026489 
	C884.332642,454.392548 854.289429,490.673370 824.296204,526.995361 
	C795.466736,561.908020 766.668152,596.846130 737.871582,631.785950 
	C704.100281,672.761780 670.364075,713.766541 636.579285,754.731262 
	C599.404480,799.806335 562.194580,844.852417 524.989990,889.902954 
	C521.916443,893.624695 518.767151,897.283875 515.372253,901.187256 
	C515.065674,900.558838 515.039917,899.715454 515.021484,898.453247 
M716.985291,624.462646 
	C717.536438,623.633118 718.025513,622.753479 718.647888,621.981384 
	C728.632568,609.595032 738.616272,597.207764 748.640869,584.853760 
	C752.724854,579.820801 752.020935,572.795166 746.887817,568.383423 
	C742.307251,564.446411 736.146484,564.965820 731.763855,569.756226 
	C729.751282,571.956055 727.851379,574.264343 725.982849,576.589661 
	C708.338196,598.547180 690.711914,620.519531 673.079041,642.486511 
	C669.816589,646.550842 669.329712,652.564575 671.959717,656.395691 
	C674.931946,660.725342 680.741760,663.112549 685.395569,660.776917 
	C688.640625,659.148315 691.389893,656.140564 693.776245,653.264099 
	C701.495850,643.959106 708.945618,634.430298 716.985291,624.462646 
M776.012756,549.556335 
	C778.273438,546.918274 780.626953,544.353271 782.773804,541.625610 
	C786.288391,537.160156 785.535156,530.986450 781.107727,526.797852 
	C777.126404,523.031250 770.540649,522.801697 766.732422,526.852844 
	C761.981018,531.907410 757.391968,537.171997 753.266968,542.741577 
	C749.206787,548.223572 750.577271,555.482361 755.697937,559.104248 
	C760.579102,562.556763 767.426453,561.129822 771.524170,555.755432 
	C772.926880,553.915710 774.213135,551.987244 776.012756,549.556335 
z"/>
<path fill="#58C9FF" opacity="1.000000" stroke="none" 
	d="
M271.064636,414.936401 
	C272.336670,416.551910 273.947601,418.002197 274.828125,419.808563 
	C283.266174,437.118958 291.566101,454.496552 299.934082,471.841217 
	C314.231659,501.476288 328.544464,531.104065 342.860565,560.730164 
	C357.538666,591.105347 372.243378,621.467834 386.879608,651.863220 
	C387.869781,653.919495 388.382294,656.205750 388.673035,658.759521 
	C368.214783,657.640320 348.200409,656.146729 327.434784,654.597046 
	C328.491180,652.777893 328.931763,651.740173 329.610596,650.893433 
	C336.563873,642.219910 343.599274,633.611816 350.495148,624.893250 
	C351.676361,623.399780 352.308228,621.471802 353.193878,619.744507 
	C352.693573,619.341187 352.193298,618.937866 351.692993,618.534485 
	C340.522583,627.475586 329.352142,636.416687 317.587738,645.833191 
	C312.887970,614.759094 312.165466,584.645935 307.006958,555.006531 
	C305.831818,555.532288 305.269226,556.014832 305.194397,556.563843 
	C303.764587,567.054138 302.185272,577.530151 301.057770,588.054138 
	C299.471558,602.860107 298.284790,617.708496 296.796753,632.525635 
	C296.468414,635.794861 295.594025,639.009277 294.971100,642.248901 
	C285.555634,631.035156 276.069092,619.880249 266.737396,608.597229 
	C232.875351,567.654541 199.053589,526.678589 165.240189,485.695679 
	C146.794800,463.339264 128.370224,440.965454 110.045845,418.510101 
	C108.987717,417.213440 108.918365,415.109894 108.932449,413.448181 
	C117.638954,414.008453 125.796043,414.692657 133.966431,414.942505 
	C142.032669,415.189178 150.112320,415.000000 158.186096,414.996002 
	C195.812271,414.977295 233.438461,414.956451 271.064636,414.936401 
z"/>
<path fill="#59C9FF" opacity="1.000000" stroke="none" 
	d="
M382.380432,314.992615 
	C344.283386,299.688324 306.553680,284.392334 268.840363,269.055939 
	C267.530792,268.523407 266.385193,267.587799 265.117554,266.500916 
	C314.530334,265.861908 363.988434,265.495575 413.447205,265.286407 
	C444.254639,265.156158 475.063141,265.217407 505.871002,265.273529 
	C577.478516,265.403992 649.085815,265.583984 720.693237,265.742462 
	C732.838318,265.769318 744.983459,265.788940 757.604248,265.847351 
	C754.866272,267.595703 751.771057,269.596069 748.420593,270.977325 
	C714.204651,285.083038 679.937439,299.064392 645.716064,313.156891 
	C642.188293,314.609711 639.176819,314.876953 635.326965,313.392365 
	C596.771179,298.524567 558.084778,283.995911 519.482056,269.248932 
	C514.610901,267.388031 510.169342,267.066315 505.156952,269.012390 
	C476.536682,280.124237 447.821289,290.991089 419.136810,301.937500 
	C407.974426,306.197266 396.808350,310.447418 385.305969,314.838318 
	C384.228790,314.981232 383.489594,314.987793 382.380432,314.992615 
z"/>
<path fill="#B2ECFF" opacity="1.000000" stroke="none" 
	d="
M826.858398,413.886780 
	C825.911560,422.013184 825.004211,430.144501 823.991638,438.262726 
	C823.720276,440.438202 823.127808,442.573700 821.840759,444.749542 
	C817.720520,435.459686 818.250244,425.364349 816.048706,414.957153 
	C814.624634,398.337952 813.292969,382.586151 811.723083,366.858154 
	C811.092041,360.535767 809.938293,354.265564 809.022461,347.971588 
	C809.022461,344.859039 809.022461,341.746490 809.022461,337.348969 
	C793.498108,348.343689 781.340027,361.798676 766.412231,371.522614 
	C765.855347,370.943634 765.298401,370.364685 764.741455,369.785706 
	C775.122986,356.660217 785.504517,343.534729 796.752563,329.313660 
	C789.889771,328.463684 783.987488,327.703949 778.077881,327.006500 
	C764.461731,325.399475 750.848206,323.767303 737.221802,322.251251 
	C726.706726,321.081390 716.174133,320.067871 705.648376,318.994659 
	C702.029785,318.625671 698.390869,318.400116 694.800415,317.852020 
	C693.927795,317.718842 693.210327,316.568878 692.421509,315.886444 
	C693.283875,315.268463 694.096313,314.203827 695.016235,314.101105 
	C705.036133,312.981842 715.077942,312.060760 725.103821,310.992310 
	C739.723633,309.434326 754.327026,307.718323 768.953552,306.228485 
	C777.783569,305.329102 786.644226,304.730408 796.724915,303.894257 
	C792.966858,299.299408 789.993774,295.657867 787.013672,292.022095 
	C780.513062,284.091095 774.008850,276.162964 767.200562,268.058868 
	C766.374512,266.198822 765.854065,264.513550 765.333618,262.828278 
	C765.600525,262.492981 765.867432,262.157715 766.134338,261.822418 
	C771.910400,266.368042 777.686401,270.913666 783.753479,276.041901 
	C790.984497,282.168549 797.845154,287.816467 804.906250,293.201599 
	C807.461182,295.150116 807.941345,293.036743 807.992554,290.928406 
	C809.228699,279.077393 810.466736,267.226562 811.700378,255.375305 
	C812.814758,244.670181 813.930237,233.965164 815.034363,223.258972 
	C816.393066,210.084259 817.721436,196.906342 819.137268,183.737793 
	C819.228394,182.889587 819.957520,182.109940 821.204773,181.294113 
	C826.743347,217.949814 830.327148,254.765152 834.048767,292.840790 
	C840.535706,287.687744 846.100281,283.372620 851.546997,278.913483 
	C858.094543,273.553314 864.476318,267.988586 871.086914,262.709167 
	C872.426331,261.639435 874.466003,261.446594 876.182861,260.849457 
	C875.617371,262.573151 875.453979,264.598541 874.422913,265.972961 
	C865.859863,277.387817 857.134216,288.680664 848.468201,300.018433 
	C847.992981,300.640167 847.611084,301.333221 846.491638,303.069794 
	C881.078125,307.171570 914.861389,311.178070 948.644653,315.184601 
	C948.711121,315.761047 948.777588,316.337494 948.844055,316.913940 
	C946.808411,317.585907 944.816345,318.626282 942.730286,318.873352 
	C919.555298,321.618317 896.367371,324.254608 873.178955,326.885162 
	C867.924561,327.481232 862.654846,327.942230 856.764404,328.593628 
	C851.882568,328.721893 847.628418,328.721893 843.374268,328.721893 
	C854.956055,343.388458 867.481079,355.897461 877.440308,370.683167 
	C861.512329,362.396210 848.663574,349.982147 833.312439,339.137085 
	C831.093689,364.834167 828.976074,389.360474 826.858398,413.886780 
z"/>
<path fill="#59C9FF" opacity="1.000000" stroke="none" 
	d="
M395.033752,667.871338 
	C433.168976,745.115662 471.304199,822.359985 509.710327,899.813110 
	C509.840302,900.551331 509.699371,901.080750 509.333221,901.775269 
	C487.551605,875.940613 465.957031,849.972290 444.447723,823.933472 
	C413.289093,786.213379 382.192017,748.442383 350.950012,710.016235 
	C350.280731,707.497559 350.178406,705.319458 349.096100,703.876343 
	C345.724274,699.380188 341.932831,695.201660 338.395752,690.825867 
	C334.744507,686.308838 331.200714,681.705017 326.858398,676.183655 
	C330.295258,675.620972 332.183990,675.239441 334.091095,675.011780 
	C343.585175,673.878418 353.084503,672.788574 362.581268,671.677673 
	C373.399139,670.412170 384.216278,669.140381 395.033752,667.871338 
z"/>
<path fill="#69D1FF" opacity="1.000000" stroke="none" 
	d="
M271.009155,414.597656 
	C233.438461,414.956451 195.812271,414.977295 158.186096,414.996002 
	C150.112320,415.000000 142.032669,415.189178 133.966431,414.942505 
	C125.796043,414.692657 117.638954,414.008453 109.213280,413.210205 
	C117.790695,400.016144 126.616684,387.116669 135.474243,374.238892 
	C150.385559,352.559692 165.316925,330.894287 180.490799,309.003815 
	C185.702332,314.305206 190.762680,319.740051 195.601898,325.365143 
	C204.551956,335.768738 213.371368,346.284668 222.247345,356.751984 
	C232.941010,369.362854 243.641190,381.968231 254.330139,394.583160 
	C259.880707,401.133789 265.413116,407.699860 271.009155,414.597656 
z"/>
<path fill="#B2ECFF" opacity="1.000000" stroke="none" 
	d="
M395.321716,667.608887 
	C384.216278,669.140381 373.399139,670.412170 362.581268,671.677673 
	C353.084503,672.788574 343.585175,673.878418 334.091095,675.011780 
	C332.183990,675.239441 330.295258,675.620972 326.858398,676.183655 
	C331.200714,681.705017 334.744507,686.308838 338.395752,690.825867 
	C341.932831,695.201660 345.724274,699.380188 349.096100,703.876343 
	C350.178406,705.319458 350.280731,707.497559 350.758514,709.733643 
	C340.168365,702.104309 329.651093,694.080750 318.383942,685.485107 
	C313.484924,714.366211 312.108612,742.927917 307.712311,771.043579 
	C306.842651,771.032776 305.972961,771.021973 305.103302,771.011230 
	C301.936310,742.099182 298.769348,713.187195 295.457764,682.955139 
	C290.790192,686.526978 286.873840,689.400085 283.095184,692.444092 
	C277.149719,697.233704 271.362793,702.222290 265.358795,706.935669 
	C263.845001,708.124023 261.762207,708.587524 259.940887,709.384094 
	C259.530060,708.852844 259.119232,708.321594 258.708435,707.790344 
	C267.127991,697.594421 275.547577,687.398438 284.338837,676.752380 
	C255.437180,672.958313 227.331009,669.268677 199.224854,665.579041 
	C199.235580,664.622681 199.246292,663.666321 199.257019,662.709961 
	C227.360443,659.752441 255.463852,656.794983 285.160187,653.669800 
	C275.755188,642.252197 267.154968,631.811584 258.554749,621.370972 
	C258.962738,620.832397 259.370697,620.293762 259.778687,619.755188 
	C261.326935,620.480713 263.065704,620.957092 264.392670,621.971985 
	C273.486755,628.927368 282.467438,636.031189 291.577850,642.964661 
	C292.366577,643.564880 293.979675,646.394592 294.961182,642.555176 
	C295.594025,639.009277 296.468414,635.794861 296.796753,632.525635 
	C298.284790,617.708496 299.471558,602.860107 301.057770,588.054138 
	C302.185272,577.530151 303.764587,567.054138 305.194397,556.563843 
	C305.269226,556.014832 305.831818,555.532288 307.006958,555.006531 
	C312.165466,584.645935 312.887970,614.759094 317.587738,645.833191 
	C329.352142,636.416687 340.522583,627.475586 351.692993,618.534485 
	C352.193298,618.937866 352.693573,619.341187 353.193878,619.744507 
	C352.308228,621.471802 351.676361,623.399780 350.495148,624.893250 
	C343.599274,633.611816 336.563873,642.219910 329.610596,650.893433 
	C328.931763,651.740173 328.491180,652.777893 327.434784,654.597046 
	C348.200409,656.146729 368.214783,657.640320 388.713196,659.163208 
	C396.734222,660.127197 404.273376,661.044861 411.805664,662.016113 
	C412.835052,662.148865 413.829926,662.548889 414.840790,662.825073 
	C414.877045,663.406128 414.913300,663.987122 414.949554,664.568115 
	C408.502930,665.494202 402.056305,666.420288 395.321716,667.608887 
z"/>
<path fill="#6AD1FF" opacity="1.000000" stroke="none" 
	d="
M827.251160,414.074371 
	C828.976074,389.360474 831.093689,364.834167 833.312439,339.137085 
	C848.663574,349.982147 861.512329,362.396210 877.440308,370.683167 
	C867.481079,355.897461 854.956055,343.388458 843.374268,328.721893 
	C847.628418,328.721893 851.882568,328.721893 856.484375,328.906311 
	C875.759888,356.252533 894.689880,383.412933 913.605713,410.583160 
	C914.173218,411.398254 914.592529,412.316528 915.190796,413.519928 
	C912.523560,414.235016 909.747742,414.938477 906.969360,414.948334 
	C882.482239,415.035126 857.994690,415.015289 833.507385,414.966614 
	C831.552429,414.962708 829.598328,414.507446 827.251160,414.074371 
z"/>
<path fill="#87DDFF" opacity="1.000000" stroke="none" 
	d="
M807.650085,290.908020 
	C807.941345,293.036743 807.461182,295.150116 804.906250,293.201599 
	C797.845154,287.816467 790.984497,282.168549 783.985168,276.270508 
	C791.719727,280.906830 799.513672,285.897247 807.650085,290.908020 
z"/>
<path fill="#6AD1FF" opacity="1.000000" stroke="none" 
	d="
M514.096680,413.413971 
	C531.282288,399.898102 548.631042,386.871307 565.816772,373.632965 
	C589.827148,355.137451 613.747681,336.524597 637.617981,317.848602 
	C640.722473,315.419586 642.586121,317.502625 644.472656,319.103668 
	C648.646118,322.645538 652.556030,326.495667 656.645203,330.139557 
	C674.598450,346.138123 692.626587,362.053009 710.529236,378.107880 
	C722.266663,388.633911 733.846375,399.336121 745.466187,409.992645 
	C746.736938,411.158020 747.806213,412.543030 748.968994,413.826141 
	C748.799072,414.355316 748.629089,414.884521 748.459167,415.413727 
	C710.949402,415.605408 673.439575,415.797089 635.460022,415.990906 
	C633.057312,415.662018 631.125305,415.049316 629.191345,415.043152 
	C607.753357,414.974548 586.315063,415.000000 564.876892,415.000000 
	C549.480164,415.000000 534.083252,415.032837 518.687012,414.947968 
	C517.184998,414.939667 515.686890,414.205750 514.096680,413.413971 
z"/>
<path fill="#6AD1FF" opacity="1.000000" stroke="none" 
	d="
M808.749268,348.166382 
	C809.938293,354.265564 811.092041,360.535767 811.723083,366.858154 
	C813.292969,382.586151 814.624634,398.337952 816.047974,414.532288 
	C795.326233,414.983582 774.608521,414.982697 753.415894,414.962158 
	C757.108154,409.649200 761.132629,404.235809 765.468689,399.084625 
	C779.743652,382.125641 794.131531,365.261627 808.749268,348.166382 
z"/>
<path fill="#B2ECFF" opacity="1.000000" stroke="none" 
	d="
M326.172272,326.124756 
	C321.459351,328.776489 316.965942,329.515808 312.096558,327.576233 
	C297.139832,321.618744 282.097748,315.874512 267.166351,309.855133 
	C261.852722,307.713013 259.434540,301.358246 261.469818,296.151550 
	C263.103668,291.971832 268.532349,289.833191 273.790619,291.867676 
	C289.734650,298.036743 305.670837,304.241241 321.444763,310.827820 
	C328.551178,313.795197 329.835632,318.659393 326.172272,326.124756 
z"/>
<path fill="#87DDFF" opacity="1.000000" stroke="none" 
	d="
M716.742310,624.725220 
	C708.945618,634.430298 701.495850,643.959106 693.776245,653.264099 
	C691.389893,656.140564 688.640625,659.148315 685.395569,660.776917 
	C680.741760,663.112549 674.931946,660.725342 671.959717,656.395691 
	C669.329712,652.564575 669.816589,646.550842 673.079041,642.486511 
	C690.711914,620.519531 708.338196,598.547180 725.982849,576.589661 
	C727.851379,574.264343 729.751282,571.956055 731.763855,569.756226 
	C736.146484,564.965820 742.307251,564.446411 746.887817,568.383423 
	C752.020935,572.795166 752.724854,579.820801 748.640869,584.853760 
	C738.616272,597.207764 728.632568,609.595032 718.647888,621.981384 
	C718.025513,622.753479 717.536438,623.633118 716.742310,624.725220 
z"/>
<path fill="#87DDFF" opacity="1.000000" stroke="none" 
	d="
M775.782715,549.827881 
	C774.213135,551.987244 772.926880,553.915710 771.524170,555.755432 
	C767.426453,561.129822 760.579102,562.556763 755.697937,559.104248 
	C750.577271,555.482361 749.206787,548.223572 753.266968,542.741577 
	C757.391968,537.171997 761.981018,531.907410 766.732422,526.852844 
	C770.540649,522.801697 777.126404,523.031250 781.107727,526.797852 
	C785.535156,530.986450 786.288391,537.160156 782.773804,541.625610 
	C780.626953,544.353271 778.273438,546.918274 775.782715,549.827881 
z"/>
</svg>