<svg version="1.1" id="Layer_1" xmlns="http://www.w3.org/2000/svg" xmlns:xlink="http://www.w3.org/1999/xlink" x="0px" y="0px"
	 width="100%" viewBox="0 0 512 512" enable-background="new 0 0 512 512" xml:space="preserve">
<path fill="#FFC107" opacity="1.000000" stroke="none" 
	d="
M395.000000,513.000000 
	C303.312439,513.000000 211.624878,513.000000 119.299431,512.642273 
	C117.344177,512.158997 115.961250,512.250610 114.719170,511.875671 
	C91.978790,505.010864 75.227814,484.955536 75.108131,460.812225 
	C74.789665,396.570648 74.919670,332.326263 75.060158,268.083405 
	C75.092529,253.284531 80.230080,240.264008 90.839989,229.677338 
	C98.424255,222.109680 107.488441,217.189423 118.394470,214.985291 
	C129.444016,214.808868 140.058304,214.469498 150.675201,214.266632 
	C161.455551,214.060638 172.238480,213.989365 183.484589,213.917542 
	C194.582108,213.983978 205.215363,214.007996 215.848572,213.997025 
	C254.225616,213.957413 292.602661,213.906036 331.437042,213.977814 
	C353.276154,214.358429 374.657898,214.620331 396.426636,214.944061 
	C405.889587,217.101349 413.989288,221.270782 420.854828,227.448364 
	C432.790619,238.188126 438.900330,251.876892 438.939758,267.870270 
	C439.089539,328.619324 439.028259,389.368988 438.956604,450.118317 
	C438.949402,456.206879 438.704315,462.341858 437.931305,468.373505 
	C436.058105,482.989746 428.606171,494.670593 416.677185,502.836273 
	C410.177765,507.285248 402.271667,509.679199 395.000000,513.000000 
M271.258118,280.066803 
	C244.383621,273.442505 218.227509,286.097534 207.878845,310.731354 
	C197.501678,335.432983 206.508453,362.508575 230.318390,377.335907 
	C233.640305,379.404541 233.032501,381.759125 232.626785,384.541412 
	C230.154480,401.495667 227.643860,418.444580 225.255936,435.410736 
	C224.139008,443.346558 228.764389,448.889252 236.661880,448.963623 
	C250.148346,449.090668 263.637970,449.101440 277.124176,448.960632 
	C285.455780,448.873657 289.968018,443.502289 288.812042,435.193359 
	C286.473969,418.387817 284.152710,401.576782 281.472534,384.824310 
	C280.827637,380.793579 281.542145,378.722473 285.179535,376.442657 
	C299.899689,367.216400 308.590942,353.701019 309.877075,336.366394 
	C311.858673,309.658417 297.669739,289.147888 271.258118,280.066803 
z"/>
<path fill="none" opacity="1.000000" stroke="none" 
	d="
M117.960342,214.882233 
	C107.488441,217.189423 98.424255,222.109680 90.839989,229.677338 
	C80.230080,240.264008 75.092529,253.284531 75.060158,268.083405 
	C74.919670,332.326263 74.789665,396.570648 75.108131,460.812225 
	C75.227814,484.955536 91.978790,505.010864 114.719170,511.875671 
	C115.961250,512.250610 117.344177,512.158997 118.830772,512.642273 
	C79.686455,513.000000 40.372902,513.000000 1.029677,513.000000 
	C1.029677,342.438965 1.029677,171.877930 1.029677,1.000000 
	C80.687279,1.000000 160.374985,1.000000 240.354187,1.378635 
	C230.065811,4.188393 219.242264,5.869533 208.958206,9.211041 
	C189.216583,15.625526 172.322144,27.213442 157.902908,41.885628 
	C147.295013,52.679615 138.512024,65.033363 131.898819,78.922379 
	C122.904106,97.813034 118.059700,117.514275 118.010994,138.399094 
	C117.951538,163.893372 117.973557,189.387848 117.960342,214.882233 
z"/>
<path fill="none" opacity="1.000000" stroke="none" 
	d="
M395.468658,513.000000 
	C402.271667,509.679199 410.177765,507.285248 416.677185,502.836273 
	C428.606171,494.670593 436.058105,482.989746 437.931305,468.373505 
	C438.704315,462.341858 438.949402,456.206879 438.956604,450.118317 
	C439.028259,389.368988 439.089539,328.619324 438.939758,267.870270 
	C438.900330,251.876892 432.790619,238.188126 420.854828,227.448364 
	C413.989288,221.270782 405.889587,217.101349 396.409576,214.483597 
	C396.003693,204.965912 396.220093,195.964142 395.957642,186.976364 
	C395.271179,163.468307 397.683472,139.902313 394.084900,116.436760 
	C391.688629,100.811508 386.349976,86.255577 378.875000,72.556885 
	C369.616577,55.589901 357.175232,41.102074 341.775238,29.295776 
	C326.773376,17.794682 310.156097,9.544767 291.770386,5.026039 
	C285.558960,3.499440 279.259308,2.331729 273.000000,1.000000 
	C352.959778,1.000000 432.919556,1.000000 512.939209,1.000000 
	C512.939209,171.666672 512.939209,342.333344 512.939209,513.000000 
	C473.898041,513.000000 434.917694,513.000000 395.468658,513.000000 
z"/>
<path fill="#455A64" opacity="1.000000" stroke="none" 
	d="
M272.531342,1.000000 
	C279.259308,2.331729 285.558960,3.499440 291.770386,5.026039 
	C310.156097,9.544767 326.773376,17.794682 341.775238,29.295776 
	C357.175232,41.102074 369.616577,55.589901 378.875000,72.556885 
	C386.349976,86.255577 391.688629,100.811508 394.084900,116.436760 
	C397.683472,139.902313 395.271179,163.468307 395.957642,186.976364 
	C396.220093,195.964142 396.003693,204.965912 396.022583,214.421768 
	C374.657898,214.620331 353.276154,214.358429 331.445801,213.518661 
	C330.998138,187.129623 331.064087,161.318146 330.930084,135.507690 
	C330.909943,131.625748 330.252075,127.680809 329.383423,123.880630 
	C324.647125,103.160294 312.904755,87.575272 294.909546,76.297272 
	C277.786835,65.566116 259.259766,63.659298 240.137177,67.564674 
	C223.506485,70.961151 209.972443,80.364586 199.234344,93.387604 
	C189.466599,105.233833 183.486008,119.064873 183.158218,134.430756 
	C182.593643,160.895798 183.013535,187.381836 183.020279,213.859070 
	C172.238480,213.989365 161.455551,214.060638 150.675201,214.266632 
	C140.058304,214.469498 129.444016,214.808868 118.394470,214.985291 
	C117.973557,189.387848 117.951538,163.893372 118.010994,138.399094 
	C118.059700,117.514275 122.904106,97.813034 131.898819,78.922379 
	C138.512024,65.033363 147.295013,52.679615 157.902908,41.885628 
	C172.322144,27.213442 189.216583,15.625526 208.958206,9.211041 
	C219.242264,5.869533 230.065811,4.188393 240.822845,1.378635 
	C251.354233,1.000000 261.708466,1.000000 272.531342,1.000000 
z"/>
<path fill="none" opacity="1.000000" stroke="none" 
	d="
M183.484589,213.917542 
	C183.013535,187.381836 182.593643,160.895798 183.158218,134.430756 
	C183.486008,119.064873 189.466599,105.233833 199.234344,93.387604 
	C209.972443,80.364586 223.506485,70.961151 240.137177,67.564674 
	C259.259766,63.659298 277.786835,65.566116 294.909546,76.297272 
	C312.904755,87.575272 324.647125,103.160294 329.383423,123.880630 
	C330.252075,127.680809 330.909943,131.625748 330.930084,135.507690 
	C331.064087,161.318146 330.998138,187.129623 330.988464,213.399933 
	C292.602661,213.906036 254.225616,213.957413 215.848572,213.997025 
	C205.215363,214.007996 194.582108,213.983978 183.484589,213.917542 
z"/>
<path fill="#465A64" opacity="1.000000" stroke="none" 
	d="
M271.653931,280.158508 
	C297.669739,289.147888 311.858673,309.658417 309.877075,336.366394 
	C308.590942,353.701019 299.899689,367.216400 285.179535,376.442657 
	C281.542145,378.722473 280.827637,380.793579 281.472534,384.824310 
	C284.152710,401.576782 286.473969,418.387817 288.812042,435.193359 
	C289.968018,443.502289 285.455780,448.873657 277.124176,448.960632 
	C263.637970,449.101440 250.148346,449.090668 236.661880,448.963623 
	C228.764389,448.889252 224.139008,443.346558 225.255936,435.410736 
	C227.643860,418.444580 230.154480,401.495667 232.626785,384.541412 
	C233.032501,381.759125 233.640305,379.404541 230.318390,377.335907 
	C206.508453,362.508575 197.501678,335.432983 207.878845,310.731354 
	C218.227509,286.097534 244.383621,273.442505 271.653931,280.158508 
z"/>
</svg>