<svg version="1.1" id="Layer_1" xmlns="http://www.w3.org/2000/svg" xmlns:xlink="http://www.w3.org/1999/xlink" x="0px" y="0px"
	 width="100%" viewBox="0 0 718 584" enable-background="new 0 0 718 584" xml:space="preserve">
<path fill="none" opacity="1.000000" stroke="none" 
	d="
M1.000000,181.000000 
	C1.000000,120.666664 1.000000,60.833332 1.000000,1.000000 
	C240.333328,1.000000 479.666656,1.000000 719.000000,1.000000 
	C719.000000,195.666672 719.000000,390.333344 719.000000,585.000000 
	C479.666656,585.000000 240.333328,585.000000 1.000000,585.000000 
	C1.000000,450.500000 1.000000,316.000000 1.000000,181.000000 
M606.892517,550.216736 
	C661.658569,543.638245 698.332764,499.024170 704.304077,452.756073 
	C706.254150,437.645752 705.958374,422.191803 705.975281,406.894257 
	C706.103638,290.916534 706.041931,174.938629 706.087402,58.960793 
	C706.090576,50.836887 704.991821,42.956795 701.149353,35.763836 
	C691.558899,17.810392 676.507507,9.061999 656.085510,9.067658 
	C465.621887,9.120440 275.158234,9.098097 84.694603,9.099229 
	C73.363503,9.099296 62.011528,8.708118 50.709877,9.289041 
	C44.845085,9.590499 38.654358,10.685359 33.327282,13.041537 
	C13.443027,21.836399 4.064868,37.643322 4.071587,59.313057 
	C4.109402,181.289764 4.089218,303.266479 4.093095,425.243195 
	C4.093143,426.742310 4.137833,428.241791 4.181611,429.740509 
	C4.462547,439.357849 7.546043,448.044495 13.309589,455.679230 
	C23.479298,469.150635 37.223183,475.130005 53.992867,475.123077 
	C195.965744,475.064606 337.938660,475.092041 479.911560,475.079193 
	C483.086182,475.078888 485.622498,474.848999 487.274841,478.974152 
	C507.002747,528.226013 553.235779,555.908813 606.892517,550.216736 
z"/>
<path fill="#0B0B0B" opacity="1.000000" stroke="none" 
	d="
M606.444458,550.296387 
	C553.235779,555.908813 507.002747,528.226013 487.274841,478.974152 
	C485.622498,474.848999 483.086182,475.078888 479.911560,475.079193 
	C337.938660,475.092041 195.965744,475.064606 53.992867,475.123077 
	C37.223183,475.130005 23.479298,469.150635 13.309589,455.679230 
	C7.546043,448.044495 4.462547,439.357849 4.181611,429.740509 
	C4.137833,428.241791 4.093143,426.742310 4.093095,425.243195 
	C4.089218,303.266479 4.109402,181.289764 4.071587,59.313057 
	C4.064868,37.643322 13.443027,21.836399 33.327282,13.041537 
	C38.654358,10.685359 44.845085,9.590499 50.709877,9.289041 
	C62.011528,8.708118 73.363503,9.099296 84.694603,9.099229 
	C275.158234,9.098097 465.621887,9.120440 656.085510,9.067658 
	C676.507507,9.061999 691.558899,17.810392 701.149353,35.763836 
	C704.991821,42.956795 706.090576,50.836887 706.087402,58.960793 
	C706.041931,174.938629 706.103638,290.916534 705.975281,406.894257 
	C705.958374,422.191803 706.254150,437.645752 704.304077,452.756073 
	C698.332764,499.024170 661.658569,543.638245 606.444458,550.296387 
M693.989014,249.500000 
	C693.927063,185.669479 693.884644,121.838913 693.752136,58.008533 
	C693.744629,54.376862 693.480286,50.613396 692.516174,47.138596 
	C687.935425,30.628433 674.479370,21.333841 655.519592,21.333033 
	C455.190796,21.324474 254.861755,21.456846 54.533478,21.133942 
	C33.796780,21.100517 16.050474,36.175804 16.141304,59.653305 
	C16.556540,166.982605 16.322168,274.314423 16.333204,381.645325 
	C16.333385,383.408813 16.485220,385.172302 16.583593,387.312317 
	C18.137236,387.312317 19.272425,387.312286 20.407614,387.312286 
	C175.404114,387.312134 330.400604,387.303253 485.397064,387.374847 
	C488.490540,387.376282 490.087433,386.385223 491.514984,383.619324 
	C498.799866,369.504425 509.053314,357.715485 521.241455,347.679352 
	C563.407959,312.957733 636.047607,315.387878 673.962891,358.014618 
	C680.858765,365.767395 687.028076,374.166351 693.991699,382.838440 
	C693.991699,338.543304 693.991699,294.521667 693.989014,249.500000 
M441.500214,399.681335 
	C299.899109,399.681335 158.298004,399.681335 16.323908,399.681335 
	C16.323908,408.447815 16.633463,416.602875 16.264742,424.727173 
	C15.238305,447.343231 33.638866,462.963409 54.499779,462.913208 
	C194.823441,462.575378 335.148315,462.737305 475.472809,462.737335 
	C477.278320,462.737335 479.083801,462.737335 481.557312,462.737335 
	C477.125244,441.428955 477.375244,420.713684 484.336639,399.681305 
	C470.035065,399.681305 456.267670,399.681305 441.500214,399.681335 
M602.852234,537.655457 
	C606.126221,537.078674 609.419800,536.595337 612.671204,535.911194 
	C667.754517,524.320679 701.739624,474.064148 692.064453,418.541138 
	C682.190491,361.877258 623.419800,323.990265 567.549072,338.101501 
	C517.473938,350.748993 486.136353,400.219482 491.411652,450.408356 
	C496.607635,499.842468 544.588684,544.981567 602.852234,537.655457 
z"/>
<path fill="none" opacity="1.000000" stroke="none" 
	d="
M693.990356,250.000000 
	C693.991699,294.521667 693.991699,338.543304 693.991699,382.838440 
	C687.028076,374.166351 680.858765,365.767395 673.962891,358.014618 
	C636.047607,315.387878 563.407959,312.957733 521.241455,347.679352 
	C509.053314,357.715485 498.799866,369.504425 491.514984,383.619324 
	C490.087433,386.385223 488.490540,387.376282 485.397064,387.374847 
	C330.400604,387.303253 175.404114,387.312134 20.407614,387.312286 
	C19.272425,387.312286 18.137236,387.312317 16.583593,387.312317 
	C16.485220,385.172302 16.333385,383.408813 16.333204,381.645325 
	C16.322168,274.314423 16.556540,166.982605 16.141304,59.653305 
	C16.050474,36.175804 33.796780,21.100517 54.533478,21.133942 
	C254.861755,21.456846 455.190796,21.324474 655.519592,21.333033 
	C674.479370,21.333841 687.935425,30.628433 692.516174,47.138596 
	C693.480286,50.613396 693.744629,54.376862 693.752136,58.008533 
	C693.884644,121.838913 693.927063,185.669479 693.990356,250.000000 
M163.312027,317.090485 
	C192.086121,326.603668 220.618454,326.024780 248.728790,314.598816 
	C293.803986,296.277344 330.816925,244.544510 316.508606,182.335800 
	C302.131378,119.827469 244.081665,76.561630 173.605423,93.484802 
	C108.620506,109.089355 69.429756,182.272293 91.803467,245.107254 
	C104.140610,279.755249 127.711868,304.058258 163.312027,317.090485 
M384.488312,188.014587 
	C390.337067,194.621277 397.873383,196.764328 406.440552,196.739426 
	C437.417175,196.649353 468.394196,196.705338 499.371063,196.705429 
	C531.347168,196.705521 563.323303,196.732727 595.299377,196.693680 
	C614.011963,196.670837 624.416077,186.290604 624.454590,167.712326 
	C624.476990,156.887146 624.536438,146.061050 624.431458,135.236801 
	C624.277588,119.375008 613.173950,108.287430 597.232544,108.273239 
	C533.113770,108.216179 468.994934,108.209938 404.876221,108.278503 
	C389.206116,108.295258 378.167786,119.362587 378.006866,134.990158 
	C377.886871,146.646866 378.047791,158.306351 377.954987,169.963562 
	C377.902435,176.563675 379.808472,182.401077 384.488312,188.014587 
M563.499451,256.185974 
	C580.494507,256.182587 597.489624,256.186890 614.484680,256.163788 
	C616.143555,256.161530 618.310486,256.613098 619.351440,255.763443 
	C621.310974,254.163940 623.563171,251.935455 623.965271,249.662674 
	C624.480591,246.749741 622.399536,244.319977 618.967773,244.002914 
	C617.478333,243.865295 615.973633,243.852509 614.475830,243.852386 
	C538.831177,243.845978 463.186493,243.846054 387.541840,243.855164 
	C386.045288,243.855347 384.141113,243.416229 383.139526,244.151947 
	C381.225342,245.558029 379.030579,247.426895 378.401825,249.535843 
	C377.508392,252.532669 379.291290,255.132996 382.595459,255.774246 
	C384.855133,256.212830 387.227600,256.171234 389.549713,256.171997 
	C447.199615,256.190552 504.849487,256.186096 563.499451,256.185974 
M406.500031,293.239777 
	C399.170288,293.256653 391.834717,293.101624 384.512726,293.348755 
	C379.332184,293.523621 376.685577,297.440796 378.482269,301.830719 
	C379.953339,305.425049 383.229004,305.619232 386.463806,305.620422 
	C423.947479,305.634247 461.431122,305.634735 498.914795,305.609222 
	C500.230743,305.608337 502.012939,305.777710 502.768097,305.039459 
	C504.496704,303.349487 506.886871,301.108948 506.824432,299.161957 
	C506.762939,297.243378 504.314545,294.916901 502.339661,293.702545 
	C500.848999,292.785950 498.453918,293.254364 496.461273,293.253113 
	C466.807526,293.234314 437.153809,293.239990 406.500031,293.239777 
z"/>
<path fill="none" opacity="1.000000" stroke="none" 
	d="
M442.000244,399.681335 
	C456.267670,399.681305 470.035065,399.681305 484.336639,399.681305 
	C477.375244,420.713684 477.125244,441.428955 481.557312,462.737335 
	C479.083801,462.737335 477.278320,462.737335 475.472809,462.737335 
	C335.148315,462.737305 194.823441,462.575378 54.499779,462.913208 
	C33.638866,462.963409 15.238305,447.343231 16.264742,424.727173 
	C16.633463,416.602875 16.323908,408.447815 16.323908,399.681335 
	C158.298004,399.681335 299.899109,399.681335 442.000244,399.681335 
z"/>
<path fill="none" opacity="1.000000" stroke="none" 
	d="
M602.401978,537.733887 
	C544.588684,544.981567 496.607635,499.842468 491.411652,450.408356 
	C486.136353,400.219482 517.473938,350.748993 567.549072,338.101501 
	C623.419800,323.990265 682.190491,361.877258 692.064453,418.541138 
	C701.739624,474.064148 667.754517,524.320679 612.671204,535.911194 
	C609.419800,536.595337 606.126221,537.078674 602.401978,537.733887 
M551.575928,490.613983 
	C556.711670,497.410278 561.261658,498.578308 568.843262,494.934540 
	C575.132935,491.911652 581.477539,488.980591 587.609070,485.660370 
	C590.710876,483.980774 593.219849,483.878632 596.364441,485.581390 
	C602.642578,488.980835 609.053833,492.184875 615.618347,494.980743 
	C618.366333,496.151123 621.809021,496.941101 624.649597,496.400330 
	C632.069397,494.987732 635.099304,489.353668 633.962952,480.260986 
	C633.075867,473.162476 631.801880,466.107727 631.097412,458.994171 
	C630.916138,457.163666 631.727844,454.732849 632.955261,453.354065 
	C637.600281,448.136414 642.548889,443.183105 647.489929,438.236786 
	C651.604126,434.118195 654.338928,429.686737 652.284790,423.556122 
	C650.236755,417.443909 645.428711,415.534912 639.651245,414.666656 
	C632.746643,413.628967 625.847229,412.470154 619.035767,410.957581 
	C617.257629,410.562744 615.239990,408.990509 614.318298,407.390930 
	C610.587708,400.916840 607.195740,394.244843 603.769653,387.599060 
	C601.365967,382.936523 597.892151,380.101929 592.417053,380.028442 
	C586.742188,379.952271 583.082642,382.737274 580.596924,387.631622 
	C577.286499,394.149780 574.014771,400.703491 570.303528,406.992340 
	C569.217896,408.831909 566.867188,410.597504 564.797119,411.061432 
	C557.666626,412.659607 550.406677,413.684143 543.190491,414.894012 
	C537.705139,415.813660 533.530518,418.361023 531.736389,423.933350 
	C530.040833,429.199463 532.087830,433.311096 535.702515,436.992340 
	C540.718018,442.100220 545.860962,447.103455 550.554199,452.495453 
	C552.063232,454.229095 553.135925,457.100342 552.996338,459.364105 
	C552.628906,465.324188 551.199585,471.214783 550.749512,477.175079 
	C550.431396,481.386536 551.021790,485.666626 551.575928,490.613983 
z"/>
<path fill="#0B0B0B" opacity="1.000000" stroke="none" 
	d="
M162.933289,316.988770 
	C127.711868,304.058258 104.140610,279.755249 91.803467,245.107254 
	C69.429756,182.272293 108.620506,109.089355 173.605423,93.484802 
	C244.081665,76.561630 302.131378,119.827469 316.508606,182.335800 
	C330.816925,244.544510 293.803986,296.277344 248.728790,314.598816 
	C220.618454,326.024780 192.086121,326.603668 162.933289,316.988770 
M302.709534,236.009949 
	C308.335449,216.356598 308.923004,196.643250 303.346130,176.875107 
	C291.134399,133.588882 243.136963,91.208519 180.509384,105.133789 
	C112.873718,120.172607 77.797844,193.294266 109.550636,254.787582 
	C113.739243,262.899353 119.497566,270.200562 125.116989,278.774445 
	C135.858765,262.632874 148.876404,251.584274 164.796463,243.861145 
	C140.558273,217.285675 150.387909,184.423538 167.190567,168.410812 
	C185.707840,150.764038 215.476288,149.563248 235.255905,165.967651 
	C245.965668,174.849899 252.310364,186.404282 254.366409,200.037796 
	C256.865417,216.608719 252.327194,231.287888 240.917419,243.108765 
	C248.183533,248.168457 255.577148,252.470154 261.927734,257.975098 
	C268.398560,263.584259 273.843384,270.377075 280.074371,277.010315 
	C290.530243,265.472778 297.604492,251.753006 302.709534,236.009949 
M182.848404,247.890869 
	C179.994919,249.708282 177.342987,252.035248 174.253937,253.257111 
	C158.782852,259.376709 146.364105,269.187775 136.746292,282.747986 
	C134.583313,285.797546 135.016815,287.334290 137.898788,289.521179 
	C167.126541,311.699615 199.458710,316.581177 234.309952,306.798187 
	C247.908401,302.980988 260.096405,296.309143 271.385468,285.835175 
	C266.195312,279.959564 261.489899,273.946899 256.073486,268.663055 
	C248.105652,260.890259 238.406677,255.812759 227.953949,251.972260 
	C225.716904,251.150345 223.145752,248.505936 222.720917,246.314804 
	C222.355957,244.432587 224.770645,241.957977 226.096634,239.832977 
	C226.509109,239.171936 227.405304,238.826508 228.037567,238.286804 
	C240.923843,227.286667 245.531769,213.280533 241.661926,197.017044 
	C237.658432,180.191879 226.239319,170.366440 209.345612,167.817123 
	C193.367950,165.406021 179.525879,170.190887 169.817841,183.674286 
	C157.320923,201.031158 161.129089,225.250824 178.088501,238.724640 
	C180.840210,240.910812 183.959671,242.811127 182.848404,247.890869 
z"/>
<path fill="#0E0E0E" opacity="1.000000" stroke="none" 
	d="
M384.241028,187.756226 
	C379.808472,182.401077 377.902435,176.563675 377.954987,169.963562 
	C378.047791,158.306351 377.886871,146.646866 378.006866,134.990158 
	C378.167786,119.362587 389.206116,108.295258 404.876221,108.278503 
	C468.994934,108.209938 533.113770,108.216179 597.232544,108.273239 
	C613.173950,108.287430 624.277588,119.375008 624.431458,135.236801 
	C624.536438,146.061050 624.476990,156.887146 624.454590,167.712326 
	C624.416077,186.290604 614.011963,196.670837 595.299377,196.693680 
	C563.323303,196.732727 531.347168,196.705521 499.371063,196.705429 
	C468.394196,196.705338 437.417175,196.649353 406.440552,196.739426 
	C397.873383,196.764328 390.337067,194.621277 384.241028,187.756226 
M479.500122,120.691917 
	C454.689148,120.693611 429.878052,120.648468 405.067291,120.721649 
	C396.018158,120.748337 390.444580,125.865646 390.255402,134.698196 
	C389.998718,146.681488 390.138458,158.675064 390.231506,170.663269 
	C390.275208,176.295059 392.742188,180.845810 397.997559,182.991714 
	C400.965149,184.203461 404.465271,184.536102 407.726532,184.540588 
	C470.003448,184.626282 532.280518,184.604614 594.557556,184.601318 
	C595.888977,184.601257 597.227356,184.634323 598.550720,184.518097 
	C607.185730,183.759689 612.086609,178.516022 612.147278,169.789032 
	C612.222595,158.966003 612.180176,148.142029 612.163574,137.318497 
	C612.145569,125.615776 607.201477,120.701645 595.396301,120.697685 
	C557.097595,120.684822 518.798889,120.692261 479.500122,120.691917 
z"/>
<path fill="#0B0B0B" opacity="1.000000" stroke="none" 
	d="
M562.999390,256.185852 
	C504.849487,256.186096 447.199615,256.190552 389.549713,256.171997 
	C387.227600,256.171234 384.855133,256.212830 382.595459,255.774246 
	C379.291290,255.132996 377.508392,252.532669 378.401825,249.535843 
	C379.030579,247.426895 381.225342,245.558029 383.139526,244.151947 
	C384.141113,243.416229 386.045288,243.855347 387.541840,243.855164 
	C463.186493,243.846054 538.831177,243.845978 614.475830,243.852386 
	C615.973633,243.852509 617.478333,243.865295 618.967773,244.002914 
	C622.399536,244.319977 624.480591,246.749741 623.965271,249.662674 
	C623.563171,251.935455 621.310974,254.163940 619.351440,255.763443 
	C618.310486,256.613098 616.143555,256.161530 614.484680,256.163788 
	C597.489624,256.186890 580.494507,256.182587 562.999390,256.185852 
z"/>
<path fill="#151515" opacity="1.000000" stroke="none" 
	d="
M407.000061,293.239868 
	C437.153809,293.239990 466.807526,293.234314 496.461273,293.253113 
	C498.453918,293.254364 500.848999,292.785950 502.339661,293.702545 
	C504.314545,294.916901 506.762939,297.243378 506.824432,299.161957 
	C506.886871,301.108948 504.496704,303.349487 502.768097,305.039459 
	C502.012939,305.777710 500.230743,305.608337 498.914795,305.609222 
	C461.431122,305.634735 423.947479,305.634247 386.463806,305.620422 
	C383.229004,305.619232 379.953339,305.425049 378.482269,301.830719 
	C376.685577,297.440796 379.332184,293.523621 384.512726,293.348755 
	C391.834717,293.101624 399.170288,293.256653 407.000061,293.239868 
z"/>
<path fill="#0C0C0C" opacity="1.000000" stroke="none" 
	d="
M551.391235,490.265015 
	C551.021790,485.666626 550.431396,481.386536 550.749512,477.175079 
	C551.199585,471.214783 552.628906,465.324188 552.996338,459.364105 
	C553.135925,457.100342 552.063232,454.229095 550.554199,452.495453 
	C545.860962,447.103455 540.718018,442.100220 535.702515,436.992340 
	C532.087830,433.311096 530.040833,429.199463 531.736389,423.933350 
	C533.530518,418.361023 537.705139,415.813660 543.190491,414.894012 
	C550.406677,413.684143 557.666626,412.659607 564.797119,411.061432 
	C566.867188,410.597504 569.217896,408.831909 570.303528,406.992340 
	C574.014771,400.703491 577.286499,394.149780 580.596924,387.631622 
	C583.082642,382.737274 586.742188,379.952271 592.417053,380.028442 
	C597.892151,380.101929 601.365967,382.936523 603.769653,387.599060 
	C607.195740,394.244843 610.587708,400.916840 614.318298,407.390930 
	C615.239990,408.990509 617.257629,410.562744 619.035767,410.957581 
	C625.847229,412.470154 632.746643,413.628967 639.651245,414.666656 
	C645.428711,415.534912 650.236755,417.443909 652.284790,423.556122 
	C654.338928,429.686737 651.604126,434.118195 647.489929,438.236786 
	C642.548889,443.183105 637.600281,448.136414 632.955261,453.354065 
	C631.727844,454.732849 630.916138,457.163666 631.097412,458.994171 
	C631.801880,466.107727 633.075867,473.162476 633.962952,480.260986 
	C635.099304,489.353668 632.069397,494.987732 624.649597,496.400330 
	C621.809021,496.941101 618.366333,496.151123 615.618347,494.980743 
	C609.053833,492.184875 602.642578,488.980835 596.364441,485.581390 
	C593.219849,483.878632 590.710876,483.980774 587.609070,485.660370 
	C581.477539,488.980591 575.132935,491.911652 568.843262,494.934540 
	C561.261658,498.578308 556.711670,497.410278 551.391235,490.265015 
M559.265930,424.593262 
	C554.334229,425.540649 549.402466,426.488037 543.439880,427.633423 
	C550.393005,434.786407 556.429810,441.176392 562.681763,447.348389 
	C565.558289,450.188141 566.556091,453.159210 565.885437,457.206970 
	C564.452698,465.853577 563.450745,474.571533 562.140503,484.232697 
	C564.405334,483.317047 565.748413,482.857025 567.019043,482.246307 
	C573.307861,479.223602 579.701782,476.387512 585.812439,473.036621 
	C590.226318,470.616241 594.026123,470.673767 598.461182,473.085876 
	C605.844971,477.101685 613.535034,480.554382 622.167969,484.767273 
	C620.833130,474.842896 619.911682,466.119690 618.393738,457.501526 
	C617.641235,453.229431 618.629333,450.179932 621.667236,447.227417 
	C626.796936,442.242004 631.681091,437.002075 636.612366,431.815765 
	C637.762451,430.606293 638.687256,429.182678 640.057800,427.416901 
	C631.403564,425.857727 623.760193,424.029663 616.010681,423.229736 
	C610.006226,422.609894 606.391785,420.071686 603.860718,414.646027 
	C600.412476,407.254272 596.277710,400.182739 591.964478,392.086243 
	C587.167297,401.127136 583.147766,409.322937 578.478088,417.129883 
	C577.053040,419.512421 574.080200,421.489655 571.386292,422.463715 
	C567.851074,423.742004 563.890442,423.843506 559.265930,424.593262 
z"/>
<path fill="none" opacity="1.000000" stroke="none" 
	d="
M302.616882,236.402588 
	C297.604492,251.753006 290.530243,265.472778 280.074371,277.010315 
	C273.843384,270.377075 268.398560,263.584259 261.927734,257.975098 
	C255.577148,252.470154 248.183533,248.168457 240.917419,243.108765 
	C252.327194,231.287888 256.865417,216.608719 254.366409,200.037796 
	C252.310364,186.404282 245.965668,174.849899 235.255905,165.967651 
	C215.476288,149.563248 185.707840,150.764038 167.190567,168.410812 
	C150.387909,184.423538 140.558273,217.285675 164.796463,243.861145 
	C148.876404,251.584274 135.858765,262.632874 125.116989,278.774445 
	C119.497566,270.200562 113.739243,262.899353 109.550636,254.787582 
	C77.797844,193.294266 112.873718,120.172607 180.509384,105.133789 
	C243.136963,91.208519 291.134399,133.588882 303.346130,176.875107 
	C308.923004,196.643250 308.335449,216.356598 302.616882,236.402588 
z"/>
<path fill="none" opacity="1.000000" stroke="none" 
	d="
M182.951355,247.509308 
	C183.959671,242.811127 180.840210,240.910812 178.088501,238.724640 
	C161.129089,225.250824 157.320923,201.031158 169.817841,183.674286 
	C179.525879,170.190887 193.367950,165.406021 209.345612,167.817123 
	C226.239319,170.366440 237.658432,180.191879 241.661926,197.017044 
	C245.531769,213.280533 240.923843,227.286667 228.037567,238.286804 
	C227.405304,238.826508 226.509109,239.171936 226.096634,239.832977 
	C224.770645,241.957977 222.355957,244.432587 222.720917,246.314804 
	C223.145752,248.505936 225.716904,251.150345 227.953949,251.972260 
	C238.406677,255.812759 248.105652,260.890259 256.073486,268.663055 
	C261.489899,273.946899 266.195312,279.959564 271.385468,285.835175 
	C260.096405,296.309143 247.908401,302.980988 234.309952,306.798187 
	C199.458710,316.581177 167.126541,311.699615 137.898788,289.521179 
	C135.016815,287.334290 134.583313,285.797546 136.746292,282.747986 
	C146.364105,269.187775 158.782852,259.376709 174.253937,253.257111 
	C177.342987,252.035248 179.994919,249.708282 182.951355,247.509308 
z"/>
<path fill="none" opacity="1.000000" stroke="none" 
	d="
M480.000122,120.691895 
	C518.798889,120.692261 557.097595,120.684822 595.396301,120.697685 
	C607.201477,120.701645 612.145569,125.615776 612.163574,137.318497 
	C612.180176,148.142029 612.222595,158.966003 612.147278,169.789032 
	C612.086609,178.516022 607.185730,183.759689 598.550720,184.518097 
	C597.227356,184.634323 595.888977,184.601257 594.557556,184.601318 
	C532.280518,184.604614 470.003448,184.626282 407.726532,184.540588 
	C404.465271,184.536102 400.965149,184.203461 397.997559,182.991714 
	C392.742188,180.845810 390.275208,176.295059 390.231506,170.663269 
	C390.138458,158.675064 389.998718,146.681488 390.255402,134.698196 
	C390.444580,125.865646 396.018158,120.748337 405.067291,120.721649 
	C429.878052,120.648468 454.689148,120.693611 480.000122,120.691895 
z"/>
<path fill="none" opacity="1.000000" stroke="none" 
	d="
M559.689331,424.522186 
	C563.890442,423.843506 567.851074,423.742004 571.386292,422.463715 
	C574.080200,421.489655 577.053040,419.512421 578.478088,417.129883 
	C583.147766,409.322937 587.167297,401.127136 591.964478,392.086243 
	C596.277710,400.182739 600.412476,407.254272 603.860718,414.646027 
	C606.391785,420.071686 610.006226,422.609894 616.010681,423.229736 
	C623.760193,424.029663 631.403564,425.857727 640.057800,427.416901 
	C638.687256,429.182678 637.762451,430.606293 636.612366,431.815765 
	C631.681091,437.002075 626.796936,442.242004 621.667236,447.227417 
	C618.629333,450.179932 617.641235,453.229431 618.393738,457.501526 
	C619.911682,466.119690 620.833130,474.842896 622.167969,484.767273 
	C613.535034,480.554382 605.844971,477.101685 598.461182,473.085876 
	C594.026123,470.673767 590.226318,470.616241 585.812439,473.036621 
	C579.701782,476.387512 573.307861,479.223602 567.019043,482.246307 
	C565.748413,482.857025 564.405334,483.317047 562.140503,484.232697 
	C563.450745,474.571533 564.452698,465.853577 565.885437,457.206970 
	C566.556091,453.159210 565.558289,450.188141 562.681763,447.348389 
	C556.429810,441.176392 550.393005,434.786407 543.439880,427.633423 
	C549.402466,426.488037 554.334229,425.540649 559.689331,424.522186 
z"/>
</svg>