<svg width="20" height="20" viewBox="0 0 20 20" xmlns="http://www.w3.org/2000/svg">
<path d="M3.33331 15.8333V14.1667H4.99998V8.33332C4.99998 7.18055 5.3472 6.15624 6.04165 5.26041C6.73609 4.36457 7.63887 3.77777 8.74998 3.49999V2.91666C8.74998 2.56943 8.87151 2.2743 9.11456 2.03124C9.35762 1.78818 9.65276 1.66666 9.99998 1.66666C10.3472 1.66666 10.6423 1.78818 10.8854 2.03124C11.1285 2.2743 11.25 2.56943 11.25 2.91666V3.49999C12.3611 3.77777 13.2639 4.36457 13.9583 5.26041C14.6528 6.15624 15 7.18055 15 8.33332V14.1667H16.6666V15.8333H3.33331ZM9.99998 18.3333C9.54165 18.3333 9.14928 18.1701 8.8229 17.8437C8.49651 17.5174 8.33331 17.125 8.33331 16.6667H11.6666C11.6666 17.125 11.5035 17.5174 11.1771 17.8437C10.8507 18.1701 10.4583 18.3333 9.99998 18.3333ZM6.66665 14.1667H13.3333V8.33332C13.3333 7.41666 13.0069 6.63193 12.3541 5.97916C11.7014 5.32638 10.9166 4.99999 9.99998 4.99999C9.08331 4.99999 8.29859 5.32638 7.64581 5.97916C6.99303 6.63193 6.66665 7.41666 6.66665 8.33332V14.1667Z" fill="currentColor"/>
</svg>
