<svg width="20" height="20" viewBox="0 0 20 20" xmlns="http://www.w3.org/2000/svg">
<path d="M4.55556 17C4.12778 17 3.76157 16.8477 3.45694 16.5431C3.15231 16.2384 3 15.8722 3 15.4444V4.55556C3 4.12778 3.15231 3.76157 3.45694 3.45694C3.76157 3.15231 4.12778 3 4.55556 3H10V4.55556H4.55556V15.4444H15.4444V10H17V15.4444C17 15.8722 16.8477 16.2384 16.5431 16.5431C16.2384 16.8477 15.8722 17 15.4444 17H4.55556ZM8.21111 12.8778L7.12222 11.7889L14.3556 4.55556H11.5556V3H17V8.44444H15.4444V5.64444L8.21111 12.8778Z" fill="currentColor"/>
</svg>
