<svg version="1.1" id="Layer_1" xmlns="http://www.w3.org/2000/svg" xmlns:xlink="http://www.w3.org/1999/xlink" x="0px" y="0px"
	 width="100%" viewBox="0 0 592 560" enable-background="new 0 0 592 560" xml:space="preserve">
<path fill="#000000" opacity="1.000000" stroke="none" 
	d="
M182.999878,531.374268 
	C155.002716,531.369324 127.505379,531.428345 100.008499,531.340881 
	C71.631966,531.250610 51.675400,511.167633 51.665371,482.693420 
	C51.632973,390.702972 51.636326,298.712524 51.661491,206.722061 
	C51.668018,182.853622 65.798676,164.754669 88.861603,159.362289 
	C96.671883,157.536163 104.813934,157.221741 112.719925,158.099716 
	C130.966370,160.125992 146.265030,154.281586 161.906708,144.949768 
	C228.145584,105.431641 295.029053,66.993889 361.678864,28.164623 
	C369.776337,23.447149 378.058655,19.096138 387.684204,18.725250 
	C407.739441,17.952488 422.672424,26.643559 432.591644,43.890514 
	C453.687500,80.570671 474.686157,117.307022 495.590820,154.096375 
	C497.309692,157.121338 499.332794,158.833328 502.702148,159.516342 
	C526.182617,164.276199 541.090515,182.429398 541.265442,206.687439 
	C541.421753,228.350769 541.386780,250.016479 541.251160,271.679962 
	C541.228577,275.285706 542.311707,277.151001 545.623230,278.979401 
	C557.801575,285.703522 564.310669,296.169983 564.334229,310.292389 
	C564.372314,333.123291 564.315491,355.954346 564.359253,378.785217 
	C564.386658,393.089264 558.171021,403.820801 545.693665,410.603058 
	C542.157166,412.525330 541.203613,414.711823 541.229065,418.450348 
	C541.375366,439.947083 541.529236,461.448456 541.237488,482.942200 
	C540.971252,502.554108 532.314575,517.443054 514.687927,526.600586 
	C507.611969,530.276794 499.948730,531.419373 491.966553,531.412598 
	C406.975433,531.340088 321.984222,531.371033 236.993042,531.373352 
	C219.161987,531.373840 201.330933,531.373840 182.999878,531.374268 
M314.500000,507.001923 
	C373.495728,507.004486 432.492828,506.784821 491.486206,507.158539 
	C507.143646,507.257721 517.440613,496.091461 516.961792,481.709839 
	C516.296692,461.733307 516.646851,441.716339 516.891785,421.720734 
	C516.952148,416.789490 515.702271,415.076752 510.498535,415.145447 
	C489.503784,415.422638 468.498749,415.511688 447.505341,415.178955 
	C405.020752,414.505585 373.275574,378.606598 377.752411,336.650818 
	C381.430634,302.179382 411.659882,274.792633 446.280670,274.667755 
	C467.778931,274.590210 489.279388,274.506683 510.774994,274.756775 
	C515.715210,274.814240 516.947449,273.172211 516.895996,268.468567 
	C516.675354,248.305710 516.380493,228.127151 516.940918,207.977371 
	C517.409119,191.143753 505.040100,182.219131 491.119019,182.239395 
	C361.294739,182.428299 231.470093,182.340500 101.645546,182.354263 
	C85.111450,182.356018 75.976494,191.116714 75.963974,207.467026 
	C75.893791,299.127319 75.933411,390.787720 75.969635,482.448090 
	C75.971413,486.947662 76.337051,491.385284 78.757019,495.456848 
	C84.050339,504.362885 92.112251,507.079407 102.014420,507.062531 
	C172.509445,506.942474 243.004776,507.000641 314.500000,507.001923 
M540.064087,337.500000 
	C540.045715,328.837982 540.157654,320.173218 539.972473,311.514771 
	C539.785522,302.772858 536.119446,299.000000 527.362000,298.994690 
	C499.546173,298.977844 471.712677,298.600677 443.919312,299.450348 
	C416.999481,300.273376 395.935211,327.626434 403.198975,355.692169 
	C408.890656,377.683807 426.231720,390.623291 449.005066,390.710876 
	C474.657745,390.809540 500.311066,390.757690 525.964111,390.738068 
	C536.217285,390.730225 539.978882,386.929382 540.029968,376.479736 
	C540.091858,363.820068 540.057800,351.159943 540.064087,337.500000 
M407.375031,55.197788 
	C410.637634,53.391716 408.600342,51.654156 407.213531,50.074799 
	C400.088593,41.960629 388.548187,40.831921 377.598297,47.198730 
	C318.878418,81.341316 260.166809,115.498100 201.459305,149.661987 
	C197.405533,152.021011 193.408524,154.477600 189.385132,156.888809 
	C201.998108,157.959534 214.277771,157.910934 226.556564,157.993362 
	C229.665863,158.014236 232.349106,157.220718 235.044464,155.647491 
	C292.275604,122.242775 349.544067,88.902046 407.375031,55.197788 
M338.828918,123.393555 
	C319.725922,134.540924 300.622925,145.688293 281.519928,156.835678 
	C295.112640,157.883194 308.255096,157.890274 321.397552,157.875931 
	C323.486115,157.873657 325.213562,156.810699 326.943878,155.803116 
	C361.189636,135.861710 395.435791,115.921089 429.676514,95.971046 
	C430.792236,95.320984 432.191101,94.931053 432.507538,93.013603 
	C429.322235,87.183533 426.256561,80.981644 421.810883,75.089333 
	C394.098145,91.233284 366.786285,107.143684 338.828918,123.393555 
M391.501038,157.927094 
	C417.221252,157.927094 442.941467,157.927094 469.845825,157.927094 
	C461.293579,143.010330 453.405518,129.252014 445.302338,115.118500 
	C420.956696,129.292770 397.274323,143.080856 373.591949,156.868958 
	C373.742188,157.221451 373.892426,157.573929 374.042664,157.926422 
	C379.529083,157.926422 385.015503,157.926422 391.501038,157.927094 
z"/>
<path fill="#000000" opacity="1.000000" stroke="none" 
	d="
M432.594513,326.503479 
	C443.745941,318.791718 456.837982,319.773834 465.020782,328.686310 
	C473.181854,337.575165 473.470520,351.077789 465.693695,360.159607 
	C456.891144,370.439301 441.217987,371.331543 431.353912,362.114502 
	C421.005463,352.444824 421.425934,336.924591 432.594513,326.503479 
z"/>
</svg>