<svg width="20" height="20" viewBox="0 0 20 20" xmlns="http://www.w3.org/2000/svg">
<path d="M8.875 20C6.60625 19.729 4.72656 18.776 3.23594 17.1409C1.74531 15.5059 1 13.5863 1 11.3821C1 10.1897 1.24375 9.04697 1.73125 7.95393C2.21875 6.86089 2.9125 5.90786 3.8125 5.09485L5.41562 6.63957C4.70312 7.25384 4.16406 7.96748 3.79844 8.78049C3.43281 9.5935 3.25 10.4607 3.25 11.3821C3.25 12.972 3.775 14.3767 4.825 15.5962C5.875 16.8157 7.225 17.561 8.875 17.832V20ZM11.125 20V17.832C12.7562 17.5429 14.1016 16.7931 15.1609 15.5827C16.2203 14.3722 16.75 12.972 16.75 11.3821C16.75 9.57543 16.0937 8.03975 14.7812 6.77507C13.4687 5.51039 11.875 4.87805 10 4.87805H9.91562L11.1531 6.07046L9.57812 7.58808L5.64062 3.79404L9.57812 0L11.1531 1.51762L9.91562 2.71003H10C12.5125 2.71003 14.6406 3.55014 16.3844 5.23035C18.1281 6.91057 19 8.96116 19 11.3821C19 13.5682 18.2547 15.4788 16.7641 17.1138C15.2734 18.7489 13.3937 19.7109 11.125 20Z" fill="currentColor"/>
</svg>
