<svg width="20" height="20" viewBox="0 0 20 20" xmlns="http://www.w3.org/2000/svg">
<path d="M15.9111 17L11.0111 12.1C10.6222 12.4111 10.175 12.6574 9.66944 12.8389C9.16389 13.0204 8.62593 13.1111 8.05556 13.1111C6.64259 13.1111 5.44676 12.6218 4.46806 11.6431C3.48935 10.6644 3 9.46852 3 8.05556C3 6.64259 3.48935 5.44676 4.46806 4.46806C5.44676 3.48935 6.64259 3 8.05556 3C9.46852 3 10.6644 3.48935 11.6431 4.46806C12.6218 5.44676 13.1111 6.64259 13.1111 8.05556C13.1111 8.62593 13.0204 9.16389 12.8389 9.66944C12.6574 10.175 12.4111 10.6222 12.1 11.0111L17 15.9111L15.9111 17ZM8.05556 11.5556C9.02778 11.5556 9.85417 11.2153 10.5347 10.5347C11.2153 9.85417 11.5556 9.02778 11.5556 8.05556C11.5556 7.08333 11.2153 6.25694 10.5347 5.57639C9.85417 4.89583 9.02778 4.55556 8.05556 4.55556C7.08333 4.55556 6.25694 4.89583 5.57639 5.57639C4.89583 6.25694 4.55556 7.08333 4.55556 8.05556C4.55556 9.02778 4.89583 9.85417 5.57639 10.5347C6.25694 11.2153 7.08333 11.5556 8.05556 11.5556Z" fill="currentColor"/>
</svg>
