<svg width="20" height="20" viewBox="0 0 20 20" xmlns="http://www.w3.org/2000/svg">
<g clip-path="url(#clip0_722_527)">
<path d="M18 0H2C0.9 0 0 1.18421 0 2.63158V17.3684C0 18.8158 0.9 20 2 20H18C19.1 20 20 18.8158 20 17.3684V2.63158C20 1.18421 19.1 0 18 0ZM12.8 18.9474H2C1.34 18.9474 0.8 18.2368 0.8 17.3684V2.63158C0.8 1.76316 1.34 1.05263 2 1.05263H12.8V18.9474ZM19.2 17.3684C19.2 18.2368 18.66 18.9474 18 18.9474H13.6V1.05263H18C18.66 1.05263 19.2 1.76316 19.2 2.63158V17.3684Z" fill="currentColor"/>
<path d="M2.4 3.94735H2.8C3.02 3.94735 3.2 3.7105 3.2 3.42103C3.2 3.13156 3.02 2.89471 2.8 2.89471H2.4C2.18 2.89471 2 3.13156 2 3.42103C2 3.7105 2.18 3.94735 2.4 3.94735Z" fill="currentColor"/>
<path d="M4.20005 3.94735H4.60005C4.82005 3.94735 5.00005 3.7105 5.00005 3.42103C5.00005 3.13156 4.82005 2.89471 4.60005 2.89471H4.20005C3.98005 2.89471 3.80005 3.13156 3.80005 3.42103C3.80005 3.7105 3.98005 3.94735 4.20005 3.94735Z" fill="currentColor"/>
<path d="M5.99998 3.94735H6.39998C6.61998 3.94735 6.79998 3.7105 6.79998 3.42103C6.79998 3.13156 6.61998 2.89471 6.39998 2.89471H5.99998C5.77998 2.89471 5.59998 3.13156 5.59998 3.42103C5.59998 3.7105 5.77998 3.94735 5.99998 3.94735Z" fill="currentColor"/>
<path d="M17 4.47369H15.6C15.38 4.47369 15.2 4.71054 15.2 5.00001C15.2 5.28948 15.38 5.52633 15.6 5.52633H17C17.22 5.52633 17.4 5.28948 17.4 5.00001C17.4 4.71054 17.22 4.47369 17 4.47369Z" fill="currentColor"/>
<path d="M17 7.10522H15.6C15.38 7.10522 15.2 7.34207 15.2 7.63154C15.2 7.92101 15.38 8.15786 15.6 8.15786H17C17.22 8.15786 17.4 7.92101 17.4 7.63154C17.4 7.34207 17.22 7.10522 17 7.10522Z" fill="currentColor"/>
<path d="M17 9.73682H15.6C15.38 9.73682 15.2 9.97366 15.2 10.2631C15.2 10.5526 15.38 10.7894 15.6 10.7894H17C17.22 10.7894 17.4 10.5526 17.4 10.2631C17.4 9.97366 17.22 9.73682 17 9.73682Z" fill="currentColor"/>
</g>
<defs>
<clipPath id="clip0_722_527">
<rect width="20" height="20" fill="none"/>
</clipPath>
</defs>
</svg>
