<svg width="20" height="20" viewBox="0 0 20 20" xmlns="http://www.w3.org/2000/svg">
<path d="M10.125 16.6666C9.0694 16.6666 8.1319 16.3541 7.31246 15.7291C6.49302 15.1041 5.90274 14.25 5.54163 13.1666L7.37496 12.375C7.5694 13.0416 7.90621 13.5903 8.38538 14.0208C8.86454 14.4514 9.45829 14.6666 10.1666 14.6666C10.75 14.6666 11.2777 14.5278 11.75 14.25C12.2222 13.9722 12.4583 13.5278 12.4583 12.9166C12.4583 12.6666 12.4097 12.4375 12.3125 12.2291C12.2152 12.0208 12.0833 11.8333 11.9166 11.6666H14.25C14.3194 11.8611 14.3715 12.059 14.4062 12.2604C14.4409 12.4618 14.4583 12.6805 14.4583 12.9166C14.4583 14.1111 14.0312 15.0347 13.177 15.6875C12.3229 16.3403 11.3055 16.6666 10.125 16.6666ZM1.66663 9.99998V8.33331H18.3333V9.99998H1.66663ZM10.0416 3.20831C10.9583 3.20831 11.7604 3.43401 12.4479 3.8854C13.1354 4.33679 13.6666 5.02776 14.0416 5.95831L12.2083 6.77081C12.0833 6.36804 11.8507 6.00692 11.5104 5.68748C11.1701 5.36804 10.6944 5.20831 10.0833 5.20831C9.51385 5.20831 9.04163 5.33679 8.66663 5.59373C8.29163 5.85067 8.08329 6.20831 8.04163 6.66665H6.04163C6.0694 5.70831 6.44788 4.89234 7.17704 4.21873C7.90621 3.54512 8.86107 3.20831 10.0416 3.20831Z" fill="currentColor"/>
</svg>
