<svg version="1.1" id="Layer_1" xmlns="http://www.w3.org/2000/svg" xmlns:xlink="http://www.w3.org/1999/xlink" x="0px" y="0px"
	 width="100%" viewBox="0 0 1024 1024" enable-background="new 0 0 1024 1024" xml:space="preserve">
<path fill="white" opacity="1.000000" stroke="none" 
	d="
M910.649292,518.999878 
	C910.648987,461.003235 911.109558,403.501801 910.509949,346.011383 
	C909.985107,295.686462 909.813416,245.363144 909.988403,195.041748 
	C910.057312,175.212189 896.037537,155.800095 874.907104,151.856567 
	C871.182922,151.161530 867.285278,151.227081 863.467712,151.226776 
	C724.476135,151.215820 585.484436,151.329941 446.493103,151.156128 
	C426.214203,151.130768 412.224152,159.996643 403.502045,177.850204 
	C401.218842,182.523727 400.264526,187.580612 400.272461,192.837799 
	C400.314087,220.336044 400.289307,247.834366 400.287292,275.332672 
	C400.286713,283.339111 400.286163,283.339508 392.040253,283.335022 
	C386.540588,283.332001 381.037567,283.210388 375.542511,283.367432 
	C372.181305,283.463531 370.775146,282.307220 370.782104,278.775085 
	C370.838989,249.944244 370.026276,221.090332 370.914551,192.287735 
	C372.128906,152.912827 402.894714,125.935204 435.112976,122.468437 
	C438.424500,122.112091 441.704285,121.672852 445.038239,121.672989 
	C585.196716,121.678825 725.355225,121.666229 865.513672,121.689362 
	C900.800842,121.695190 928.974121,143.649979 937.674194,177.850983 
	C939.315857,184.304459 940.262939,190.891830 940.263977,197.558563 
	C940.293579,382.547699 940.316711,567.536865 940.291992,752.526001 
	C940.286987,789.867493 914.588379,820.487427 877.822510,827.026062 
	C873.260620,827.837280 868.551697,828.140442 863.910706,828.142578 
	C726.085449,828.207520 588.260254,828.172180 450.435028,828.250122 
	C431.594788,828.260803 414.095428,824.326477 399.020142,812.434021 
	C381.084015,798.284729 371.367126,779.620239 370.842987,756.897400 
	C370.228210,730.246338 370.763763,703.570068 370.599091,676.905945 
	C370.572906,672.672791 372.060638,671.444153 376.102295,671.580383 
	C383.577301,671.832275 391.066895,671.652344 398.303680,671.652344 
	C399.910004,673.831238 399.325134,675.898804 399.328156,677.831848 
	C399.366516,702.497009 399.348541,727.162170 399.350525,751.827393 
	C399.352692,779.087219 418.963867,798.643005 446.355652,798.644653 
	C585.847534,798.653259 725.339355,798.653625 864.831238,798.643433 
	C891.221191,798.641541 910.647461,779.263306 910.649170,752.981140 
	C910.654419,675.154053 910.650024,597.327026 910.649292,518.999878 
z"/>
<path fill="white" opacity="1.000000" stroke="none" 
	d="
M220.362335,583.710022 
	C205.735367,574.694031 191.432617,565.845398 177.070435,557.094421 
	C174.689835,555.643921 173.611664,553.901550 173.614624,551.043762 
	C173.665955,501.388916 173.663193,451.733856 173.566040,402.079102 
	C173.559906,398.943695 174.884842,397.261444 177.383591,395.762421 
	C219.512466,370.488953 261.609955,345.163116 303.711670,319.844269 
	C311.418793,315.209381 319.110992,310.549530 326.816925,305.912598 
	C328.201965,305.079163 329.507233,303.983459 331.824554,304.130066 
	C331.824554,419.980927 331.824554,535.657593 331.824554,652.540527 
	C294.409271,629.439819 257.537964,606.674988 220.362335,583.710022 
z"/>
<path fill="white" opacity="1.000000" stroke="none" 
	d="
M803.000122,703.637756 
	C819.996216,703.644348 836.492371,703.627502 852.988403,703.667419 
	C861.486389,703.687927 866.842529,708.419434 867.412964,716.276672 
	C868.081726,725.488037 863.871399,731.119995 855.100403,732.601013 
	C853.142151,732.931702 851.130920,733.090332 849.144104,733.090637 
	C721.341187,733.111572 593.538269,733.111511 465.735321,733.086060 
	C462.414398,733.085388 459.051666,733.060730 455.780762,732.567444 
	C446.970917,731.238708 442.038513,725.117310 442.679474,716.695618 
	C443.277039,708.844116 449.345734,703.641235 458.081360,703.640137 
	C548.226685,703.628845 638.371948,703.637085 728.517273,703.639282 
	C753.178223,703.639893 777.839111,703.638428 803.000122,703.637756 
z"/>
<path fill="white" opacity="1.000000" stroke="none" 
	d="
M738.999878,245.374451 
	C645.209351,245.372681 551.918823,245.374146 458.628265,245.361435 
	C450.878052,245.360367 446.133698,242.371445 443.671570,236.085861 
	C440.010071,226.738449 446.501984,216.855759 456.555420,216.686432 
	C464.882568,216.546173 473.213959,216.651321 481.543457,216.651474 
	C605.153442,216.653717 728.763428,216.677795 852.373352,216.598007 
	C858.702515,216.593918 863.562561,218.632828 866.175842,224.424850 
	C868.574707,229.741623 868.344055,235.132324 864.688660,239.984558 
	C861.638123,244.033859 857.450684,245.408218 852.448242,245.398926 
	C814.798889,245.328979 777.149414,245.368607 738.999878,245.374451 
z"/>
<path fill="white" opacity="1.000000" stroke="none" 
	d="
M487.791138,660.561951 
	C476.556427,654.284607 475.443115,644.376526 484.677673,634.985474 
	C515.350159,603.792908 535.747559,566.813232 544.780212,524.124390 
	C559.129761,456.307159 544.252136,394.875183 501.962006,340.040894 
	C496.464691,332.912964 490.401733,326.273621 483.961792,319.966431 
	C477.227203,313.370636 476.585052,304.582123 482.184845,298.594635 
	C488.362305,291.989471 497.265381,291.729767 504.359772,298.527802 
	C528.130310,321.305298 546.063660,348.154327 559.237610,378.252563 
	C569.310852,401.266510 575.559021,425.362976 578.105652,450.269623 
	C582.372803,492.003326 576.853577,532.506042 561.009521,571.479858 
	C549.222900,600.473022 532.957520,626.630005 511.583282,649.548706 
	C509.540405,651.739197 507.214447,653.677368 505.274994,655.950378 
	C500.595184,661.434998 494.807220,662.566833 487.791138,660.561951 
z"/>
<path fill="white" opacity="1.000000" stroke="none" 
	d="
M160.334686,423.000519 
	C160.333725,463.970306 160.246658,504.440491 160.440216,544.909363 
	C160.464417,549.966858 159.043030,551.450867 153.978180,551.383484 
	C133.497040,551.111084 113.009224,551.152954 92.526329,551.343201 
	C87.910027,551.386047 86.567673,549.821899 86.581520,545.286255 
	C86.719711,499.987122 86.730942,454.687195 86.569733,409.388245 
	C86.552917,404.663635 88.169724,403.522522 92.604752,403.562317 
	C113.254288,403.747589 133.908035,403.767517 154.556580,403.527618 
	C159.240814,403.473206 160.737885,405.006714 160.401352,409.515533 
	C160.079971,413.821564 160.333618,418.170471 160.334686,423.000519 
z"/>
<path fill="white" opacity="1.000000" stroke="none" 
	d="
M422.949219,613.961426 
	C419.159027,617.249634 415.759888,620.464478 412.073486,623.306824 
	C405.651184,628.258606 396.241882,627.295532 391.359650,621.417969 
	C386.274323,615.295837 386.902283,607.276489 393.306366,601.445923 
	C405.389923,590.444641 417.273926,579.279419 426.784332,565.869080 
	C443.078033,542.893738 453.740387,517.680420 455.622955,489.385559 
	C459.167572,436.110443 437.665100,393.488708 398.859283,358.473236 
	C395.294800,355.256866 391.051666,352.635620 389.172943,347.915955 
	C387.007965,342.477051 388.453156,336.075745 392.555939,332.276581 
	C396.765137,328.378906 403.867645,327.389130 409.389709,330.004608 
	C413.355225,331.882874 416.567841,334.833191 419.806610,337.694183 
	C453.534149,367.488007 475.413513,404.337799 483.038361,448.707672 
	C491.100830,495.624146 480.148407,538.825928 453.750336,578.209839 
	C445.006592,591.254883 434.921326,603.200012 422.949219,613.961426 
z"/>
<path fill="white" opacity="1.000000" stroke="none" 
	d="
M584.619263,626.350342 
	C587.879517,624.476074 590.945251,623.585571 594.426819,623.588318 
	C680.254639,623.655640 766.082581,623.645020 851.910461,623.663086 
	C859.761658,623.664734 865.151489,627.133301 867.155212,633.335388 
	C870.476135,643.614441 863.789734,652.980286 852.707397,653.229675 
	C843.712708,653.432129 834.709595,653.255737 825.710205,653.256592 
	C749.215088,653.263611 672.719910,653.279419 596.224792,653.273010 
	C586.761902,653.272217 581.664246,649.885193 579.377502,642.249146 
	C577.480408,635.914307 579.656921,630.856079 584.619263,626.350342 
z"/>
<path fill="white" opacity="1.000000" stroke="none" 
	d="
M611.000061,323.373840 
	C604.669983,323.366577 598.838562,323.430756 593.009949,323.333649 
	C585.492615,323.208466 579.594666,317.580872 578.791809,309.921539 
	C578.087524,303.202240 583.076172,296.250610 589.958862,294.755890 
	C592.696228,294.161407 595.567566,293.958527 598.377869,293.958527 
	C647.517883,293.958221 696.658081,293.956512 745.797852,294.083435 
	C781.427917,294.175476 817.057373,294.456085 852.687134,294.650208 
	C861.971375,294.700775 867.367676,300.002258 867.344177,309.061951 
	C867.321533,317.820770 861.614258,323.346588 852.369995,323.349426 
	C772.080017,323.374146 691.789978,323.369537 611.000061,323.373840 
z"/>
<path fill="white" opacity="1.000000" stroke="none" 
	d="
M653.010986,374.648621 
	C719.481934,374.650208 785.455139,374.646637 851.428345,374.660400 
	C859.703613,374.662109 865.029663,378.017273 867.148315,384.431091 
	C870.270691,393.883667 864.064758,403.329651 854.097229,404.259827 
	C852.939819,404.367828 851.766479,404.320404 850.600525,404.320465 
	C782.461548,404.323639 714.322510,404.329865 646.183533,404.318939 
	C636.232361,404.317352 630.300781,399.390259 629.290833,390.402985 
	C628.399231,382.468597 634.503174,375.143219 642.519104,374.699890 
	C645.841309,374.516113 649.181335,374.656067 653.010986,374.648621 
z"/>
<path fill="white" opacity="1.000000" stroke="none" 
	d="
M855.398315,457.843323 
	C864.523865,460.563324 869.235229,466.696838 868.247742,474.061157 
	C867.116455,482.498413 860.968994,487.347076 851.217468,487.349487 
	C783.412231,487.366211 715.606995,487.367767 647.801758,487.354858 
	C638.289490,487.353058 631.812195,481.403534 631.680359,472.676361 
	C631.546326,463.803253 638.105713,457.717041 648.049133,457.713043 
	C709.856873,457.688110 771.664551,457.701630 833.472290,457.710052 
	C840.635376,457.711029 847.798523,457.759094 855.398315,457.843323 
z"/>
<path fill="white" opacity="1.000000" stroke="none" 
	d="
M792.999878,571.374390 
	C742.861206,571.372498 693.222595,571.383301 643.583923,571.355347 
	C635.368958,571.350708 630.312195,566.828247 629.031799,558.579651 
	C628.004761,551.963501 632.329041,545.275269 639.087463,543.266296 
	C640.647766,542.802490 642.357666,542.675232 643.998840,542.674683 
	C713.792786,542.649231 783.586792,542.645264 853.380737,542.673523 
	C860.842529,542.676575 866.316101,546.952148 867.999207,553.816040 
	C869.463440,559.787476 866.507202,566.569885 861.150208,569.684509 
	C858.750488,571.079712 856.179504,571.378113 853.466003,571.374146 
	C833.477295,571.345093 813.488647,571.367737 792.999878,571.374390 
z"/>
<path fill="white" opacity="1.000000" stroke="none" 
	d="
M364.961304,420.034851 
	C362.454956,417.339539 360.200745,414.893402 357.899353,412.492462 
	C352.799866,407.172272 352.058411,399.339539 356.156311,393.763153 
	C360.502411,387.849091 368.059174,386.205109 374.831604,389.706177 
	C378.305634,391.502106 380.976257,394.278046 383.507843,397.140656 
	C401.273529,417.229370 411.253510,440.599121 413.405365,467.396881 
	C415.898010,498.439606 407.693695,526.227112 388.804382,550.923584 
	C385.553406,555.174011 381.861145,559.036011 377.851074,562.530029 
	C371.542358,568.026855 362.716705,567.468994 357.189880,561.520813 
	C351.954346,555.886108 352.441071,547.257385 358.304291,541.366516 
	C378.484131,521.091675 386.984985,496.413330 384.442749,468.239227 
	C382.847961,450.564911 376.409027,434.355194 364.961304,420.034851 
z"/>
</svg>