<svg version="1.1" id="Layer_1" xmlns="http://www.w3.org/2000/svg" xmlns:xlink="http://www.w3.org/1999/xlink" x="0px" y="0px"
	 width="100%" viewBox="0 0 1024 1024" enable-background="new 0 0 1024 1024" xml:space="preserve">
     <g transform="scale(2)">
     <path d="M0 0 C8.23488771 10.79216053 6.60104769 23.63613319 5.05004883 36.48706055 C2.03253922 58.1767742 -9.14089386 81.67609779 -26 96 C-26.99515625 96.85078125 -27.9903125 97.7015625 -29.015625 98.578125 C-42.67624366 109.92993433 -58.24078644 118.46296949 -76 121 C-75.505 135.355 -75.505 135.355 -75 150 C-72.83179688 149.96519531 -70.66359375 149.93039062 -68.4296875 149.89453125 C-66.31479202 149.87109201 -64.19991137 149.85290045 -62.08496094 149.83520508 C-60.62232925 149.82017804 -59.15974218 149.79975045 -57.69726562 149.77368164 C-55.5871272 149.73702733 -53.47758774 149.72021324 -51.3671875 149.70703125 C-49.46622314 149.68346558 -49.46622314 149.68346558 -47.52685547 149.65942383 C-43.65055043 150.03374513 -41.28704436 150.94085374 -38 153 C-33.89731452 159.15402823 -34.42187201 168.89997834 -35.41796875 176.125 C-36.40691947 179.31088153 -38.43637521 180.99912212 -41 183 C-43.3241593 184.16207965 -44.68056022 184.13300246 -47.26899719 184.14717102 C-48.16483521 184.15432632 -49.06067322 184.16148163 -49.98365784 184.16885376 C-50.96914108 184.17154266 -51.95462433 184.17423157 -52.9699707 184.17700195 C-54.00586334 184.18357315 -55.04175598 184.19014435 -56.10903931 184.19691467 C-59.54795396 184.21667682 -62.9868249 184.2283163 -66.42578125 184.23828125 C-67.59819052 184.24235678 -68.77059978 184.2464323 -69.97853661 184.25063133 C-76.18287354 184.27150373 -82.38718827 184.28580084 -88.59155273 184.29516602 C-95.00777956 184.30623758 -101.42366025 184.34064315 -107.8397646 184.38033772 C-112.76652177 184.4064515 -117.6931958 184.41485317 -122.6200161 184.41844749 C-124.98554003 184.42332638 -127.35105994 184.43497714 -129.71651649 184.45348549 C-133.02524062 184.47776659 -136.33306024 184.47693182 -139.6418457 184.4699707 C-141.11096153 184.48918579 -141.11096153 184.48918579 -142.60975647 184.50878906 C-146.93757285 184.47555712 -149.33487294 184.41059886 -153.08488464 182.09562683 C-157.11000462 177.69111439 -156.29488493 172.89387806 -156.375 167.1875 C-156.43107422 165.68993164 -156.43107422 165.68993164 -156.48828125 164.16210938 C-156.57687195 156.77462906 -156.57687195 156.77462906 -153.6640625 152.86328125 C-149.36772087 149.85836196 -145.75579653 149.86427364 -140.70703125 149.90234375 C-139.64798836 149.90446617 -139.64798836 149.90446617 -138.56755066 149.90663147 C-136.31582374 149.91222236 -134.06419679 149.92477312 -131.8125 149.9375 C-130.28450665 149.94251618 -128.75651173 149.94707888 -127.22851562 149.95117188 C-123.48560772 149.9613373 -119.74291557 149.98091431 -116 150 C-116 140.76 -116 131.52 -116 122 C-119.7125 121.01 -119.7125 121.01 -123.5 120 C-150.13221692 112.37864459 -172.19569799 94.96798404 -186 71 C-194.36321619 55.72712408 -198.06715752 38.58021079 -198.375 21.3125 C-198.40118408 20.43311768 -198.42736816 19.55373535 -198.4543457 18.64770508 C-198.47267768 11.42558397 -196.90830798 5.35022747 -192.09765625 -0.19140625 C-185.63362284 -4.5462541 -179.66692266 -5.2697432 -172 -4 C-166.28972322 -1.99269564 -163.08950743 1.68281499 -160.03027344 6.75683594 C-158.30846333 10.50564903 -158.34617107 14.05761466 -158.375 18.125 C-157.98199442 34.73635948 -154.19988191 48.69094356 -144 62 C-143.39285156 62.82886719 -142.78570312 63.65773438 -142.16015625 64.51171875 C-133.52344092 74.46034021 -118.5081345 82.01659951 -105.46166992 83.23754883 C-85.42289786 84.22442272 -69.39851874 81.02265164 -53.8125 67.75 C-39.19779974 54.02867483 -34.94141776 37.37829267 -33.87695312 18.07226562 C-33.29631377 9.33128932 -31.78082033 3.95389102 -25 -2 C-17.77782857 -6.65946544 -6.49189293 -5.56447965 0 0 Z " fill="white" transform="translate(214,207)"/>
<path d="M0 0 C9.5340034 7.52606197 15.16804221 17.09109675 17.50390625 28.9765625 C17.67994535 31.63533043 17.7784908 34.18486251 17.76269531 36.83862305 C17.76619995 37.57968796 17.76970459 38.32075287 17.77331543 39.08427429 C17.78204722 41.51070806 17.77631105 43.93684499 17.76953125 46.36328125 C17.77088107 48.069484 17.77282424 49.77568637 17.77532959 51.48188782 C17.77826991 55.0516833 17.77402112 58.62137836 17.76464844 62.19116211 C17.75329802 66.73203706 17.75979227 71.27267436 17.77179337 75.81354046 C17.77907875 79.33720128 17.77669292 82.86080737 17.77153778 86.38446999 C17.77021741 88.05675091 17.77179145 89.72903705 17.77649689 91.40131187 C17.81445746 108.69239277 16.94361689 123.80172457 4.546875 137.12890625 C-6.33682987 146.97210397 -18.66631602 150.36334179 -33.0625 150.18359375 C-45.51949807 149.4324892 -57.41181024 144.24735299 -65.96875 135 C-73.91358302 124.47462019 -76.63625235 113.97371582 -76.65722656 101.00683594 C-76.66219147 100.25441116 -76.66715637 99.50198639 -76.67227173 98.72676086 C-76.68675205 96.26314342 -76.69367144 93.79959033 -76.69921875 91.3359375 C-76.70204613 90.48667946 -76.7048735 89.63742142 -76.70778656 88.76242828 C-76.72272152 84.26821081 -76.73198698 79.77402496 -76.73632812 75.27978516 C-76.74180513 70.66926192 -76.76583332 66.0590351 -76.79430008 61.44860458 C-76.81304173 57.87438137 -76.81813815 54.30022795 -76.819664 50.72595978 C-76.82266497 49.02771637 -76.83060556 47.32947342 -76.84384918 45.63127899 C-76.96016997 29.57017832 -75.18115402 16.15188719 -63.93359375 3.7890625 C-46.24864717 -12.94544549 -19.63861339 -13.43544148 0 0 Z " fill="white" transform="translate(147.49609375,123.0234375)"/>
<path d="M0 0 C1.01869171 -0.00335861 2.03738342 -0.00671722 3.08694458 -0.01017761 C6.44762397 -0.0196599 9.80825338 -0.02162945 13.16894531 -0.02270508 C15.51296 -0.02591987 17.8569745 -0.02928411 20.20098877 -0.03279114 C25.11348943 -0.03877583 30.02597251 -0.04063175 34.93847656 -0.04003906 C41.21722381 -0.03993755 47.49585769 -0.05358121 53.77457809 -0.07081127 C58.6166027 -0.08195921 63.45860016 -0.0839574 68.30063629 -0.08342934 C70.61455933 -0.08460556 72.92848315 -0.0890072 75.24239349 -0.0967617 C78.48719597 -0.10661664 81.73175568 -0.10366167 84.9765625 -0.09765625 C85.92236176 -0.10327576 86.86816101 -0.10889526 87.84262085 -0.11468506 C100.33515659 -0.05626678 111.14008755 2.55608112 120.49707031 11.20776367 C128.58529685 19.7692375 131.88986488 29.2404187 131.90820312 40.80615234 C131.91316803 41.56135162 131.91813293 42.3165509 131.92324829 43.09463501 C131.93780895 45.5841769 131.94466264 48.07365501 131.95019531 50.56323242 C131.95595292 52.30332947 131.96171057 54.04342651 131.96746826 55.78352356 C131.97796173 59.43088067 131.98381483 63.07821586 131.98730469 66.72558594 C131.99277796 71.3778687 132.01678796 76.02985712 132.04527664 80.68204784 C132.06398982 84.27764201 132.06911328 87.87316659 132.07064056 91.46880531 C132.07364938 93.18265703 132.0816174 94.89650805 132.09482574 96.61031151 C132.20206774 111.59802452 130.55034124 122.45517676 120.15722656 133.89526367 C112.38396599 141.19338607 102.41983219 145.40857947 91.82150269 145.07757568 C90.69797897 145.04147186 90.69797897 145.04147186 89.55175781 145.00463867 C87.08986464 144.97324171 84.62802931 144.95334747 82.16601562 144.93383789 C80.48032717 144.90827755 78.79481731 144.86133086 77.11035156 144.79223633 C67.60475189 144.197278 67.60475189 144.197278 58.9296875 147.38677979 C55.71102351 150.3768509 53.22950208 153.79204745 50.85760498 157.4723053 C49.08489689 160.1427909 47.04262615 162.5539604 44.99707031 165.02026367 C44.27519531 165.90327148 43.55332031 166.7862793 42.80957031 167.69604492 C34.03739289 178.11300561 34.03739289 178.11300561 28.74707031 179.14526367 C22.6568106 179.14526367 19.67993373 177.87290058 15.19238281 173.81323242 C12.11998842 170.26752322 11.50012183 167.37062747 11.55175781 162.72338867 C11.55820313 161.69858398 11.56464844 160.6737793 11.57128906 159.61791992 C11.58804688 158.55444336 11.60480469 157.4909668 11.62207031 156.39526367 C11.63109375 155.31631836 11.64011719 154.23737305 11.64941406 153.12573242 C11.67295726 150.4653509 11.70584232 147.80542031 11.74707031 145.14526367 C10.83380981 145.16882935 10.83380981 145.16882935 9.90209961 145.19287109 C-6.50789987 145.56078046 -20.53141817 145.62533702 -33.47949219 134.17651367 C-44.39628993 122.89173399 -45.00231726 110.57507551 -44.88183594 95.76635742 C-44.88266654 93.90413779 -44.88513311 92.04191825 -44.8891449 90.17970276 C-44.89198812 86.29568148 -44.87744572 82.41224156 -44.84985352 78.52832031 C-44.81574953 73.5768294 -44.82181112 68.62637504 -44.84051609 63.67483425 C-44.85113781 59.83551048 -44.84210192 55.99642348 -44.82713127 52.15712166 C-44.82198849 50.33247648 -44.82238322 48.50780617 -44.82867622 46.6831646 C-44.85630753 33.86291632 -44.50466255 22.66943713 -35.09667969 12.92260742 C-34.18402344 12.04282227 -34.18402344 12.04282227 -33.25292969 11.14526367 C-32.70636719 10.58967773 -32.15980469 10.0340918 -31.59667969 9.46166992 C-22.70145706 1.04897117 -11.69772177 -0.00555746 0 0 Z M-22.25292969 22.14526367 C-23.20167969 22.94963867 -24.15042969 23.75401367 -25.12792969 24.58276367 C-30.50271686 31.06412467 -29.5304239 39.33788783 -29.48339844 47.32104492 C-29.48294022 48.60021286 -29.48248199 49.8793808 -29.48200989 51.1973114 C-29.48045029 53.90470849 -29.47221269 56.6119724 -29.45874023 59.31933594 C-29.44193652 62.73371054 -29.43803487 66.14793852 -29.43852043 69.56234932 C-29.43826639 81.22859741 -29.43773835 92.9060595 -28.92871094 104.56323242 C-28.87239502 105.86413818 -28.8160791 107.16504395 -28.75805664 108.50537109 C-27.79278242 115.46103732 -25.80919268 120.62272403 -20.25292969 125.14526367 C-14.38245665 128.56970628 -9.35015771 129.25364574 -2.63183594 129.35620117 C-1.36662109 129.38456055 -0.10140625 129.41291992 1.20214844 129.44213867 C3.85304968 129.49414262 6.50411358 129.53843741 9.15527344 129.57495117 C10.42177734 129.60588867 11.68828125 129.63682617 12.99316406 129.66870117 C14.14486084 129.68852051 15.29655762 129.70833984 16.4831543 129.72875977 C20.14452328 130.19598211 22.59924528 131.24347091 25.74707031 133.14526367 C26.94977996 135.55068296 26.95023695 137.24892958 27.06347656 139.93432617 C27.12631836 141.34584961 27.12631836 141.34584961 27.19042969 142.78588867 C27.22974609 143.77073242 27.2690625 144.75557617 27.30957031 145.77026367 C27.35275391 146.7628418 27.3959375 147.75541992 27.44042969 148.77807617 C27.546681 151.23366205 27.64871995 153.68935071 27.74707031 156.14526367 C28.73707031 156.47526367 29.72707031 156.80526367 30.74707031 157.14526367 C34.70364399 152.70525012 38.55246275 148.19318041 42.30957031 143.58276367 C52.23958792 131.39900487 52.23958792 131.39900487 54.74707031 130.14526367 C57.76358724 130.03621711 60.76107906 129.98380916 63.77832031 129.96948242 C65.64031051 129.94626241 67.50228969 129.92214423 69.36425781 129.8972168 C72.29564553 129.86227278 75.22663364 129.83285794 78.15820312 129.81933594 C94.29034507 130.23556615 94.29034507 130.23556615 108.54760742 123.69042969 C116.92525478 115.1428554 116.18437193 103.06583971 116.11035156 91.91870117 C116.1098317 90.36032105 116.11035428 88.80194027 116.11186218 87.24356079 C116.11177298 83.99422277 116.10144811 80.74513553 116.08325195 77.49584961 C116.06052869 73.3491082 116.06003321 69.20273105 116.0667696 65.05594444 C116.07012385 61.84387015 116.06345278 58.63187762 116.05364037 55.41981888 C116.04981602 53.89133762 116.04862856 52.36284723 116.05022621 50.83436203 C116.05702806 34.14967766 116.05702806 34.14967766 107.74707031 20.14526367 C97.11309298 13.7251948 82.66583273 15.52785135 70.79394531 15.54370117 C68.36403107 15.53591665 65.93411951 15.52724514 63.50421143 15.51773071 C58.43077738 15.50286548 53.35762191 15.5033483 48.28417969 15.51391602 C41.79202301 15.52553865 35.30100136 15.49153664 28.80903244 15.44522667 C23.79890311 15.41573952 18.78904747 15.41400946 13.77884674 15.42024612 C11.38510122 15.41922166 8.99133998 15.40878282 6.59767914 15.38862228 C3.25186919 15.36388264 -0.09172426 15.37747497 -3.4375 15.40063477 C-4.90894974 15.37770355 -4.90894974 15.37770355 -6.41012573 15.35430908 C-13.41010665 15.4611398 -17.15300168 17.43519384 -22.25292969 22.14526367 Z " fill="white" transform="translate(227.2529296875,36.854736328125)"/>
<path d="M0 0 C1.21734077 -0.00744736 1.21734077 -0.00744736 2.45927429 -0.01504517 C5.15148763 -0.0296828 7.84364203 -0.03647182 10.53588867 -0.04199219 C12.40435285 -0.04774279 14.272817 -0.05350054 16.14128113 -0.05926514 C20.06294022 -0.06978 23.98457879 -0.07561933 27.90625 -0.07910156 C32.93015375 -0.08458407 37.95378618 -0.10860483 42.97760487 -0.13707352 C46.83893118 -0.1557034 50.70019222 -0.16090571 54.56155968 -0.16243744 C56.41351491 -0.16546424 58.26546898 -0.17349372 60.11738014 -0.18662262 C62.70997322 -0.20368875 65.3019047 -0.20180146 67.89453125 -0.1953125 C68.65887482 -0.20452728 69.42321838 -0.21374207 70.21072388 -0.22323608 C74.68367839 -0.18818888 77.63509444 0.30689253 81.14135742 3.16113281 C82.66626934 6.74136079 83.30391526 9.11611816 82.70385742 12.97363281 C80.38984475 16.21325055 77.9697801 16.29445291 74.14135742 17.16113281 C71.52969643 17.34018199 69.02861146 17.43542978 66.42114258 17.41992188 C65.68355209 17.42342651 64.94596161 17.42693115 64.1860199 17.43054199 C61.76738849 17.43928572 59.34905389 17.43353516 56.93041992 17.42675781 C55.23562566 17.42810687 53.54083177 17.4300494 51.84603882 17.43255615 C48.30056052 17.4354977 44.7551833 17.4312421 41.2097168 17.421875 C36.6852339 17.41049853 32.16098879 17.41703463 27.63651466 17.42901993 C24.13789103 17.43627968 20.63932287 17.43393148 17.14069748 17.42876434 C15.47348375 17.4274383 13.80626484 17.42903857 12.13905716 17.43372345 C-4.8893384 17.47106943 -4.8893384 17.47106943 -11.85864258 15.16113281 C-14.33903165 11.44054921 -14.32201461 9.56316711 -13.85864258 5.16113281 C-9.78296469 -0.00139252 -6.21491411 0.00901772 0 0 Z " fill="white" transform="translate(235.858642578125,100.8388671875)"/>
<path d="M0 0 C1.27870972 -0.00810448 1.27870972 -0.00810448 2.58325195 -0.01637268 C5.39960506 -0.02887447 8.2149388 -0.0123595 11.03125 0.00561523 C12.98893284 0.00546028 14.94661599 0.00397189 16.90429688 0.00120544 C21.00664841 -0.0001792 25.10865061 0.01239052 29.2109375 0.03515625 C34.47035335 0.06354098 39.72918866 0.06080439 44.98864746 0.04806614 C49.03097495 0.04111236 53.07316817 0.04889483 57.11547852 0.06132317 C59.05476364 0.06584058 60.99406317 0.06617194 62.93334961 0.06225777 C65.64336714 0.05934851 68.35258366 0.07583875 71.0625 0.09765625 C72.26579956 0.09090378 72.26579956 0.09090378 73.4934082 0.08401489 C76.76247325 0.12776048 79.11978298 0.27277819 82.00585938 1.87852478 C84.0696779 4.07465578 84.38849619 5.50387907 84.53125 8.50170898 C83.81935383 11.28457584 83.32501748 12.93207116 80.96031189 14.6290741 C77.4559824 15.88799639 74.03058759 15.78815765 70.35375977 15.77636719 C69.53215363 15.78147812 68.71054749 15.78658905 67.86404419 15.79185486 C65.15017395 15.80574626 62.4365578 15.80479446 59.72265625 15.80249023 C57.83462937 15.80637736 55.94660336 15.81071207 54.05857849 15.81547546 C50.10176763 15.82293666 46.14504599 15.82264708 42.18823242 15.81738281 C37.1195229 15.81158779 32.05117875 15.82852045 26.98252964 15.85172749 C23.08344897 15.86646438 19.1844563 15.86733659 15.28535271 15.86421776 C13.41665867 15.86473097 11.5479597 15.86996879 9.67929268 15.88002968 C7.06533232 15.89237614 4.45208386 15.88561335 1.83813477 15.87402344 C1.06758255 15.88166718 0.29703033 15.88931091 -0.49687195 15.89718628 C-4.9892488 15.85319476 -7.90316664 15.29672097 -11.46875 12.50170898 C-12.88916821 9.66087257 -12.78327272 7.64693621 -12.46875 4.50170898 C-9.19185531 -0.25663979 -5.33495764 -0.06429596 0 0 Z " fill="white" transform="translate(234.46875,74.498291015625)"/>
<path d="M0 0 C1.02794174 -0.00637985 2.05588348 -0.0127597 3.11497498 -0.01933289 C4.22437943 -0.02044571 5.33378387 -0.02155853 6.47680664 -0.02270508 C7.61726944 -0.02603348 8.75773224 -0.02936188 9.93275452 -0.03279114 C12.34611609 -0.03785665 14.75948468 -0.04019958 17.17285156 -0.04003906 C20.86868806 -0.04222552 24.56422611 -0.06038539 28.26000977 -0.0793457 C30.6031077 -0.08227967 32.94620706 -0.08426444 35.28930664 -0.08520508 C36.39668686 -0.09239059 37.50406708 -0.09957611 38.64500427 -0.10697937 C40.19164513 -0.10236443 40.19164513 -0.10236443 41.76953125 -0.09765625 C42.6753746 -0.09908127 43.58121796 -0.10050629 44.51451111 -0.10197449 C47.13865081 0.16447328 48.73581395 0.72835238 50.94946289 2.14526367 C52.64779878 5.05669662 52.95452127 6.8923447 52.88696289 10.27026367 C51.94946289 13.14526367 51.94946289 13.14526367 49.72645569 14.80168152 C46.72124936 16.25567938 44.8933598 16.51984895 41.58007812 16.51757812 C40.53226669 16.52380692 39.48445526 16.53003571 38.40489197 16.53645325 C37.28393631 16.5272435 36.16298065 16.51803375 35.00805664 16.50854492 C33.26831322 16.50929268 33.26831322 16.50929268 31.49342346 16.51005554 C29.04491459 16.50771785 26.59640319 16.49800739 24.14794922 16.48144531 C20.39732421 16.45782891 16.64740911 16.46089005 12.89672852 16.4675293 C10.51716698 16.46195318 8.13760844 16.45484372 5.75805664 16.44604492 C4.07358681 16.44741203 4.07358681 16.44741203 2.35508728 16.44880676 C0.78809837 16.43450874 0.78809837 16.43450874 -0.81054688 16.41992188 C-2.18691063 16.41301079 -2.18691063 16.41301079 -3.59107971 16.40596008 C-6.23596101 16.1256092 -7.84862197 15.63055182 -10.05053711 14.14526367 C-11.2350502 10.59172439 -11.31695605 7.87512889 -11.05053711 4.14526367 C-8.26001564 0.15880443 -4.56707031 0.01923517 0 0 Z " fill="white" transform="translate(266.050537109375,128.854736328125)"/>
</g>
</svg>

