<svg width="20" height="20" viewBox="0 0 20 20" xmlns="http://www.w3.org/2000/svg">
<path d="M17.5394 11.8L11.8123 17.52C11.6521 17.68 11.4718 17.8 11.2716 17.88C11.0713 17.96 10.8711 18 10.6708 18C10.4706 18 10.2703 17.96 10.0701 17.88C9.86984 17.8 9.68961 17.68 9.52941 17.52L2.46058 10.46C2.31373 10.3133 2.20025 10.1433 2.12015 9.95C2.04005 9.75667 2 9.55333 2 9.34V3.6C2 3.16 2.15686 2.78333 2.47059 2.47C2.78431 2.15667 3.16145 2 3.602 2H9.34919C9.56279 2 9.76971 2.04333 9.96996 2.13C10.1702 2.21667 10.3438 2.33333 10.4906 2.48L17.5394 9.54C17.6996 9.7 17.8164 9.88 17.8899 10.08C17.9633 10.28 18 10.48 18 10.68C18 10.88 17.9633 11.0767 17.8899 11.27C17.8164 11.4633 17.6996 11.64 17.5394 11.8ZM10.6708 16.4L16.398 10.68L9.32916 3.6H3.602V9.32L10.6708 16.4ZM5.60451 6.8C5.93826 6.8 6.22194 6.68333 6.45557 6.45C6.68919 6.21667 6.80601 5.93333 6.80601 5.6C6.80601 5.26667 6.68919 4.98333 6.45557 4.75C6.22194 4.51667 5.93826 4.4 5.60451 4.4C5.27076 4.4 4.98707 4.51667 4.75344 4.75C4.51982 4.98333 4.403 5.26667 4.403 5.6C4.403 5.93333 4.51982 6.21667 4.75344 6.45C4.98707 6.68333 5.27076 6.8 5.60451 6.8Z" fill="currentColor"/>
</svg>
