<svg width="20" height="20" viewBox="0 -4 20 27" xmlns="http://www.w3.org/2000/svg">
<path d="M9.12501 15L13.8333 10.2917L12.625 9.08335L9.10418 12.6042L7.35418 10.8542L6.16668 12.0417L9.12501 15ZM5.00001 18.3334C4.54168 18.3334 4.14932 18.1702 3.82293 17.8438C3.49654 17.5174 3.33334 17.125 3.33334 16.6667V3.33335C3.33334 2.87502 3.49654 2.48266 3.82293 2.15627C4.14932 1.82988 4.54168 1.66669 5.00001 1.66669H11.6667L16.6667 6.66669V16.6667C16.6667 17.125 16.5035 17.5174 16.1771 17.8438C15.8507 18.1702 15.4583 18.3334 15 18.3334H5.00001ZM10.8333 7.50002V3.33335H5.00001V16.6667H15V7.50002H10.8333Z" fill="currentColor"/>
</svg>
