<svg width="20" height="20" viewBox="0 0 20 20" xmlns="http://www.w3.org/2000/svg">
<path d="M8.33333 16.4C9.81111 16.4 11.0694 15.7767 12.1083 14.53C13.1472 13.2833 13.6667 11.7733 13.6667 10C13.6667 8.22667 13.1472 6.71667 12.1083 5.47C11.0694 4.22333 9.81111 3.6 8.33333 3.6H7.98333C7.87222 3.6 7.76667 3.61333 7.66667 3.64C8.3 4.52 8.79167 5.50333 9.14167 6.59C9.49167 7.67667 9.66667 8.81333 9.66667 10C9.66667 11.1867 9.49167 12.3233 9.14167 13.41C8.79167 14.4967 8.3 15.48 7.66667 16.36C7.76667 16.3867 7.87222 16.4 7.98333 16.4H8.33333ZM8.33333 18C7.74444 18 7.16944 17.91 6.60833 17.73C6.04722 17.55 5.51111 17.28 5 16.92C6.03333 16.2 6.84722 15.2267 7.44167 14C8.03611 12.7733 8.33333 11.44 8.33333 10C8.33333 8.56 8.03611 7.22667 7.44167 6C6.84722 4.77333 6.03333 3.8 5 3.08C5.51111 2.72 6.04722 2.45 6.60833 2.27C7.16944 2.09 7.74444 2 8.33333 2C9.25556 2 10.1222 2.21 10.9333 2.63C11.7444 3.05 12.45 3.62 13.05 4.34C13.65 5.06 14.125 5.90667 14.475 6.88C14.825 7.85333 15 8.89333 15 10C15 11.1067 14.825 12.1467 14.475 13.12C14.125 14.0933 13.65 14.94 13.05 15.66C12.45 16.38 11.7444 16.95 10.9333 17.37C10.1222 17.79 9.25556 18 8.33333 18Z" fill="currentColor"/>
</svg>
