<svg width="20" height="20" viewBox="0 0 20 20" xmlns="http://www.w3.org/2000/svg">
<path d="M3.33335 16.6666C2.87502 16.6666 2.48266 16.5035 2.15627 16.1771C1.82988 15.8507 1.66669 15.4583 1.66669 15V4.99998C1.66669 4.54165 1.82988 4.14929 2.15627 3.8229C2.48266 3.49651 2.87502 3.33331 3.33335 3.33331H16.6667C17.125 3.33331 17.5174 3.49651 17.8438 3.8229C18.1702 4.14929 18.3334 4.54165 18.3334 4.99998V15C18.3334 15.4583 18.1702 15.8507 17.8438 16.1771C17.5174 16.5035 17.125 16.6666 16.6667 16.6666H3.33335ZM3.33335 15H12.0834V12.0833H3.33335V15ZM13.75 15H16.6667V7.49998H13.75V15ZM3.33335 10.4166H12.0834V7.49998H3.33335V10.4166Z" fill="currentColor"/>
</svg>
