<svg version="1.1" id="Layer_1" xmlns="http://www.w3.org/2000/svg" xmlns:xlink="http://www.w3.org/1999/xlink" x="0px" y="0px"
	 width="100%" viewBox="0 0 528 528" enable-background="new 0 0 528 528" xml:space="preserve">
<path fill="#000000" opacity="1.000000" stroke="none" 
	d="
M463.000610,360.654297 
	C477.166534,360.648315 490.832611,360.634430 504.498718,360.639343 
	C516.989380,360.643799 523.340637,366.898285 523.345032,379.229553 
	C523.356445,411.561554 523.356567,443.893524 523.346130,476.225525 
	C523.342346,487.861664 517.024353,494.487366 505.335968,494.957550 
	C500.677124,495.144958 496.003876,494.944427 491.338409,495.009674 
	C489.373169,495.037109 487.343964,494.662964 485.214691,495.678467 
	C485.684662,499.457092 488.349457,502.157745 490.072998,505.274902 
	C495.319275,514.763123 490.973419,522.337830 480.089050,522.351135 
	C449.923676,522.388062 419.758179,522.394104 389.592804,522.363586 
	C378.779144,522.352600 374.495972,514.886292 379.712982,505.247894 
	C381.365723,502.194550 383.123993,499.198334 385.086334,495.729889 
	C380.307526,494.370148 375.856171,495.085449 371.493744,495.069916 
	C350.742218,494.996063 345.901642,490.192444 345.910736,469.400330 
	C345.923553,440.068237 345.937744,410.736115 345.954437,381.404022 
	C345.957397,376.177368 346.373779,371.042114 349.835175,366.744965 
	C353.173492,362.600616 357.467773,360.552521 362.869049,360.566986 
	C382.201019,360.618805 401.534302,360.454987 420.864746,360.629181 
	C425.184204,360.668091 426.701965,359.376099 426.673309,354.956238 
	C426.514557,330.458344 426.557800,305.958618 426.655701,281.460022 
	C426.672882,277.155121 425.449860,275.191803 420.644073,275.260376 
	C403.315033,275.507751 385.979492,275.440277 368.648254,275.284180 
	C364.992371,275.251221 363.416321,276.208221 362.873230,280.105896 
	C360.131104,299.785339 352.055878,317.100708 338.552826,331.703156 
	C323.832458,347.622070 305.776428,357.670532 284.317627,361.286377 
	C276.378998,362.624084 276.345886,362.465027 276.344940,370.347015 
	C276.342529,390.512848 276.354248,410.678680 276.343933,430.844513 
	C276.339355,439.765411 273.765717,442.308868 264.683075,442.317535 
	C241.850708,442.339294 219.017014,442.462036 196.186935,442.234558 
	C191.298828,442.185822 189.844223,443.762573 190.006973,448.512695 
	C190.314896,457.501373 190.202621,466.510986 190.037033,475.507721 
	C189.803070,488.219330 183.158203,494.760498 170.400070,494.985321 
	C164.298523,495.092834 158.193512,495.003784 151.546448,495.003784 
	C152.341782,499.679474 154.926208,502.433044 156.552475,505.593964 
	C161.399307,515.014465 157.103683,522.343323 146.512817,522.355957 
	C116.347435,522.392029 86.181976,522.397156 56.016594,522.364502 
	C44.874924,522.352417 40.570869,514.658142 46.178818,504.946625 
	C47.831364,502.084839 49.460876,499.209747 51.338127,495.925781 
	C48.068707,494.455048 45.072803,495.154419 42.203888,495.040833 
	C37.215481,494.843353 32.162975,495.217590 27.243317,494.559662 
	C18.306581,493.364563 12.695231,486.690430 12.681468,477.706573 
	C12.630148,444.208069 12.617220,410.709290 12.688060,377.210846 
	C12.708947,367.334229 19.507574,360.658173 29.456665,360.648041 
	C77.121292,360.599548 124.786003,360.589661 172.450638,360.629395 
	C183.579865,360.638641 189.934692,367.517761 190.049622,379.702209 
	C190.176956,393.200439 190.194733,406.702301 190.015549,420.199310 
	C189.960892,424.317749 191.096100,425.382904 195.440613,425.306396 
	C215.100006,424.960083 234.770477,425.008209 254.432846,425.249023 
	C258.722107,425.301575 259.777588,423.986725 259.730682,419.912476 
	C259.536926,403.082062 259.651642,386.248138 259.647552,369.415497 
	C259.645874,362.523071 259.638245,362.531250 252.726700,361.425079 
	C229.014877,357.630127 209.528320,346.355042 194.225723,327.952271 
	C183.246277,314.748474 176.254593,299.628601 173.587936,282.591797 
	C172.458389,275.375336 172.457764,275.373108 164.865875,275.371613 
	C144.866699,275.367615 124.867508,275.381714 104.868370,275.356354 
	C95.200600,275.344116 92.677925,272.848541 92.673279,263.313263 
	C92.659645,235.314423 92.569649,207.314819 92.774544,179.317474 
	C92.808220,174.716537 91.500259,173.216385 86.888702,173.335999 
	C76.229858,173.612503 65.557899,173.485352 54.892612,173.381744 
	C45.435940,173.289886 41.091183,166.064453 45.402332,157.703339 
	C47.212578,154.192520 49.202427,150.774323 51.721836,146.205658 
	C44.539303,146.205658 38.311390,146.196625 32.083527,146.208786 
	C27.850647,146.217056 23.752480,145.642227 20.176121,143.176041 
	C14.979272,139.592392 12.613694,134.627747 12.627028,128.279907 
	C12.696692,95.114746 12.640339,61.949348 12.678525,28.784096 
	C12.690576,18.318365 19.385162,11.667737 29.904589,11.662027 
	C77.235954,11.636338 124.567345,11.639389 171.898712,11.664712 
	C182.154663,11.670198 188.056259,16.758787 189.611099,26.841347 
	C189.914139,28.806423 190.056046,30.815802 190.057938,32.804951 
	C190.087311,63.470322 190.082382,94.135727 190.079285,124.801125 
	C190.079147,126.133675 190.095901,127.473053 189.976654,128.797714 
	C188.991959,139.736710 182.307831,146.007004 171.287674,146.197220 
	C164.862579,146.308105 158.433990,146.217392 151.409683,146.217392 
	C152.543121,150.924301 155.121521,153.855789 156.835312,157.178391 
	C161.441376,166.108307 157.215393,173.333801 147.150284,173.400238 
	C136.317886,173.471756 125.482544,173.535370 114.652878,173.348282 
	C110.760178,173.281021 109.226051,174.606186 109.425110,178.546951 
	C110.695610,203.699005 109.213852,228.854080 109.344986,254.009537 
	C109.362724,257.412720 110.398476,258.729340 113.936333,258.704468 
	C131.934692,258.577911 149.934906,258.580933 167.933273,258.708038 
	C171.332153,258.732056 172.482513,257.454437 172.979584,254.180893 
	C176.061356,233.885376 184.230209,215.964447 198.491257,201.004196 
	C213.888519,184.852036 232.802246,175.399490 254.738495,172.090469 
	C258.992859,171.448700 259.734314,169.639404 259.711670,165.902588 
	C259.583282,144.737595 259.638031,123.571373 259.659424,102.405609 
	C259.667450,94.492752 262.509735,91.692215 270.555481,91.685440 
	C293.721191,91.665924 316.888031,91.561905 340.051666,91.781937 
	C344.730316,91.826385 346.041718,90.315063 345.987427,85.782761 
	C345.777954,68.286057 345.892212,50.785229 345.935516,33.286060 
	C345.941254,30.965654 346.041687,28.613781 346.425720,26.331568 
	C348.000000,16.974962 354.207916,11.668921 363.633850,11.664027 
	C411.131897,11.639369 458.629944,11.634362 506.127960,11.671229 
	C516.531921,11.679304 523.320129,18.487871 523.332458,28.889174 
	C523.371521,61.887760 523.360535,94.886436 523.341125,127.885056 
	C523.334717,138.903229 516.512817,145.878021 505.309357,146.171341 
	C498.691132,146.344589 492.064697,146.203003 484.980408,146.203003 
	C485.976593,150.825790 488.738678,153.846115 490.485657,157.335175 
	C494.884033,166.119690 490.763092,173.365768 481.042023,173.386444 
	C450.210144,173.451996 419.377899,173.449951 388.546051,173.375244 
	C379.290863,173.352829 374.817017,165.766632 379.096405,157.571838 
	C380.929626,154.061310 382.972382,150.660202 385.201263,146.710892 
	C378.880066,145.745728 373.109070,146.305191 367.379120,146.244583 
	C352.530853,146.087509 346.031586,139.678009 345.965332,124.886940 
	C345.950409,121.553818 345.750275,118.203392 346.016357,114.891541 
	C346.383240,110.325172 344.567963,108.751137 339.994324,108.802841 
	C322.997192,108.994965 305.996582,108.886215 288.997284,108.875374 
	C276.364197,108.867317 276.352844,108.856934 276.341125,121.694489 
	C276.328064,136.027206 276.659698,150.370850 276.174805,164.687164 
	C275.989960,170.145630 277.943756,171.842636 282.865204,172.565369 
	C307.014832,176.111923 326.656219,187.761887 342.182739,206.438370 
	C353.074310,219.539520 359.815826,234.566666 362.399506,251.427734 
	C363.504883,258.641266 363.486847,258.646637 370.616119,258.648071 
	C390.615295,258.652039 410.614471,258.648407 430.613647,258.658356 
	C441.150635,258.663605 443.345093,260.903564 443.346863,271.640015 
	C443.351410,299.305542 443.468231,326.972015 443.238586,354.635651 
	C443.197449,359.596985 444.831085,361.083099 449.525513,360.718262 
	C453.826263,360.384003 458.173859,360.652008 463.000610,360.654297 
M363.296509,438.498840 
	C363.300598,442.494934 363.584930,446.515625 363.236328,450.480713 
	C362.820312,455.212433 364.395386,456.776154 369.308502,456.756531 
	C413.097717,456.581573 456.888123,456.601501 500.677612,456.737885 
	C505.151764,456.751831 506.794983,455.594055 506.749756,450.857666 
	C506.533569,428.215546 506.558594,405.569336 506.749786,382.926697 
	C506.786682,378.560913 505.490295,377.219452 501.082733,377.234131 
	C456.960297,377.380829 412.836945,377.391937 368.714600,377.234863 
	C364.120239,377.218506 363.171204,378.861237 363.215607,383.054138 
	C363.407898,401.200775 363.297729,419.350586 363.296509,438.498840 
M172.721619,419.500031 
	C172.719681,407.333649 172.563293,395.164307 172.799042,383.002533 
	C172.882248,378.708832 171.667862,377.227234 167.176834,377.242279 
	C123.011665,377.390564 78.845665,377.374054 34.680325,377.251648 
	C30.529728,377.240143 29.243530,378.555695 29.273161,382.689026 
	C29.436834,405.520691 29.426764,428.354614 29.279013,451.186493 
	C29.253138,455.185150 30.289240,456.739807 34.577221,456.727386 
	C78.909180,456.599030 123.241760,456.614746 167.573853,456.719727 
	C171.510849,456.729034 172.840439,455.388031 172.771378,451.498199 
	C172.587997,441.168427 172.716629,430.833160 172.721619,419.500031 
M35.711075,107.652351 
	C79.202652,107.656158 122.694229,107.662170 166.185806,107.661377 
	C172.677658,107.661263 172.699203,107.646515 172.703003,100.991661 
	C172.715683,78.829254 172.587479,56.665600 172.811234,34.505428 
	C172.859985,29.676697 171.335129,28.245178 166.554504,28.262135 
	C122.730141,28.417595 78.904884,28.405945 35.080296,28.290064 
	C30.818691,28.278795 29.227240,29.443974 29.264500,33.932590 
	C29.453991,56.759960 29.448343,79.590538 29.265043,102.418007 
	C29.230606,106.706512 30.781908,108.180099 35.711075,107.652351 
M503.855927,107.603271 
	C507.405670,107.155052 506.617767,104.373611 506.622101,102.198349 
	C506.667267,79.555710 506.541748,56.911980 506.743378,34.271042 
	C506.784058,29.706427 505.449951,28.260023 500.813507,28.275808 
	C456.860504,28.425447 412.906586,28.412180 368.953461,28.277651 
	C364.668427,28.264536 363.163177,29.386927 363.204620,33.878525 
	C363.413635,56.519344 363.416748,79.164101 363.214111,101.804985 
	C363.173279,106.366493 364.465942,107.771629 369.115509,107.754272 
	C413.734375,107.587753 458.354065,107.648827 503.855927,107.603271 
M228.968994,302.397247 
	C232.884018,300.270508 236.799042,298.143738 240.728088,296.009369 
	C220.821640,271.151276 219.408890,248.855606 236.546112,230.959274 
	C251.604095,215.234283 276.513519,213.218796 293.966461,226.241150 
	C303.233826,233.155930 308.880646,242.352112 310.806305,253.632324 
	C313.669525,270.404663 307.651703,284.251587 294.942993,295.992462 
	C307.595337,301.600800 317.682343,309.284485 326.002533,319.195496 
	C352.002960,293.366547 356.157959,243.033112 323.036591,210.800949 
	C290.104858,178.753342 237.019989,181.335785 207.884094,216.151031 
	C178.229630,251.585876 187.924728,299.026855 210.214371,318.971741 
	C215.393402,312.616760 221.489044,307.257080 228.968994,302.397247 
M283.214050,310.308502 
	C260.208374,304.024261 230.282059,314.604828 223.742874,331.334808 
	C248.718552,351.343170 290.644684,349.679291 312.748871,330.716553 
	C305.472565,320.654297 295.659760,314.300446 283.214050,310.308502 
M292.322113,271.696381 
	C294.615356,265.985657 295.314178,260.228821 293.611115,254.151932 
	C289.722595,240.276733 275.397308,231.990601 261.140045,235.565735 
	C247.649979,238.948486 239.010788,253.212631 242.211823,266.818085 
	C244.810013,277.861267 253.836746,286.251251 264.559113,287.589020 
	C275.859131,288.998871 285.903748,283.428925 292.322113,271.696381 
M71.901169,505.649384 
	C93.058189,505.649384 114.215210,505.649384 135.755814,505.649384 
	C132.549789,495.684174 131.624756,495.002167 122.786377,495.007904 
	C107.959343,495.017548 93.132317,495.013794 78.305283,495.019958 
	C71.093834,495.022949 68.335907,497.517975 67.175766,505.082550 
	C68.358948,505.949280 69.735504,505.531555 71.901169,505.649384 
M451.498657,156.666077 
	C457.374481,156.666077 463.250305,156.666077 469.401581,156.666077 
	C466.293304,146.916672 465.366516,146.207932 456.707428,146.210571 
	C441.908386,146.215103 427.109314,146.221207 412.310272,146.221848 
	C404.563660,146.222183 402.564636,147.900604 400.696808,156.665939 
	C417.403961,156.665939 433.951538,156.665939 451.498657,156.666077 
M504.624725,477.613159 
	C506.244019,477.235046 507.012970,476.142365 506.261475,474.690582 
	C505.189331,472.619263 503.023804,473.384399 501.301056,473.382721 
	C457.017761,473.339813 412.734406,473.341583 368.451080,473.345642 
	C367.290771,473.345764 366.119598,473.381012 364.973602,473.542542 
	C364.064667,473.670624 363.551788,474.343109 363.477631,475.272888 
	C363.387451,476.403748 363.843475,477.293121 364.978638,477.504242 
	C366.111938,477.714966 367.291351,477.740936 368.450531,477.740662 
	C413.566010,477.730194 458.681519,477.707458 504.624725,477.613159 
M465.319000,496.852539 
	C463.688477,494.529877 461.209686,495.016663 458.939636,495.012573 
	C443.316650,494.984406 427.693573,495.002136 412.070526,495.008606 
	C404.689484,495.011688 402.133331,497.297760 400.918610,505.124207 
	C423.686005,505.124207 446.421753,505.124207 469.336426,505.124207 
	C468.748932,501.877502 466.979187,499.815887 465.319000,496.852539 
M90.500908,146.231155 
	C86.679298,146.233475 82.857697,146.240219 79.036087,146.237167 
	C70.916107,146.230713 69.102898,147.700226 67.027176,156.135529 
	C89.807961,156.135529 112.538704,156.135529 135.431183,156.135529 
	C132.522385,146.840347 131.739319,146.242599 122.904106,146.237122 
	C112.436241,146.230637 101.968384,146.232620 90.500908,146.231155 
M504.624115,128.747040 
	C507.696228,127.073959 507.149170,125.564056 504.261902,124.554794 
	C503.062653,124.135612 501.622711,124.366959 500.292236,124.366722 
	C456.502472,124.358719 412.712738,124.357727 368.922974,124.361595 
	C367.758667,124.361694 366.588257,124.365257 365.431854,124.480019 
	C364.345490,124.587837 363.560822,125.167877 363.472565,126.355316 
	C363.368103,127.760666 364.098938,128.562973 365.448639,128.737762 
	C366.435181,128.865540 367.440186,128.893600 368.436981,128.893295 
	C413.558380,128.879547 458.679810,128.857742 504.624115,128.747040 
M33.052128,128.886536 
	C77.496323,128.875610 121.940582,128.890167 166.384506,128.775116 
	C168.506149,128.769623 172.427063,130.300262 172.339447,126.525322 
	C172.255035,122.888031 168.385178,124.446228 166.239975,124.441299 
	C122.794724,124.341377 79.349167,124.371773 35.903667,124.378403 
	C34.738705,124.378586 33.572308,124.373718 32.409142,124.427017 
	C30.987366,124.492165 29.651150,124.866486 29.558382,126.568092 
	C29.462797,128.321335 30.765972,128.730179 33.052128,128.886536 
M171.318588,477.325317 
	C174.075012,472.122803 169.700867,473.411896 167.496307,473.408112 
	C123.164749,473.332184 78.833038,473.346313 34.501362,473.352997 
	C33.339939,473.353149 32.167168,473.394135 31.020727,473.560760 
	C30.112167,473.692810 29.592081,474.376312 29.525141,475.299805 
	C29.442835,476.435394 29.932896,477.323578 31.084995,477.476471 
	C32.563766,477.672699 34.071270,477.713776 35.566513,477.715302 
	C56.399017,477.736603 77.231567,477.766663 98.064049,477.740173 
	C122.227028,477.709473 146.389938,477.625275 171.318588,477.325317 
z"/>
</svg>